<?xml version="1.0"?>
<svg xmlns="http://www.w3.org/2000/svg" width="512" height="512" viewBox="0 0 512 512" fill="white"><g><path d="M499.76,192.94,408,144V64a8,8,0,0,0-8-8H112a8,8,0,0,0-8,8v80L12.24,192.94A8.005,8.005,0,0,0,8,200V456a8,8,0,0,0,8,8H496a8,8,0,0,0,8-8V200A8.005,8.005,0,0,0,499.76,192.94ZM408,162.13,479,200l-71,37.87ZM120,72H392V246.4L256,318.93,120,246.4Zm-16,90.13v75.74L33,200Zm-80,51.2,155.7,83.04L24,437.92ZM36.69,448l158-143.63,57.55,30.69a7.99,7.99,0,0,0,7.52,0l57.55-30.69L475.31,448ZM488,437.92,332.3,296.37,488,213.33Z"/><path d="M176,424H80a8,8,0,0,0,0,16h96a8,8,0,0,0,0-16Z"/><path d="M208,424h-8a8,8,0,0,0,0,16h8a8,8,0,0,0,0-16Z"/><path d="M144,176H264a8,8,0,0,0,0-16H144a8,8,0,0,0,0,16Z"/><path d="M144,200h48a8,8,0,0,0,0-16H144a8,8,0,0,0,0,16Z"/><path d="M224,184h-8a8,8,0,0,0,0,16h8a8,8,0,0,0,0-16Z"/><path d="M144,144H368a8,8,0,0,0,8-8V104a8,8,0,0,0-8-8H144a8,8,0,0,0-8,8v32A8,8,0,0,0,144,144Zm8-32H360v16H152Z"/></g></svg>
