<?xml version="1.0" encoding="UTF-8" standalone="no"?>
<svg
   xmlns:dc="http://purl.org/dc/elements/1.1/"
   xmlns:cc="http://creativecommons.org/ns#"
   xmlns:rdf="http://www.w3.org/1999/02/22-rdf-syntax-ns#"
   xmlns:svg="http://www.w3.org/2000/svg"
   xmlns="http://www.w3.org/2000/svg"
   height="1150.9188"
   width="1161.2076"
   version="1.1"
   viewBox="0 0 1161.2076 1150.9188"
   data-name="Layer 1"
   id="Layer_1">
  <metadata
     id="metadata2806">
    <rdf:RDF>
      <cc:Work
         rdf:about="">
        <dc:format>image/svg+xml</dc:format>
        <dc:type
           rdf:resource="http://purl.org/dc/dcmitype/StillImage" />
        <dc:title>Revels2020_Logo expand 3</dc:title>
      </cc:Work>
    </rdf:RDF>
  </metadata>
  <defs
     id="defs2509">
    <style
       id="style2507">
      .cls-1 {
        fill: #ea7165;
      }

      .cls-2 {
        fill: #ef4829;
      }

      .cls-3 {
        fill: none;
        stroke: #ef4829;
        stroke-miterlimit: 10;
        stroke-width: 30px;
      }

      .cls-4 {
        fill: #ee3324;
      }

      .cls-5 {
        fill: #e8634d;
      }

      .cls-6 {
        fill: #008e6a;
      }
    </style>
  </defs>
  <title
     id="title2511">Revels2020_Logo expand 3</title>
  <path
     style="fill:#ea7165"
     id="path2513"
     d="m 130.09144,430.87 c 3,-5.81 5.28,-10.74 6,-16 1.26,-8.91 2.49,-17.84 4.25,-26.82 1.67,-8.57 5.61,-17.05 10.75,-24.77 3.77,-5.68 8.83,-10.56 13.37,-15.75 10,-11.44 21.69,-19.79 33.07,-28.65 8.81,-6.86 17.78,-13.34 26.69,-20 a 5.56,5.56 0 0 1 2.94,-1.25 c -1.39,1.21 -2.77,2.41 -4.15,3.63 a 76.09,76.09 0 0 0 -20.3,29.16 c -5.59,14.06 -11,28.17 -16.74,42.2 a 113.86,113.86 0 0 1 -8.54,16.89 54.22,54.22 0 0 1 -19.13,18 c -1.79,1 -3.59,2.13 -5.4,3 -7.55,3.41 -13.16,9.61 -17.79,17.29 -0.77,1.27 -1.49,2.58 -2.31,3.83 a 13.56,13.56 0 0 0 -2.39,9.66 c 2.74,22.28 7.89,43 16.07,61.89 1.53,3.54 1.46,3.65 -3.24,9.25 -1.31,-3.12 -2.59,-6.11 -3.83,-9.14 -8.71,-21.19 -13.62,-44.61 -15.71,-69.73 A 21.19,21.19 0 0 0 99.991437,414.01 c -6.41,0.8 -12.41,0.75 -17.84,-1.57 -6.81,-2.9 -10.35,-9 -13.42,-15.82 q -6.93,-15.26 -13.78,-30.56 c -4.49,-10 -11.62,-16.48 -22.35,-18.27 -0.29,0 -0.48,-0.33 -0.53,-1 2.9,0.2 5.86,0.22 8.67,0.63 13.5,1.95 27.06,3.75 40.37,6.17 4.67,0.84 8.81,3.06 13,5.06 3.74,1.81 7.570003,3.63 10.600003,6.39 7.06,6.32 10.14,16.02 11.14,27.22 0.49,5.7 0.87,11.46 1.54,17.07 a 19.28,19.28 0 0 0 5.62,11.51 c 0.16,-2 0.35,-3.53 0.37,-5 0.41,-23.48 2.76,-47.38 8.72,-72.07 0.92,-3.79 1.6,-7.6 2.86,-11.37 2.76,-8.3 -1.58,-21.08 -8.43,-23.23 -11.44,-3.59 -16.22,-13.12 -16.51,-27 -0.2,-9.43 -0.58,-18.79 -0.92,-28.17 -0.41,-11.32 -1.89,-21.94 -8.84,-29.08 a 2.39,2.39 0 0 1 0.91,0.23 c 5.6,4.43 11.3,8.75 16.75,13.39 4.35,3.7 8.8,7.37 12.46,11.85 a 61.57,61.57 0 0 1 9.47,15.31 c 3.47,8.35 3.09,18.56 0.92,29.37 -1.39,6.95 -2.32,13.86 -3.32,20.76 a 9.23,9.23 0 0 0 0.66,4.76 c 1.36,-3.93 2.75,-7.86 4.08,-11.8 a 365.56,365.56 0 0 1 25.16,-57.91 c 6.18,-11.34 13.12,-22.38 19.65,-33.58 a 11.05,11.05 0 0 0 1.36,-3.85 c 0.86,-6.34 -0.9,-10.83 -4.62,-14.15 -4.18,-3.74 -5.68,-9.41 -3.84,-16.74 2.63,-10.5 5.59,-21 8.32,-31.5 1.93,-7.42 3.64,-14.83 2.28,-21.48 -0.34,-1.62 -0.91,-3.11 -1.37,-4.66 l 0.72,-0.56 q 4.26,7.57 8.53,15.15 a 67.77,67.77 0 0 1 7.47,19.94 c 1.81,8.75 -0.46,17.91 -4.48,27.4 -2.72,6.41 -6,12.73 -8.89,19.1 a 10.37,10.37 0 0 0 -1,4.47 c 1.71,-2.21 3.51,-4.36 5.12,-6.64 a 412.86,412.86 0 0 1 28.9,-36.69 c 11.16,-12.55 22.75,-24.62 35.4,-34.87 6.28,-5.09 10.11,-21 5.54,-25.59 -4.27,-4.26 -5.21,-10.79 -1.65,-18.87 3.74,-8.51 7.64,-17 11.57,-25.45 3.93,-8.45 6.78,-16.6 5.13,-24.38 -0.07,-0.29 0,-0.67 0.57,-1.34 1.8,5.27 3.63,10.52 5.39,15.82 2.28,6.84 4.29,13.77 4.45,21.89 0.16,8.12 -2.63,15.67 -7.69,23.21 -3.46,5.15 -7,10.28 -10.73,15.2 -2.78,3.64 -3.4,7.24 -4.38,11.61 a 25.28,25.28 0 0 0 2.73,-1.66 416.14,416.14 0 0 1 57.02,-37.92 34.38,34.38 0 0 0 17,-22.83 c 2.49,-11 8.27,-19.58 17.08,-27 7.5,-6.31 14.93,-12.86 22,-19.87 3.14,-3.11 5.31,-7.59 7.9,-11.47 a 6.7,6.7 0 0 1 1.48,-1.82 c -0.68,2 -1.32,4 -2.07,5.93 -5.14,13.64 -10.38,27.24 -17.72,40.4 -5.32,9.52 -12.29,16.46 -21.1,21 -5.33,2.72 -10.8,5 -15.42,10.12 -0.32,0.36 -0.62,0.75 -1.45,1.77 2.25,-1 3.87,-1.66 5.49,-2.41 a 290,290 0 0 1 57.9,-19.66 33.15,33.15 0 0 0 14.82,-7.54 50.56,50.56 0 0 0 6.19,-7.15 c 3.31,-4.31 6.21,-9 9.8,-13 a 31.66,31.66 0 0 1 9.1,-6.89 c 5.86,-2.86 11.81,-5 17.73,-7.29 7.85,-3 15.49,-6.57 22.15,-14 0.5,-0.55 1,-1.15 1.44,-1.7 a 4.36,4.36 0 0 1 1.74,-1.33 3.78,3.78 0 0 1 -0.37,0.9 c -10.07,12.83 -19.39,26.34 -30.75,38 -7,7.18 -14.29,12.87 -22.69,14.06 -4.08,0.59 -8,0.5 -12.11,1 a 33.48,33.48 0 0 0 -5.57,1.73 l -0.09,0.79 c 1.64,-0.18 3.27,-0.3 4.93,-0.57 a 229.32,229.32 0 0 1 39.42,-2.43 42.9,42.9 0 0 0 25.36,-7.12 c 9.25,-6.09 17,-4.7 24.58,-2.55 4.75,1.35 9.62,2.44 14.5,3.51 5.11,1.13 10.64,0 16.48,-2.38 a 10.48,10.48 0 0 1 -1.31,1 c -13.68,7.77 -27.39,15.21 -41.44,20 -7.6,2.58 -13.76,1.58 -19.19,-1.74 a 20.37,20.37 0 0 1 -3.88,-2.73 c -4.1,-4.08 -9.68,-5 -15.84,-4.87 -6.8,0.15 -13.55,0.18 -20.34,0.3 a 15.71,15.71 0 0 0 -2.17,0.34 l -0.35,1.07 c 2.27,0.35 4.44,1 6.81,1 3.31,-0.09 6.78,-0.78 10.16,-1.11 9.48,-0.94 16.36,2.81 21.74,9.22 8.49,10.11 14.3,22.63 20.41,34.88 a 1.84,1.84 0 0 1 0,1.4 c -1,-1.2 -2,-2.38 -3,-3.6 -4.06,-5.12 -10.34,-6.57 -16.46,-8.25 -5.59,-1.54 -11.23,-3 -16.88,-4.36 -7.65,-1.88 -12,-7.44 -14.31,-15.42 -2.9,-10.15 -9.44,-15.13 -20.37,-13.48 a 253.84,253.84 0 0 0 -55.76,14.77 c -1.39,0.55 -2.77,1.23 -4.15,1.85 l -0.15,1 c 3.15,-0.46 6.28,-0.52 9.45,-1.47 6.9,-2.05 13.84,-4.41 20.16,-3.39 a 25.44,25.44 0 0 1 8.86,2.93 c 8.54,5 15.61,12 22,19.72 3,3.7 6.21,7.27 9.32,10.89 l -0.47,0.64 a 32,32 0 0 1 -3.27,-2.36 c -3.94,-3.58 -9.16,-4.51 -14.79,-4.63 -7.45,-0.16 -14.83,-0.57 -22.34,-0.5 -9,0.1 -14.64,-4.78 -18.53,-12 -2.53,-4.72 -6.61,-7.13 -11.51,-8.28 a 11.51,11.51 0 0 0 -6.72,0.9 c -20.88,9 -41.17,21 -61,35.24 -2.83,2 -5.62,4.17 -8.34,6.47 6.06,-0.55 11.37,-4.74 16.64,-9.09 7.08,-5.83 14.58,-10.91 22.07,-11.19 6.3,-0.24 12.66,0.53 17.94,2.74 9.6,4 18.41,9.42 27.54,14.26 a 2.19,2.19 0 0 1 1.1,1.25 72.9,72.9 0 0 0 -7.28,-1.55 c -6,-0.71 -12.41,1.94 -18.77,4.52 -7.66,3.1 -15.32,6.2 -23,9.44 -7.68,3.24 -13.56,1.7 -18.47,-2.4 -2,-1.64 -3.64,-3.86 -6,-4.71 -8,-2.84 -16.48,-0.32 -25.21,7.23 a 405.2,405.2 0 0 0 -52.08,53.64 c -5.24,6.57 -10.38,13.23 -15.44,20.08 a 22.74,22.74 0 0 0 10.06,-7 c 3.67,-4.28 7.22,-8.69 11,-12.77 9.34,-10 19.31,-15.09 30.38,-16.13 11.53,-1.09 22,0.53 32.68,1.94 a 88.06,88.06 0 0 1 13.12,2.62 5.88,5.88 0 0 1 -1.41,0.31 c -10.51,-0.33 -20.54,5.73 -30.55,13.25 -7.33,5.52 -14.78,10.77 -22.23,16 -8.06,5.65 -15.51,6.13 -21.9,3.21 -6.39,-2.92 -13.06,-3 -20.89,1.5 a 19.27,19.27 0 0 0 -5.86,5.23 357.24,357.24 0 0 0 -37.82,68.2 c -5.62,13.41 -10.13,27 -15.13,40.58 -0.3,0.84 -0.45,1.7 -0.8,3 a 63.77,63.77 0 0 0 14.22,-20.37 213.48,213.48 0 0 1 10.35,-20.9 62.74,62.74 0 0 1 18.25,-19.74 c 14.85,-10.37 30.12,-16.42 45.48,-22 6.35,-2.3 12.71,-4.48 19.15,-6.41 -0.58,0.35 -1.15,0.76 -1.73,1 a 62.75,62.75 0 0 0 -23.5,19.92 q -14,19.13 -28.46,38 c -7.66,10 -17,15.26 -26.66,16.3 -10.56,1.15 -18.75,8 -26.33,17.63 a 17.35,17.35 0 0 0 -3.09,5.67 c -8.7,32 -12.19,62.83 -10.73,92.56 0.02,1.36 0.27,2.66 0.51,4.68 z"
     class="cls-1" />
  <path
     style="fill:#ea7165"
     id="path2515"
     d="m 1025.8514,430.87 c -3,-5.81 -5.28,-10.74 -6,-16 -1.26,-8.91 -2.49,-17.84 -4.25,-26.82 -1.67,-8.57 -5.61,-17.05 -10.75,-24.77 -3.77,-5.68 -8.83996,-10.56 -13.36996,-15.75 -10,-11.44 -21.69,-19.79 -33.07,-28.65 -8.81,-6.86 -17.78,-13.34 -26.69,-20 a 5.56,5.56 0 0 0 -2.94,-1.25 c 1.38,1.21 2.77,2.41 4.15,3.63 a 76.09,76.09 0 0 1 20.3,29.16 c 5.58,14.06 11,28.17 16.74,42.2 a 113.86,113.86 0 0 0 8.54,16.89 54.22,54.22 0 0 0 19.13,18 c 1.79,1 3.58996,2.13 5.39996,3 7.55,3.41 13.16,9.61 17.79,17.29 0.77,1.27 1.49,2.58 2.3,3.83 a 13.52,13.52 0 0 1 2.4,9.66 c -2.74,22.28 -7.89,43 -16.07,61.89 -1.53,3.54 -1.47,3.65 3.24,9.25 1.31,-3.12 2.59,-6.11 3.83,-9.14 8.71,-21.19 13.62,-44.61 15.7,-69.73 a 21.2,21.2 0 0 1 23.72,-19.55 c 6.41,0.8 12.41,0.75 17.84,-1.57 6.81,-2.9 10.34,-9 13.42,-15.82 q 6.92,-15.26 13.78,-30.56 c 4.49,-10 11.62,-16.48 22.35,-18.27 0.28,0 0.48,-0.33 0.53,-1 -2.9,0.2 -5.86,0.22 -8.67,0.63 -13.5,1.95 -27.06,3.75 -40.37,6.17 -4.67,0.84 -8.81,3.06 -13,5.06 -3.73,1.81 -7.56,3.63 -10.59,6.39 -7.09,6.44 -10.17,16.13 -11.12,27.33 -0.49,5.7 -0.87,11.46 -1.54,17.07 a 19.28,19.28 0 0 1 -5.62,11.51 c -0.16,-2 -0.35,-3.53 -0.37,-5 -0.41,-23.48 -2.76,-47.38 -8.72,-72.07 -0.92,-3.79 -1.6,-7.6 -2.86,-11.37 -2.76,-8.3 1.58,-21.08 8.42,-23.23 11.45,-3.59 16.23,-13.12 16.52,-27 0.2,-9.43 0.58,-18.79 0.92,-28.17 0.41,-11.32 1.89,-21.94 8.84,-29.08 a 2.35,2.35 0 0 0 -0.91,0.23 c -5.61,4.43 -11.31,8.75 -16.75,13.39 -4.36,3.7 -8.8,7.37 -12.47,11.85 a 61.84,61.84 0 0 0 -9.52,15.23 c -3.47,8.35 -3.1,18.56 -0.93,29.37 1.4,6.95 2.33,13.86 3.33,20.76 a 9.23,9.23 0 0 1 -0.66,4.76 c -1.36,-3.93 -2.75,-7.86 -4.08,-11.8 a 365.56,365.56 0 0 0 -25.15996,-57.91 c -6.19,-11.34 -13.12,-22.38 -19.65,-33.58 a 11.05,11.05 0 0 1 -1.36,-3.85 c -0.86,-6.34 0.9,-10.83 4.61,-14.15 4.19,-3.74 5.69,-9.41 3.85,-16.74 -2.63,-10.5 -5.59,-21 -8.32,-31.5 -1.93,-7.42 -3.64,-14.83 -2.28,-21.48 0.33,-1.62 0.9,-3.11 1.36,-4.66 l -0.68,-0.55 q -4.26,7.57 -8.53,15.15 a 67.49,67.49 0 0 0 -7.45,19.93 c -1.81,8.75 0.46,17.91 4.48,27.4 2.72,6.41 5.94,12.73 8.89,19.1 a 10.52,10.52 0 0 1 1,4.47 c -1.71,-2.21 -3.51,-4.36 -5.12,-6.64 a 414.71,414.71 0 0 0 -28.9,-36.69 c -11.16,-12.55 -22.75,-24.62 -35.4,-34.87 -6.28,-5.09 -10.11,-21 -5.54,-25.59 4.27,-4.26 5.2,-10.79 1.65,-18.87 -3.74,-8.51 -7.64,-17 -11.57,-25.45 -3.93,-8.45 -6.78,-16.6 -5.13,-24.38 0.07,-0.29 0,-0.67 -0.57,-1.34 -1.8,5.27 -3.63,10.52 -5.39,15.82 -2.28,6.84 -4.29,13.77 -4.45,21.89 -0.16,8.12 2.63,15.67 7.69,23.21 3.46,5.15 7,10.28 10.73,15.2 2.78,3.64 3.4,7.24 4.38,11.61 a 25.28,25.28 0 0 1 -2.73,-1.66 416.14,416.14 0 0 0 -57.09,-37.92 34.38,34.38 0 0 1 -17,-22.83 c -2.49,-11 -8.27,-19.58 -17.08,-27 -7.5,-6.31 -14.93,-12.86 -22,-19.87 -3.14,-3.11 -5.31,-7.59 -7.91,-11.47 a 6.47,6.47 0 0 0 -1.47,-1.82 c 0.68,2 1.32,4 2.06,5.93 5.14,13.64 10.39,27.24 17.73,40.4 5.32,9.52 12.29,16.46 21.1,21 5.32,2.72 10.8,5 15.41,10.12 0.33,0.36 0.63,0.75 1.46,1.77 -2.25,-1 -3.87,-1.66 -5.49,-2.41 a 289.88,289.88 0 0 0 -57.91,-19.66 33.17,33.17 0 0 1 -14.77,-7.55 49.92,49.92 0 0 1 -6.19,-7.15 c -3.31,-4.31 -6.21,-9 -9.81,-13 a 31.48,31.48 0 0 0 -9.09,-6.89 c -5.86,-2.86 -11.82,-5 -17.74,-7.29 -7.84,-3 -15.48,-6.57 -22.14,-14 -0.5,-0.55 -0.95,-1.15 -1.44,-1.7 a 4.36,4.36 0 0 0 -1.74,-1.33 3.78,3.78 0 0 0 0.37,0.9 c 10.07,12.83 19.39,26.34 30.74,38 7,7.18 14.3,12.87 22.7,14.06 4.08,0.59 8,0.5 12.11,1 a 33.48,33.48 0 0 1 5.57,1.73 l 0.09,0.79 c -1.64,-0.18 -3.27,-0.3 -4.93,-0.57 a 229.32,229.32 0 0 0 -39.42,-2.43 42.9,42.9 0 0 1 -25.36,-7.18 c -9.25,-6.09 -17,-4.7 -24.58,-2.55 -4.75,1.35 -9.62,2.44 -14.5,3.51 -5.11,1.13 -10.64,0 -16.48,-2.38 a 11.17,11.17 0 0 0 1.3,1 c 13.69,7.77 27.4,15.21 41.45,20 7.6,2.58 13.76,1.58 19.19,-1.74 a 20.37,20.37 0 0 0 3.88,-2.73 c 4.09,-4.08 9.68,-5 15.84,-4.87 6.79,0.15 13.55,0.18 20.33,0.3 a 15.25,15.25 0 0 1 2.17,0.34 l 0.35,1.07 c -2.26,0.35 -4.43,1 -6.8,1 -3.31,-0.09 -6.78,-0.78 -10.17,-1.11 -9.48,-0.94 -16.35,2.81 -21.73,9.22 -8.49,10.11 -14.3,22.63 -20.41,34.88 a 1.84,1.84 0 0 0 -0.05,1.4 c 1,-1.2 2,-2.38 3,-3.6 4.06,-5.12 10.34,-6.57 16.46,-8.25 5.58,-1.54 11.22,-3 16.88,-4.36 7.65,-1.88 12,-7.44 14.3,-15.42 2.91,-10.15 9.45,-15.13 20.38,-13.48 a 253.84,253.84 0 0 1 55.83,14.81 c 1.39,0.55 2.77,1.23 4.15,1.85 l 0.15,1 c -3.15,-0.46 -6.28,-0.52 -9.45,-1.47 -6.9,-2.05 -13.84,-4.41 -20.16,-3.39 a 25.49,25.49 0 0 0 -8.87,2.93 c -8.53,5 -15.6,12 -22,19.72 -3,3.7 -6.21,7.27 -9.33,10.89 l 0.48,0.64 a 33.1,33.1 0 0 0 3.27,-2.36 c 3.94,-3.58 9.15,-4.51 14.79,-4.63 7.45,-0.16 14.83,-0.57 22.34,-0.5 9,0.1 14.64,-4.78 18.53,-12 2.53,-4.72 6.6,-7.13 11.5,-8.28 a 11.53,11.53 0 0 1 6.73,0.9 c 20.88,9 41.17,21 61,35.24 2.82,2 5.62,4.17 8.34,6.47 -6.06,-0.55 -11.37,-4.74 -16.64,-9.09 -7.08,-5.83 -14.58,-10.91 -22.07,-11.19 -6.3,-0.24 -12.66,0.53 -18,2.74 -9.59,4 -18.4,9.42 -27.53,14.26 a 2.24,2.24 0 0 0 -1.11,1.25 74.12,74.12 0 0 1 7.28,-1.55 c 6,-0.71 12.42,1.94 18.78,4.52 7.66,3.1 15.31,6.2 23,9.44 7.69,3.24 13.57,1.7 18.48,-2.4 2,-1.64 3.64,-3.86 6,-4.71 8,-2.84 16.48,-0.32 25.21,7.23 a 405.2,405.2 0 0 1 52.08,53.64 c 5.24,6.57 10.38,13.23 15.43,20.08 a 22.76,22.76 0 0 1 -10,-7 c -3.67,-4.28 -7.23,-8.69 -11,-12.77 -9.34,-10 -19.31,-15.09 -30.38,-16.13 -11.54,-1.09 -22,0.53 -32.68,1.94 a 88.06,88.06 0 0 0 -13.12,2.62 5.88,5.88 0 0 0 1.41,0.31 c 10.51,-0.33 20.54,5.73 30.55,13.25 7.33,5.52 14.78,10.77 22.22,16 8.07,5.65 15.52,6.13 21.91,3.21 6.39,-2.92 13.06,-3 20.89,1.5 a 19.27,19.27 0 0 1 5.86,5.23 357.24,357.24 0 0 1 37.82,68.2 c 5.61996,13.41 10.12996,27 15.11996,40.58 0.31,0.84 0.46,1.7 0.8,3 a 63.74,63.74 0 0 1 -14.06996,-20.31 213.48,213.48 0 0 0 -10.35,-20.9 62.85,62.85 0 0 0 -18.25,-19.74 c -14.85,-10.37 -30.12,-16.42 -45.48,-22 -6.36,-2.3 -12.71,-4.48 -19.15,-6.41 a 19.33,19.33 0 0 0 1.73,1 62.75,62.75 0 0 1 23.53,19.86 q 14,19.13 28.46,38 c 7.66,10 17,15.26 26.66,16.3 10.56,1.15 18.74996,8 26.32996,17.63 a 17.54,17.54 0 0 1 3.09,5.67 c 8.7,32 12.19,62.83 10.73,92.56 -0.19,1.36 -0.44,2.66 -0.69,4.68 z"
     class="cls-1" />
  <g
     transform="translate(-480.14856,-433.64)"
     id="g2525">
    <path
       style="fill:#ef4829"
       id="path2517"
       d="m 575.55,936.32 c -2.39,3.28 -4.58,6.3 -6.76,9.32 -1.78,2.46 -3.46,5 -5.33,7.4 -7.72,9.83 -7.57,20.11 -2.15,30.9 10.46,20.83 25.3,38.41 41.16,55.16 10.57,11.17 21.8,21.73 32.73,32.56 0.74,0.74 1.53,1.44 2.19,2.24 a 4.11,4.11 0 0 1 0,5.73 4.41,4.41 0 0 1 -6,0.95 5.23,5.23 0 0 1 -1,-0.75 c -23.6,-22 -46.66,-44.62 -65,-71.35 A 167,167 0 0 1 550.8,982.57 c -5.11,-11.33 -3.48,-22.72 3.72,-32.81 q 33.62,-47.07 67.63,-93.86 c 10.51,-14.45 10.39,-33.36 -0.82,-46.5 -0.41,-0.47 -0.88,-0.88 -1.58,-1.58 -0.76,1 -1.46,1.83 -2.12,2.72 -33,44.93 -66.2,89.72 -98.91,134.86 -16.8,23.18 -21.75,49.21 -16.08,77.32 3,14.68 10,27.36 18.23,39.63 q 70.56,105.17 140.85,210.52 c 1.85,2.77 3.42,3.13 6.33,1.89 21.83,-9.32 39,-23.89 50.53,-44.75 11.85,-21.37 15.28,-44.27 12.43,-68.36 -3.36,-28.47 -17.09,-52 -35,-73.44 -20.89,-25 -46.11,-45 -73.24,-62.74 -19.29,-12.62 -32.38,-30.08 -39.56,-51.93 a 166,166 0 0 1 -5,-18.17 c -1.27,-6.11 -1.77,-12.37 -2.66,-19.05 z"
       class="cls-2" />
    <path
       style="fill:#ef4829"
       id="path2519"
       d="m 645.66,888.36 a 41.3,41.3 0 0 0 -19.15,16.37 c -7.36,11.75 -9.16,24.29 -4.89,37.62 9.4,29.35 18.72,58.72 28.16,88.06 a 9.74,9.74 0 0 0 2.88,4.61 c 21.15,16.16 40.6,34 56.8,55.27 0.11,0.14 0.34,0.2 0.76,0.45 z"
       class="cls-2" />
    <path
       style="fill:#ef4829"
       id="path2521"
       d="m 486.77,929.41 c 1,-5.88 1.78,-11.14 2.83,-16.35 2.47,-12.18 8.51,-22.94 13.8,-34 3.76,-7.84 7.71,-15.59 11.31,-23.51 a 48.13,48.13 0 0 0 2.47,-8.74 c 9.22,-38.19 18.36,-76.4 27.66,-114.58 1.57,-6.43 3.2,-12.74 2.39,-19.48 -1.38,-11.55 -10,-23.9 -19.94,-27.86 -0.48,1.69 -1,3.36 -1.44,5.05 q -20.69,78.4 -41.38,156.82 a 126.34,126.34 0 0 0 -2.05,56.61 c 1.58,8.42 2.84,16.91 4.35,26.04 z"
       class="cls-2" />
    <path
       style="fill:#ef4829"
       id="path2523"
       d="m 498.2,963.28 c 1.84,-3.86 3.35,-7.93 5.6,-11.54 4.36,-7 8.7,-14.13 13.84,-20.58 12.84,-16.08 22.74,-33.73 31.11,-52.51 13.61,-30.53 28.08,-60.67 42.24,-91 7.15,-15.3 2.16,-35.58 -11.35,-44.44 -0.6,1 -1.28,2 -1.8,3.12 q -28.14,58.15 -56.25,116.32 c -5.7,11.79 -11.45,23.56 -17.07,35.39 -7.39,15.56 -9.31,32 -8,49 0.41,5.39 0.67,10.79 1,16.19 z"
       class="cls-2" />
  </g>
  <circle
     style="fill:none;stroke:#ef4829;stroke-width:30px;stroke-miterlimit:10"
     id="circle2527"
     r="375.82001"
     cy="486.77997"
     cx="581.10144"
     class="cls-3" />
  <path
     style="fill:#ee3324"
     id="path2529"
     d="M 181.54144,839.23 Q 111.22144,733.89 40.691437,628.71 c -8.23,-12.27 -15.26,-24.95 -18.23,-39.63 -3.94,-19.5 -2.75,-38 3.94,-55.23 22.08,120.72 161.450003,307.27 161.450003,307.27 -2.89,1.24 -4.46,0.88 -6.31,-1.89 z"
     class="cls-4" />
  <g
     transform="translate(-480.14856,-433.64)"
     id="g2537">
    <path
       style="fill:#ee3324"
       id="path2531"
       d="m 544.84,732.24 c 1.57,-6.43 3.2,-12.74 2.39,-19.48 -1.33,-11.13 -9.38,-23 -18.86,-27.38 6.66,19.94 12.2,41.74 15,53.13 0.46,-2.09 0.96,-4.18 1.47,-6.27 z"
       class="cls-4" />
    <path
       style="fill:#ee3324"
       id="path2533"
       d="m 579.65,743.26 c 4.75,14.1 9,31.69 11.72,43.56 6.57,-15.19 1.53,-34.82 -11.72,-43.56 z"
       class="cls-4" />
    <path
       style="fill:#ee3324"
       id="path2535"
       d="m 621.3,809.4 c -0.41,-0.47 -0.88,-0.88 -1.58,-1.58 -0.29,0.38 -0.57,0.73 -0.85,1.08 2.5,15.06 3.7,33.38 4.26,45.55 9.48,-14.24 9.01,-32.35 -1.83,-45.05 z"
       class="cls-4" />
  </g>
  <g
     transform="translate(-480.14856,-433.64)"
     id="g2547">
    <path
       style="fill:#ef4829"
       id="path2539"
       d="m 1546,936.32 c 2.39,3.28 4.58,6.3 6.77,9.32 1.78,2.46 3.45,5 5.33,7.4 7.72,9.83 7.56,20.11 2.15,30.9 -10.46,20.83 -25.31,38.41 -41.17,55.16 -10.57,11.17 -21.8,21.73 -32.73,32.56 -0.74,0.74 -1.53,1.44 -2.19,2.24 a 4.11,4.11 0 0 0 0,5.73 4.41,4.41 0 0 0 5.95,0.95 5.23,5.23 0 0 0 1,-0.75 c 23.61,-22 46.66,-44.62 65.05,-71.35 a 166.15,166.15 0 0 0 14.59,-25.91 c 5.11,-11.33 3.49,-22.72 -3.72,-32.81 q -33.6,-47.07 -67.63,-93.86 c -10.51,-14.45 -10.39,-33.36 0.83,-46.5 0.4,-0.47 0.87,-0.88 1.57,-1.58 0.76,1 1.47,1.83 2.12,2.72 33,44.93 66.2,89.72 98.92,134.86 16.79,23.18 21.75,49.21 16.07,77.32 -3,14.68 -10,27.36 -18.23,39.63 q -70.56,105.17 -140.85,210.52 c -1.85,2.77 -3.42,3.13 -6.33,1.89 -21.83,-9.32 -39,-23.89 -50.53,-44.75 -11.85,-21.37 -15.28,-44.27 -12.43,-68.36 3.36,-28.47 17.09,-52 35,-73.44 20.89,-25 46.11,-45 73.24,-62.74 19.29,-12.62 32.38,-30.08 39.56,-51.93 a 161.61,161.61 0 0 0 5,-18.17 c 1.25,-6.11 1.75,-12.37 2.66,-19.05 z"
       class="cls-2" />
    <path
       style="fill:#ef4829"
       id="path2541"
       d="m 1475.87,888.36 a 41.25,41.25 0 0 1 19.13,16.37 c 7.36,11.75 9.16,24.29 4.89,37.62 q -14.09,44 -28.16,88.06 a 9.74,9.74 0 0 1 -2.88,4.61 c -21.15,16.16 -40.6,34 -56.8,55.27 -0.11,0.14 -0.34,0.2 -0.76,0.45 z"
       class="cls-2" />
    <path
       style="fill:#ef4829"
       id="path2543"
       d="m 1634.76,929.41 c -1,-5.88 -1.78,-11.14 -2.83,-16.35 -2.47,-12.18 -8.51,-22.94 -13.8,-34 -3.75,-7.84 -7.71,-15.59 -11.31,-23.51 a 48.13,48.13 0 0 1 -2.47,-8.74 q -13.81,-57.29 -27.66,-114.58 c -1.56,-6.43 -3.2,-12.74 -2.39,-19.48 1.39,-11.55 10,-23.9 19.94,-27.86 0.49,1.69 1,3.36 1.45,5.05 q 20.67,78.4 41.37,156.82 a 126.19,126.19 0 0 1 2,56.61 c -1.55,8.42 -2.78,16.91 -4.3,26.04 z"
       class="cls-2" />
    <path
       style="fill:#ef4829"
       id="path2545"
       d="m 1623.34,963.28 c -1.85,-3.86 -3.36,-7.93 -5.61,-11.54 -4.36,-7 -8.7,-14.13 -13.84,-20.58 -12.84,-16.08 -22.74,-33.73 -31.11,-52.51 -13.61,-30.53 -28.08,-60.67 -42.24,-91 -7.15,-15.3 -2.16,-35.58 11.35,-44.44 0.61,1 1.28,2 1.8,3.12 q 28.14,58.15 56.25,116.32 c 5.7,11.79 11.45,23.56 17.07,35.39 7.39,15.56 9.32,32 8,49 -0.41,5.39 -0.66,10.79 -1,16.19 z"
       class="cls-2" />
  </g>
  <path
     style="fill:#ee3324"
     id="path2549"
     d="M 979.69144,839.23 Q 1050.0114,733.89 1120.5414,628.71 c 8.23,-12.27 15.26,-24.95 18.23,-39.63 3.94,-19.5 2.75,-38 -3.94,-55.23 -22.08,120.72 -161.46996,307.27 -161.46996,307.27 2.91,1.24 4.49,0.88 6.33,-1.89 z"
     class="cls-4" />
  <g
     transform="translate(-480.14856,-433.64)"
     id="g2557">
    <path
       style="fill:#ee3324"
       id="path2551"
       d="m 1576.45,732.24 c -1.57,-6.43 -3.21,-12.74 -2.4,-19.48 1.34,-11.13 9.39,-23 18.87,-27.38 -6.67,19.94 -12.21,41.74 -15,53.13 -0.46,-2.09 -0.92,-4.18 -1.47,-6.27 z"
       class="cls-4" />
    <path
       style="fill:#ee3324"
       id="path2553"
       d="m 1541.63,743.26 c -4.74,14.1 -9,31.69 -11.71,43.56 -6.58,-15.19 -1.53,-34.82 11.71,-43.56 z"
       class="cls-4" />
    <path
       style="fill:#ee3324"
       id="path2555"
       d="m 1500,809.4 c 0.4,-0.47 0.87,-0.88 1.57,-1.58 l 0.86,1.08 c -2.5,15.06 -3.7,33.38 -4.26,45.55 -9.5,-14.24 -9.02,-32.35 1.83,-45.05 z"
       class="cls-4" />
  </g>
  <g
     transform="translate(-480.14856,-433.64)"
     id="g2591">
    <path
       style="fill:#e8634d"
       id="path2559"
       d="m 601.1,1414.87 h 24.81 a 18.88,18.88 0 0 1 13.77,5.33 17.58,17.58 0 0 1 5.45,13.07 18.48,18.48 0 0 1 -1.06,6.28 16.56,16.56 0 0 1 -2.48,4.73 22.92,22.92 0 0 1 -2.91,3.09 11.28,11.28 0 0 1 -2.54,1.76 l -1,0.54 12,21.21 H 634.3 l -10.78,-19.61 h -10.39 v 19.61 h -12 z m 29.86,13 a 7.38,7.38 0 0 0 -5.44,-2.15 h -12.39 v 14.8 h 12.39 a 7.49,7.49 0 0 0 5.44,-2.09 6.82,6.82 0 0 0 2.17,-5.13 7.3,7.3 0 0 0 -2.13,-5.46 z"
       class="cls-5" />
    <path
       style="fill:#e8634d"
       id="path2561"
       d="m 703.93,1460.1 v 10.78 h -42 v -56 h 41.21 v 10.82 h -29.21 v 11.21 h 22.77 v 10.78 h -22.77 v 12.42 z"
       class="cls-5" />
    <path
       style="fill:#e8634d"
       id="path2563"
       d="m 713.48,1414.87 h 12.81 l 14.37,41.6 14.42,-41.6 h 12.81 l -20.82,56 h -12.81 z"
       class="cls-5" />
    <path
       style="fill:#e8634d"
       id="path2565"
       d="m 822.67,1460.1 v 10.78 h -42 v -56 h 41.21 v 10.82 h -29.21 v 11.21 h 22.78 v 10.78 h -22.78 v 12.42 z"
       class="cls-5" />
    <path
       style="fill:#e8634d"
       id="path2567"
       d="m 837.8,1470.88 v -56 h 12 v 45.23 h 26 v 10.78 z"
       class="cls-5" />
    <path
       style="fill:#e8634d"
       id="path2569"
       d="m 910.57,1450 a 27.74,27.74 0 0 0 -6.91,-2.88 c -2.72,-0.76 -5.43,-1.67 -8.12,-2.71 a 16.07,16.07 0 0 1 -6.9,-5.16 14.18,14.18 0 0 1 -2.85,-9.1 14.94,14.94 0 0 1 5.45,-11.6 q 5.44,-4.8 14.16,-4.8 a 27,27 0 0 1 6.64,0.8 24.08,24.08 0 0 1 5.25,1.87 30.5,30.5 0 0 1 3.6,2.19 11.75,11.75 0 0 1 2.2,1.93 l 0.71,0.78 -7.19,7.62 c -0.31,-0.36 -0.75,-0.81 -1.31,-1.35 a 16.5,16.5 0 0 0 -3.53,-2.13 12.5,12.5 0 0 0 -5.55,-1.32 8.31,8.31 0 0 0 -5.53,1.75 5.4,5.4 0 0 0 -2.09,4.26 5.09,5.09 0 0 0 2.83,4.51 28.77,28.77 0 0 0 6.88,2.87 q 4,1.18 8.12,2.74 a 16.07,16.07 0 0 1 6.94,5.16 14.16,14.16 0 0 1 2.85,9.1 16,16 0 0 1 -5.65,12.69 q -5.64,4.92 -15.56,4.92 a 30,30 0 0 1 -7.56,-0.95 25.56,25.56 0 0 1 -6,-2.29 36.15,36.15 0 0 1 -4.16,-2.69 16.29,16.29 0 0 1 -2.57,-2.31 l -0.9,-1 7.22,-7.19 c 0.37,0.41 0.88,1 1.55,1.62 a 18.91,18.91 0 0 0 4.41,2.67 16.18,16.18 0 0 0 7.19,1.68 10.23,10.23 0 0 0 6.77,-2 6.41,6.41 0 0 0 2.45,-5.15 5.14,5.14 0 0 0 -2.84,-4.53 z"
       class="cls-5" />
    <path
       style="fill:#e8634d"
       id="path2571"
       d="m 953,1418.5 -10.82,17.19 -6.79,-4 8.39,-18.39 z"
       class="cls-5" />
    <path
       style="fill:#e8634d"
       id="path2573"
       d="m 961.37,1470.88 a 29.91,29.91 0 0 1 2,-11.17 22.68,22.68 0 0 1 5,-7.91 67.43,67.43 0 0 1 6.45,-5.55 q 3.47,-2.62 6.42,-4.49 a 20.11,20.11 0 0 0 5,-4.33 8.33,8.33 0 0 0 2,-5.34 6.83,6.83 0 0 0 -2.09,-5.29 9.46,9.46 0 0 0 -11.17,-0.21 9,9 0 0 0 -2.98,3.41 l -0.62,1.68 -10,-4.76 a 13.9,13.9 0 0 1 0.51,-1.45 19.94,19.94 0 0 1 1.87,-3.18 19.65,19.65 0 0 1 3.52,-4 19.24,19.24 0 0 1 5.64,-3.15 21.89,21.89 0 0 1 8,-1.42 q 8.55,0 14.08,5.19 a 16.85,16.85 0 0 1 5.53,12.77 16.38,16.38 0 0 1 -1.84,7.74 19.23,19.23 0 0 1 -4.8,5.92 74.84,74.84 0 0 1 -6.08,4.49 c -2.07,1.37 -4.18,2.92 -6.35,4.65 a 22.46,22.46 0 0 0 -4.92,5.21 h 24 v 11.21 z"
       class="cls-5" />
    <path
       style="fill:#e8634d"
       id="path2575"
       d="m 1054.31,1464.05 q -7,8 -17,8 -10,0 -17,-8 -7,-8.05 -7,-21.17 0,-13.12 7,-21.16 7,-8 17,-8 10,0 17,8 7,8 7,21.16 0,13.16 -7,21.17 z m -25.43,-7.58 q 3.55,4.8 8.44,4.8 4.89,0 8.44,-4.8 c 2.37,-3.2 3.55,-7.74 3.55,-13.59 0,-5.85 -1.18,-10.4 -3.55,-13.6 -2.37,-3.2 -5.18,-4.8 -8.44,-4.8 -3.26,0 -6.07,1.6 -8.44,4.8 -2.37,3.2 -3.55,7.74 -3.55,13.6 0,5.86 1.18,10.39 3.55,13.59 z"
       class="cls-5" />
    <path
       style="fill:#e8634d"
       id="path2577"
       d="m 1180.36,1399.36 -0.13,8 h -77.59 v -8 z m -7.12,106.79 -11.87,6.2 v -58.61 a 105.29,105.29 0 0 1 -12,10.88 q -8.12,6.53 -15.56,6.53 a 17.57,17.57 0 0 1 -7.42,-2.05 32,32 0 0 1 -8.3,-6 32.69,32.69 0 0 1 -6.63,-9.2 28.3,28.3 0 0 1 -2.76,-11.67 c 0,-3 1.18,-6.69 3.55,-11.1 a 40.89,40.89 0 0 1 9,-11.41 q 5.45,-4.77 10.38,-4.78 a 24.6,24.6 0 0 1 8,2 49.42,49.42 0 0 1 11.07,6.2 47.19,47.19 0 0 1 10.61,10.64 v -14.18 h 11.87 z m -14.83,-54.71 q 0,-5.61 -6,-11.67 a 60.84,60.84 0 0 0 -13.58,-10.35 q -7.6,-4.29 -10.45,-4.28 a 14.69,14.69 0 0 0 -9.49,3.36 q -4.15,3.36 -4.15,6.85 0,3 2.9,9.1 a 31,31 0 0 0 8.87,10.84 22.66,22.66 0 0 0 14.66,4.78 23.39,23.39 0 0 0 8.77,-1.55 19.72,19.72 0 0 0 6.16,-3.65 c 1.55,-1.41 2.31,-2.55 2.31,-3.43 z"
       class="cls-5" />
    <path
       style="fill:#e8634d"
       id="path2579"
       d="m 1243.71,1407.34 h -43.91 v 10.5 a 0.64,0.64 0 0 1 0.53,0.26 0.57,0.57 0 0 0 0.46,0.27 c -0.09,0 0.82,-0.26 2.71,-0.77 1.89,-0.51 4.06,-1 6.52,-1.42 a 39.94,39.94 0 0 1 7.19,-0.67 q 7.9,0 12.46,2.18 a 13.62,13.62 0 0 1 6.55,6.13 23.83,23.83 0 0 1 2.44,8.86 q 0.43,4.92 0.43,13.48 v 25.38 c -3.4,-1.32 -5.83,-2.28 -7.26,-2.9 l -3.29,-1.38 c 0,-1.41 -0.28,-2.31 -0.85,-2.71 q -2.18,1.26 -4.87,2.74 a 30.44,30.44 0 0 1 -7,2.6 41.58,41.58 0 0 1 -10.33,1.12 30.93,30.93 0 0 1 -11.19,-2.1 21.84,21.84 0 0 1 -8.85,-6 13.18,13.18 0 0 1 -3.45,-8.91 q 0,-4.62 4.28,-9.66 a 32.88,32.88 0 0 1 11.45,-8.37 36.73,36.73 0 0 1 15.67,-3.33 28.1,28.1 0 0 1 8.78,1.36 21.76,21.76 0 0 1 6.35,3 v -6 a 16.56,16.56 0 0 0 -5.26,-4.77 q -2.51,-1.25 -7.83,-1.24 a 63.3,63.3 0 0 0 -10.89,1.14 52.9,52.9 0 0 0 -8.56,2.75 c -3,1.24 -5.6,2.21 -7.67,2.91 v -4.85 l 1.32,-1.11 a 14,14 0 0 0 1.16,-1 l 0.36,-0.39 v -17 h -13.51 v -8 h 66 z m -15.17,41.7 q 0,-3 -6.81,-5.06 -6.81,-2.06 -9.64,-2 a 28.27,28.27 0 0 0 -13,3 29,29 0 0 0 -9.21,7 q -3.36,4 -3.36,6.57 a 5.58,5.58 0 0 0 4,3.75 22,22 0 0 0 6.85,1 41.57,41.57 0 0 0 12.4,-1.77 44.94,44.94 0 0 0 9.94,-4.34 32.83,32.83 0 0 0 6.55,-4.93 c 1.52,-1.57 2.28,-2.65 2.28,-3.26 z"
       class="cls-5" />
    <path
       style="fill:#e8634d"
       id="path2581"
       d="m 1265.72,1392.44 c -0.17,0.18 -0.68,0.26 -1.51,0.26 a 5.74,5.74 0 0 1 -1.85,-0.26 q -4.74,-9.3 -6.07,-11.34 a 6.55,6.55 0 0 0 -3.65,-2.57 c -1.48,-0.39 -2.86,-0.78 -4.16,-1.15 a 5.32,5.32 0 0 1 -3.13,-2.61 18.4,18.4 0 0 1 -1,-3.06 25.75,25.75 0 0 0 -2.83,-6.23 V 1364 h 2.57 a 54.55,54.55 0 0 1 10.94,4.32 q 3.24,2 4.12,3.76 a 55.58,55.58 0 0 1 2.54,7.45 61.22,61.22 0 0 0 3.89,10.12 c 0,0.39 0.08,0.75 0.1,1.08 0.02,0.33 0.04,0.88 0.04,1.71 z m 3.89,14.9 h -26.83 v -8 h 26.83 z m -7.51,65.06 -11.08,-6.12 v -50.83 h 11.08 z"
       class="cls-5" />
    <path
       style="fill:#e8634d"
       id="path2583"
       d="m 1339.29,1407.34 h -70.87 v -8 h 70.87 z m -14.18,28.87 q 0,-15.82 -15,-15.82 a 18.23,18.23 0 0 0 -8.93,2.57 27.68,27.68 0 0 0 -8.18,7.12 37.62,37.62 0 0 0 -5.8,10.81 38.83,38.83 0 0 0 -2.2,13 v 19.18 l -10.81,-5.67 v -49.57 h 11.33 v 7.84 c 0.93,-0.7 2.45,-1.89 4.58,-3.56 a 39.66,39.66 0 0 1 7.78,-4.61 23.94,23.94 0 0 1 19.94,0.13 27.63,27.63 0 0 1 8.57,6.26 30,30 0 0 1 5.94,9.46 31.08,31.08 0 0 1 2.17,11.64 37,37 0 0 1 -3,14.27 50.22,50.22 0 0 1 -9.63,14.47 l -12.72,-8 a 41.27,41.27 0 0 1 4.42,-4.61 54.44,54.44 0 0 0 5.67,-6.17 28.84,28.84 0 0 0 4.15,-7.77 31.81,31.81 0 0 0 1.72,-10.97 z"
       class="cls-5" />
    <path
       style="fill:#e8634d"
       id="path2585"
       d="m 1402.63,1407.34 h -43.9 v 10.5 a 0.64,0.64 0 0 1 0.53,0.26 0.56,0.56 0 0 0 0.46,0.27 c -0.09,0 0.81,-0.26 2.7,-0.77 1.89,-0.51 4.07,-1 6.53,-1.42 a 39.83,39.83 0 0 1 7.18,-0.67 q 7.92,0 12.46,2.18 a 13.6,13.6 0 0 1 6.56,6.13 24,24 0 0 1 2.44,8.86 q 0.44,4.92 0.43,13.48 v 25.38 c -3.41,-1.32 -5.83,-2.28 -7.26,-2.9 l -3.29,-1.38 c 0,-1.41 -0.28,-2.31 -0.85,-2.71 -1.45,0.84 -3.08,1.75 -4.87,2.74 a 30.44,30.44 0 0 1 -7,2.6 41.58,41.58 0 0 1 -10.33,1.12 30.93,30.93 0 0 1 -11.19,-2.1 21.88,21.88 0 0 1 -8.86,-6 13.18,13.18 0 0 1 -3.39,-8.86 q 0,-4.62 4.28,-9.66 a 32.83,32.83 0 0 1 11.46,-8.37 36.72,36.72 0 0 1 15.66,-3.33 28.16,28.16 0 0 1 8.79,1.36 21.88,21.88 0 0 1 6.35,3 V 1431 a 16.67,16.67 0 0 0 -5.26,-4.77 q -2.51,-1.25 -7.83,-1.24 a 63.55,63.55 0 0 0 -10.9,1.14 53.13,53.13 0 0 0 -8.55,2.75 q -4.58,1.86 -7.67,2.91 v -4.85 l 1.32,-1.11 a 12,12 0 0 0 1.15,-1 c 0.2,-0.21 0.32,-0.35 0.37,-0.39 v -17 h -13.52 v -8 h 66.05 z m -15.16,41.7 q 0,-3 -6.81,-5.06 -6.81,-2.06 -9.64,-2 a 28.27,28.27 0 0 0 -13,3 29.13,29.13 0 0 0 -9.22,7 q -3.35,4 -3.35,6.57 a 5.58,5.58 0 0 0 4,3.75 22,22 0 0 0 6.85,1 41.57,41.57 0 0 0 12.4,-1.77 44.94,44.94 0 0 0 9.94,-4.34 33.13,33.13 0 0 0 6.55,-4.93 c 1.51,-1.57 2.28,-2.65 2.28,-3.26 z"
       class="cls-5" />
    <path
       style="fill:#e8634d"
       id="path2587"
       d="m 1466.77,1407.34 h -43.9 v 10.5 a 0.64,0.64 0 0 1 0.53,0.26 0.56,0.56 0 0 0 0.46,0.27 c -0.09,0 0.81,-0.26 2.7,-0.77 1.89,-0.51 4.07,-1 6.53,-1.42 a 39.83,39.83 0 0 1 7.18,-0.67 q 7.92,0 12.46,2.18 a 13.64,13.64 0 0 1 6.56,6.13 24,24 0 0 1 2.44,8.86 q 0.42,4.92 0.43,13.48 v 25.38 c -3.41,-1.32 -5.83,-2.28 -7.27,-2.9 l -3.28,-1.38 c 0,-1.41 -0.28,-2.31 -0.85,-2.71 q -2.17,1.26 -4.88,2.74 a 30.34,30.34 0 0 1 -7,2.6 41.58,41.58 0 0 1 -10.33,1.12 30.93,30.93 0 0 1 -11.19,-2.1 21.81,21.81 0 0 1 -8.86,-6 13.18,13.18 0 0 1 -3.39,-8.86 q 0,-4.62 4.28,-9.66 a 32.88,32.88 0 0 1 11.45,-8.37 36.8,36.8 0 0 1 15.67,-3.33 28.16,28.16 0 0 1 8.79,1.36 22,22 0 0 1 6.35,3 V 1431 a 16.67,16.67 0 0 0 -5.26,-4.77 q -2.5,-1.25 -7.84,-1.24 a 63.53,63.53 0 0 0 -10.89,1.14 53.13,53.13 0 0 0 -8.55,2.75 q -4.58,1.86 -7.67,2.91 v -4.85 l 1.32,-1.11 a 13.42,13.42 0 0 0 1.15,-1 c 0.2,-0.21 0.32,-0.35 0.37,-0.39 v -17 h -13.52 v -8 h 66 z m -15.16,41.7 q 0,-3 -6.81,-5.06 c -4.54,-1.35 -7.76,-2 -9.64,-2 a 28.24,28.24 0 0 0 -13,3 29.13,29.13 0 0 0 -9.22,7 c -2.24,2.68 -3.35,4.87 -3.35,6.57 a 5.58,5.58 0 0 0 4,3.75 22,22 0 0 0 6.84,1 41.63,41.63 0 0 0 12.41,-1.77 44.94,44.94 0 0 0 9.94,-4.34 33.13,33.13 0 0 0 6.55,-4.93 c 1.51,-1.57 2.28,-2.65 2.28,-3.26 z"
       class="cls-5" />
    <path
       style="fill:#e8634d"
       id="path2589"
       d="m 1524.85,1407.34 h -33.36 v 53 a 7.41,7.41 0 0 0 1.62,4.48 4.46,4.46 0 0 0 3.52,2.17 q 9.82,0 9.82,-20.28 l 13.25,7.58 a 33.58,33.58 0 0 1 -8.8,12 q -5.57,4.77 -14.66,4.77 a 16,16 0 0 1 -8.34,-2.4 18,18 0 0 1 -6,-6 13.79,13.79 0 0 1 -2.24,-7.28 v -48 h -13.78 v -8 h 13.78 v -22.15 l 11.86,8.24 v 13.91 h 33.36 z"
       class="cls-5" />
  </g>
  <g
     transform="translate(-480.14856,-433.64)"
     id="g2615">
    <path
       style="fill:#e8634d"
       id="path2593"
       d="m 664.81,1568 -6.41,15.59 H 652 l 23.21,-56 h 5.58 l 23.21,56 h -6.37 L 691.21,1568 Z m 13.2,-32 -10.82,26.41 h 21.6 z"
       class="cls-5" />
    <path
       style="fill:#e8634d"
       id="path2595"
       d="m 788.53,1536.81 -14.8,46.8 h -6 l -18.39,-56 h 6.4 l 14.81,46.8 15.19,-46.8 h 5.63 l 15.19,46.8 14.81,-46.8 h 6.36 l -18.39,56 h -6 z"
       class="cls-5" />
    <path
       style="fill:#e8634d"
       id="path2597"
       d="m 895.36,1576 a 28.95,28.95 0 1 1 8.4,-20.39 27.77,27.77 0 0 1 -8.4,20.39 z m -36.6,-3.86 a 23,23 0 0 0 32.42,0 24,24 0 0 0 0,-33.05 23,23 0 0 0 -32.42,0 24,24 0 0 0 0,33.05 z"
       class="cls-5" />
    <path
       style="fill:#e8634d"
       id="path2599"
       d="m 952.22,1527.59 a 16.92,16.92 0 0 1 12.33,4.81 16.09,16.09 0 0 1 4.9,12 17.14,17.14 0 0 1 -1.21,6.56 14,14 0 0 1 -2.89,4.65 23.47,23.47 0 0 1 -3.4,2.85 13.11,13.11 0 0 1 -2.89,1.57 l -1.21,0.39 13.2,23.2 h -6.79 l -12.43,-22.38 h -16 v 22.38 h -6 v -56 z m -16.36,5.63 v 22.38 h 16.36 a 11.2,11.2 0 1 0 0,-22.38 z"
       class="cls-5" />
    <path
       style="fill:#e8634d"
       id="path2601"
       d="m 996.71,1583.61 v -56 h 6 V 1578 h 28.79 v 5.59 z"
       class="cls-5" />
    <path
       style="fill:#e8634d"
       id="path2603"
       d="m 1072,1527.59 a 28.56,28.56 0 0 1 20.7,8.25 27.27,27.27 0 0 1 0,39.53 28.59,28.59 0 0 1 -20.7,8.24 h -17.62 v -56 z m -11.6,5.63 V 1578 h 11.6 a 22.71,22.71 0 0 0 16.52,-6.52 22.22,22.22 0 0 0 0,-31.76 22.71,22.71 0 0 0 -16.52,-6.52 z"
       class="cls-5" />
    <path
       style="fill:#e8634d"
       id="path2605"
       d="m 1161.71,1568 -6.4,15.59 h -6.41 l 23.2,-56 h 5.59 l 23.2,56 h -6.36 l -6.41,-15.59 z m 13.21,-32 -10.82,26.41 h 21.6 z"
       class="cls-5" />
    <path
       style="fill:#e8634d"
       id="path2607"
       d="m 1245.37,1527.59 a 17.6,17.6 0 0 1 12.89,5 18,18 0 0 1 0,25.14 17.64,17.64 0 0 1 -12.88,5.06 h -15.19 v 20.78 h -6 v -56 z m -15.19,5.63 v 24 h 15.19 a 12,12 0 1 0 0,-24 z"
       class="cls-5" />
    <path
       style="fill:#e8634d"
       id="path2609"
       d="m 1290.64,1568 -6.41,15.59 h -6.41 l 23.21,-56 h 5.58 l 23.21,56 h -6.37 L 1317,1568 Z m 13.2,-32 -10.84,26.4 h 21.6 z"
       class="cls-5" />
    <path
       style="fill:#e8634d"
       id="path2611"
       d="m 1375.47,1527.59 a 16.88,16.88 0 0 1 12.32,4.81 16.1,16.1 0 0 1 4.91,12 17.34,17.34 0 0 1 -1.21,6.56 14,14 0 0 1 -2.9,4.65 24,24 0 0 1 -3.39,2.85 13.11,13.11 0 0 1 -2.89,1.57 l -1.22,0.39 13.21,23.2 h -6.8 l -12.42,-22.38 h -16 v 22.38 h -6 v -56 z m -16.37,5.63 v 22.38 h 16.37 a 11.06,11.06 0 0 0 8.16,-3 12.44,12.44 0 0 0 0,-16.32 11.06,11.06 0 0 0 -8.16,-3 z"
       class="cls-5" />
    <path
       style="fill:#e8634d"
       id="path2613"
       d="m 1452.76,1527.59 v 5.63 h -17.61 v 50.39 h -6 v -50.39 h -17.62 v -5.63 z"
       class="cls-5" />
  </g>
  <g
     transform="translate(-480.14856,-433.64)"
     id="g2791">
    <path
       style="fill:#008e6a"
       id="path2617"
       d="m 1100.91,608.42 c 3.55,4.24 7.84,9.33 12.07,14.46 21.87,26.52 12.85,59.17 -3.29,78.46 -11.62,13.9 -40,14.76 -53.42,2.52 -8.59,-7.85 -10.07,-18 -8.69,-28.87 2.4,-19 11.67,-34.85 23.69,-49.23 8.75,-10.47 17.92,-20.59 26.88,-30.89 a 119.47,119.47 0 0 1 11.77,-12.41 c -2.92,8.34 -5.79,16.67 -9.01,25.96 z m -17.4,19.48 c -6.57,9 -12.38,16.5 -17.56,24.38 a 39.17,39.17 0 0 0 -4.56,11.5 9.94,9.94 0 0 0 3.87,11.08 c 10.18,7.65 33.09,9.08 44,2.76 6.57,-3.8 7.66,-6.68 3.14,-12.75 -8.98,-12.11 -18.55,-23.82 -28.89,-36.97 z"
       class="cls-6" />
    <path
       style="fill:#008e6a"
       id="path2619"
       d="m 1323.1,1071.71 c -7.34,-14.4 -15.09,-29.6 -22.87,-44.78 -0.17,-0.35 -0.61,-0.57 -1.63,-1.46 -5.17,19.06 -8.72,37.72 -7.27,57.6 -8.71,-5.89 -17.49,-11.77 -26.17,-17.78 a 4.14,4.14 0 0 1 -1.34,-2.79 c -1.71,-18.64 0.09,-36.78 8.26,-53.74 4,-8.25 8.38,-9 15.86,-3.13 12.35,9.62 22.11,21.49 30.57,34.34 1.45,2.2 1.87,5.19 2.19,7.86 0.99,8.29 1.69,16.61 2.4,23.88 z"
       class="cls-6" />
    <path
       style="fill:#008e6a"
       id="path2621"
       d="m 1227.94,1216.41 c 0.55,-5.43 1.11,-10.86 1.63,-16.05 -5.7,-5.08 -12.3,-9.91 -17.57,-15.9 -9.42,-10.7 -10,-33.27 -2,-45.06 6.22,-9.18 22.75,-13.57 32.68,-8.59 a 17.48,17.48 0 0 1 9.16,11.22 47.07,47.07 0 0 1 -1.57,30.58 c -3.23,8.48 -7.2,16.7 -11.17,24.88 -3.15,6.48 -6.78,12.71 -10.2,19.06 z m 8.65,-33 2.09,-0.42 c 2.46,-7.49 5.46,-14.86 7.22,-22.52 1.37,-6 -1.48,-9.15 -7.4,-10.12 a 37.6,37.6 0 0 0 -6.78,-0.48 c -7,0.15 -13.52,1.87 -18.81,6.76 -2.44,2.27 -3.8,5 -0.63,7.62 8.01,6.54 16.19,12.83 24.31,19.2 z"
       class="cls-6" />
    <path
       style="fill:#008e6a"
       id="path2623"
       d="m 976.07,762.94 10.39,-14.21 c -2.27,-7.22 -5.36,-14.8 -7,-22.68 -3,-14.89 9.37,-36.43 23.48,-42.15 13.52,-5.47 33.36,4.07 34.91,17.24 a 28.91,28.91 0 0 1 -2,13.05 50,50 0 0 1 -18.77,23.4 c -10.26,7.07 -20.93,13.52 -31.43,20.23 -2.92,1.87 -5.87,3.69 -8.81,5.54 z m 25.81,-25.17 2.07,0.57 c 6.07,-5.09 12.4,-9.92 18.12,-15.37 3.08,-2.94 5,-7.42 1.54,-11.2 -7.53,-8.12 -17,-12.19 -28.2,-10.58 -3.65,0.52 -6.31,2.5 -4.65,6.93 q 5.54,14.88 11.12,29.65 z"
       class="cls-6" />
    <path
       style="fill:#008e6a"
       id="path2625"
       d="m 1278.18,1153.14 c 1.39,-3 3,-6 4.13,-9.09 5.86,-15.46 11.32,-31 17.57,-46.37 a 44,44 0 0 1 9,-13.11 c 5.61,-5.91 11.4,-5.32 16.41,0.82 7.07,8.68 7.33,12.75 1.26,22.34 -1.62,2.57 -3.45,5 -5.36,7.81 -2.63,-4.67 -4.6,-9.1 -7.43,-13 -3.88,-5.27 -7.31,-5 -10.93,0.41 a 50.4,50.4 0 0 0 -4.29,8.72 c -6.86,16.73 -13.58,33.51 -20.51,50.21 -1.09,2.65 -3,5 -4.57,7.48 a 16.37,16.37 0 0 1 -2.19,2 c -4.76,-18.71 -3.58,-38.34 -13.62,-55.64 l -4.11,3.72 c -6,-5.72 -12.08,-11.43 -18.07,-17.2 a 2.13,2.13 0 0 1 -0.66,-1.81 c 2.6,-5.75 5.15,-11.54 8.25,-17 0.37,-0.65 4.28,-0.17 6.09,0.67 9.59,4.44 15.4,12.27 19.52,21.33 6.08,13.41 7.83,27.73 8,42.31 0,1.66 0,3.32 0,5 z"
       class="cls-6" />
    <path
       style="fill:#008e6a"
       id="path2627"
       d="m 988.53,1194 c 10.1,-13.24 22,-25.28 29.43,-41.84 -5,1.93 -9,3.3 -12.91,5 -13.12,5.69 -22.44,-1.77 -21.84,-14.15 0.6,-12.38 1.26,-24.86 2.35,-37.24 a 18.13,18.13 0 0 1 3.67,-8.56 c 2.74,-3.73 7.36,-3 9,1.27 2.47,6.45 5.25,13 2.1,20.45 -5.19,-2.4 -6.76,0.71 -7.75,4.68 -0.52,2.1 -1.05,4.19 -1.54,6.29 -1.13,4.81 0.82,7.24 5.57,5.81 4.53,-1.36 8.82,-3.77 13,-6.17 9.3,-5.4 11.88,-4.65 16.09,5.35 6.09,14.46 1.88,32.2 -10.31,42 -6.6,5.3 -13.55,10.18 -20.42,15.14 a 45.25,45.25 0 0 1 -5.55,3 z"
       class="cls-6" />
    <path
       style="fill:#008e6a"
       id="path2629"
       d="m 1086.52,1227 -42.14,-12.61 -1.11,1.5 c 9.1,14.19 19.45,27.34 33.26,38.31 -8.71,2.15 -17.17,4.33 -25.68,6.24 a 5.69,5.69 0 0 1 -4,-1.24 98,98 0 0 1 -28.9,-33.9 23.37,23.37 0 0 1 -1.78,-4.65 c -1.51,-5.77 0,-8.88 6,-9.72 7.54,-1.07 15.23,-1 22.84,-1.75 17.13,-1.58 29.89,6.86 41.58,17.86 -0.02,0.07 -0.08,0.25 -0.07,-0.04 z"
       class="cls-6" />
    <path
       style="fill:#008e6a"
       id="path2631"
       d="m 785.89,966.62 c -4.24,-3.53 -7.76,-6.58 -11.39,-9.47 -3.63,-2.89 -7.16,-5.41 -11.37,-8.58 l 11.68,-19 -20.38,-16.22 13.29,-21.13 a 68.08,68.08 0 0 1 21.34,16 c 0.87,1 0.72,3.78 0,5.13 -2.84,5.06 -6.13,9.87 -9.25,14.75 5.47,4.37 10.84,8.75 16.31,13 3.25,2.52 3.55,5.12 1.2,8.48 -3.85,5.42 -7.41,10.98 -11.43,17.04 z"
       class="cls-6" />
    <path
       style="fill:#008e6a"
       id="path2633"
       d="m 811.73,826.23 -21.31,-31.44 -1.65,0.69 c 0,3.69 0.06,7.38 0,11.07 -0.19,9.64 -6,14.11 -15.13,11 -8.32,-2.82 -16.45,-6.26 -24.46,-9.88 a 22.51,22.51 0 0 1 -7.73,-6.08 c -2.67,-3.22 -0.88,-6.64 3.34,-6.72 a 47.58,47.58 0 0 1 9.89,0.82 c 2.68,0.51 5.84,1.14 3.8,5.47 -0.36,0.75 0.88,2.76 1.89,3.56 2.44,1.94 5.17,3.52 8.69,5.83 0.91,-2.83 2.05,-5 2.2,-7.27 a 27.47,27.47 0 0 0 -1,-7.37 c -2,-9.61 0.08,-12.15 9.91,-11.83 11.22,0.37 22.21,8.12 25.91,18.78 2.62,7.53 4.69,15.25 7,22.89 z"
       class="cls-6" />
    <path
       style="fill:#008e6a"
       id="path2635"
       d="m 1267.72,918.58 3.54,31.36 1.43,0.32 a 120.37,120.37 0 0 0 16.67,-33.4 c 4,5.34 7.8,10.3 11.4,15.42 a 5,5 0 0 1 0.45,3.72 c -3,11 -7.75,21.26 -15.55,29.78 -4.84,5.28 -8.53,5.2 -11.61,-1.12 -4.12,-8.47 -8.42,-17.22 -10.18,-26.32 -1.21,-6.24 1.78,-13.29 2.89,-20 z"
       class="cls-6" />
    <path
       style="fill:#008e6a"
       id="path2637"
       d="m 993.73,849.2 35.26,-25 -0.65,-2.59 c -3.58,-0.28 -7.16,-0.52 -10.73,-0.85 -11,-1 -15.6,-9.63 -11.3,-22.31 3.54,-10.42 7.82,-20.46 12,-30.49 a 26.05,26.05 0 0 1 5.46,-8.61 c 1.91,-1.82 5,-3.2 7.11,-2.59 1.17,0.33 2.38,5.33 2.11,8 -0.57,5.67 -2.09,11.18 -3.24,16.82 -5.89,-2.35 -13.91,3.81 -14.08,10.07 -0.05,1.71 2.76,4.82 4.45,5 4,0.55 8.19,0 12.25,-0.54 6.68,-0.92 9,1.48 9,10 0.12,18.38 -8.9,33.7 -22.85,38.33 -6.41,2.12 -12.93,3.74 -19.43,5.45 a 30.45,30.45 0 0 1 -5.23,0.47 z"
       class="cls-6" />
    <path
       style="fill:#008e6a"
       id="path2639"
       d="m 823.77,770.49 q 1.65,14.87 3.29,29.73 l 2.21,0.51 15.63,-30.85 c 3,4 6.63,8.7 10,13.56 a 5.12,5.12 0 0 1 0.4,3.77 c -2.73,10.27 -7.2,19.72 -14.3,27.7 -4.84,5.44 -8.28,5.3 -11.49,-1.14 -3.84,-7.69 -7.91,-15.68 -9.43,-24 -1.14,-6.15 1.63,-13 2.65,-19.57 z"
       class="cls-6" />
    <path
       style="fill:#008e6a"
       id="path2641"
       d="m 1301.37,970.68 c 3.38,-8.85 8.21,-18.58 10.73,-28.87 3.82,-15.6 1.07,-31 -5.2,-45.76 -3.86,-9 -3.79,-9.54 3.06,-17.67 19.84,34.49 12.65,73.02 -8.59,92.3 z"
       class="cls-6" />
    <path
       style="fill:#008e6a"
       id="path2643"
       d="m 842.87,899.7 c 0.85,-2.81 1.63,-4.79 2,-6.83 0.87,-4.48 -0.84,-6.12 -5.11,-4.67 -3,1 -5.71,2.65 -8.6,3.92 -7.3,3.21 -14.6,6.41 -21.94,9.51 a 45.55,45.55 0 0 1 -6,1.44 c 2.66,-3.75 4.62,-6.37 6.43,-9.09 2.67,-4 5.39,-8 7.79,-12.18 1.16,-2 2,-3.67 0.1,-6.77 -1.9,-3.1 -1.3,-8.24 -0.31,-12.12 0.46,-1.81 4.38,-2.8 6.8,-4 3,-1.52 4.95,0.14 4.76,2.8 a 87.5,87.5 0 0 1 -2.64,17.4 c -1,3.53 -3.69,6.66 -5.92,9.75 -2.11,2.91 -4.62,5.54 -6.52,9 1.89,-0.82 3.83,-1.57 5.69,-2.48 6.88,-3.33 13.7,-6.79 20.62,-10 a 36.81,36.81 0 0 1 6.64,-2.07 c 3.61,-0.91 7.17,-1.1 8.88,3.1 1.46,3.59 -1.46,9.9 -5.07,11.22 -2.22,0.77 -4.62,1.26 -7.6,2.07 z"
       class="cls-6" />
    <path
       style="fill:#008e6a"
       id="path2645"
       d="m 857,908.05 c -1.68,2 -3.41,4 -5,6 -15,18.9 -20.45,40.34 -15.08,63.73 1.85,8 -1.49,11.94 -6.34,16.51 -11.19,-33.53 0.64,-69 26.42,-86.24 z"
       class="cls-6" />
    <path
       style="fill:#008e6a"
       id="path2647"
       d="m 1211.25,749.1 -19.62,-16.6 13,-19 c 6.09,5.29 11.89,10.13 17.38,15.31 0.8,0.76 0.7,3.51 0,4.68 -3.32,5.19 -6.96,10.14 -10.76,15.61 z"
       class="cls-6" />
    <path
       style="fill:#008e6a"
       id="path2649"
       d="m 926.54,701.14 c 23.61,14.73 37.58,50.61 28.57,70.92 -1.18,-8 -1.78,-17.23 -4,-26 -3.2,-12.57 -10.78,-22.71 -20.65,-31.06 -5.88,-5 -6.26,-6.13 -3.92,-13.86 z"
       class="cls-6" />
    <path
       style="fill:#008e6a"
       id="path2651"
       d="m 743.77,850.33 c -5.32,1.64 -9,0.26 -11.22,-3.73 -2.71,-4.82 -2.26,-10.37 1.13,-13.9 a 18,18 0 0 1 21.53,-3.33 c 3.47,2 6.64,4.6 11,1.34 -6.4,8.05 -12.21,16.45 -22.44,19.62 z m 1.31,-18.26 a 4.76,4.76 0 0 0 -3.24,-0.75 c -2.39,0.62 -2.87,6.58 -1.05,10.95 1.2,2.89 2.88,5.26 6.3,3.18 2.76,-1.69 5.15,-4 8.53,-6.63 -4.17,-2.7 -7.3,-4.82 -10.54,-6.75 z"
       class="cls-6" />
    <path
       style="fill:#008e6a"
       id="path2653"
       d="m 1052.22,740.4 c -1.1,-5.89 -2.93,-11.76 -3.13,-17.68 -0.23,-7 5.83,-10.22 11.65,-6.19 3.52,2.44 7.39,6.07 8.54,9.94 4.38,14.67 7.72,29.65 11.44,44.52 l -2.27,0.59 c -1.17,-4.37 -2.38,-8.73 -3.51,-13.11 -1.69,-6.59 -2.73,-13.42 -5.19,-19.69 -1.54,-3.91 -4.89,-7.33 -8.07,-10.26 -1.25,-1.15 -4.65,-1.09 -6.36,-0.21 -1.16,0.6 -1.37,3.58 -1.48,5.52 a 38.66,38.66 0 0 0 0.62,6.21 z"
       class="cls-6" />
    <path
       style="fill:#008e6a"
       id="path2655"
       d="m 1299,878.52 -6.2,-8 -13.24,31.33 -1.46,-0.34 c -0.86,-5.33 -1.57,-10.69 -2.66,-16 -0.58,-2.82 -0.93,-5.37 -4.91,-6.8 -6.22,-2.22 -7.39,-7 -4.76,-11.76 1.41,-2.53 3.25,-3.31 5,-1.14 2.92,3.68 5.86,7.55 7.72,11.81 2.09,4.83 3,10.16 4.42,15.28 l -1.44,0.61 q 1.13,-2.75 2.27,-5.49 c 2.64,-6.43 5.06,-13 8,-19.24 1.31,-2.78 3.45,-5.82 7.42,-3.5 3.18,1.86 4.12,6.73 2.15,10.06 -0.66,1.07 -1.49,2.06 -2.31,3.18 z"
       class="cls-6" />
    <path
       style="fill:#008e6a"
       id="path2657"
       d="m 982.11,810.54 -15.88,-12.62 9.62,-15.23 c 4.88,3.8 9.41,7 13.5,10.75 1,0.86 1.15,3.73 0.47,5 -2.16,4.08 -4.91,7.82 -7.71,12.1 z"
       class="cls-6" />
    <path
       style="fill:#008e6a"
       id="path2659"
       d="m 1185.3,629.36 -15.85,-12.47 9.62,-15.37 c 5,4 9.67,7.6 14.12,11.43 a 3.55,3.55 0 0 1 0.5,3.38 c -2.6,4.38 -5.49,8.6 -8.39,13.03 z"
       class="cls-6" />
    <path
       style="fill:#008e6a"
       id="path2661"
       d="m 1136.49,626.69 -15.49,-12.18 9.3,-14.53 a 27.82,27.82 0 0 1 3.17,1.59 c 16.09,11.24 15.21,9.09 3.02,25.12 z"
       class="cls-6" />
    <path
       style="fill:#008e6a"
       id="path2663"
       d="m 1145.79,635.18 c 3.13,-4.9 6.2,-9.72 9.36,-14.69 1.35,0.75 2.25,1.14 3,1.7 16.24,11.48 15.24,9 3.1,25.26 z"
       class="cls-6" />
    <path
       style="fill:#008e6a"
       id="path2665"
       d="m 786.32,1045.31 c 4.95,3.93 9.33,7.19 13.4,10.79 0.93,0.82 1.61,3.22 1.08,4.15 -2.5,4.44 -5.46,8.63 -8.31,13 l -15.87,-12.59 c 3,-4.75 6.05,-9.58 9.7,-15.35 z"
       class="cls-6" />
    <path
       style="fill:#008e6a"
       id="path2667"
       d="m 1232.82,740.48 c 4.7,4.16 8.92,7.6 12.7,11.48 0.92,0.94 1.1,3.74 0.37,4.94 -2.39,3.93 -5.34,7.51 -8.43,11.69 l -15.14,-13.39 z"
       class="cls-6" />
    <path
       style="fill:#008e6a"
       id="path2669"
       d="m 1184.16,764.79 9.64,-15.22 c 4.86,3.83 9.45,7.23 13.73,11 a 4.49,4.49 0 0 1 0.59,4.22 c -2.42,4.26 -5.27,8.28 -8.1,12.6 z"
       class="cls-6" />
    <path
       style="fill:#008e6a"
       id="path2671"
       d="m 956.88,1248.84 -14.88,-13.67 10.69,-14.49 c 4.58,4.2 8.93,8 12.9,12.07 0.78,0.81 0.65,3.46 -0.08,4.59 -2.51,3.86 -5.51,7.4 -8.63,11.5 z"
       class="cls-6" />
    <path
       style="fill:#008e6a"
       id="path2673"
       d="m 813,1113.62 c -3,4.47 -5.48,9.39 -9.07,13.3 -4.63,5 -10,3.27 -11.87,-3.39 -1.95,-7.17 0.79,-13.53 4.3,-19.4 5.62,-9.37 11.74,-18.43 17.64,-27.62 l 1.14,0.47 a 56,56 0 0 1 -2.73,6.18 c -3.39,5.7 -7.38,11.09 -10.31,17 a 33.36,33.36 0 0 0 -3.27,12.77 c -0.11,2.19 2.6,4.51 4,6.77 1.89,-1.27 3.87,-2.42 5.62,-3.86 a 20.16,20.16 0 0 0 2.7,-3.28 z"
       class="cls-6" />
    <path
       style="fill:#008e6a"
       id="path2675"
       d="m 980,1245.68 c 2.65,-4.36 5.26,-8.68 8.38,-13.81 4.47,3.42 8.57,6.41 12.45,9.65 0.76,0.63 1.3,2.63 0.87,3.38 -2.27,4 -4.88,7.74 -7.47,11.71 z"
       class="cls-6" />
    <path
       style="fill:#008e6a"
       id="path2677"
       d="m 1083.46,1136.82 c 5.3,1.51 9.84,2.49 14.07,4.21 1.37,0.55 2.85,3.11 2.75,4.64 -0.27,3.9 -1.39,7.74 -2.29,12.16 l -17.33,-5 c 0.88,-5.03 1.75,-9.99 2.8,-16.01 z"
       class="cls-6" />
    <path
       style="fill:#008e6a"
       id="path2679"
       d="m 953.46,845.07 c -0.94,-6.3 -1.77,-11.83 -2.65,-17.7 l 15.2,-4.11 c 1,5.46 2,10.54 2.62,15.68 0.1,0.87 -1.55,2.5 -2.69,2.86 -3.94,1.26 -7.94,2.12 -12.48,3.27 z"
       class="cls-6" />
    <path
       style="fill:#008e6a"
       id="path2681"
       d="m 955,811.34 c -12.74,1.81 -14.82,-0.37 -12.59,-13.28 3.82,0.5 7.7,0.85 11.5,1.63 0.76,0.16 1.65,1.95 1.66,3 0.06,2.92 -0.34,5.85 -0.57,8.65 z"
       class="cls-6" />
    <path
       style="fill:#008e6a"
       id="path2683"
       d="m 1063.23,1194.82 c -0.94,-6.3 -1.77,-11.83 -2.65,-17.7 l 15.21,-4.11 c 1,5.46 2,10.54 2.61,15.68 0.1,0.87 -1.55,2.5 -2.69,2.86 -3.92,1.27 -7.97,2.13 -12.48,3.27 z"
       class="cls-6" />
    <path
       style="fill:#008e6a"
       id="path2685"
       d="m 1111.92,1194.26 c -12.74,1.82 -14.82,-0.37 -12.59,-13.28 3.82,0.5 7.7,0.86 11.5,1.64 0.76,0.16 1.65,1.94 1.67,3 0.03,2.91 -0.36,5.84 -0.58,8.64 z"
       class="cls-6" />
    <path
       style="fill:#008e6a"
       id="path2687"
       d="m 1141.84,1052.74 -14.84,-13.67 10.69,-14.49 c 4.58,4.2 8.93,7.94 12.9,12.07 0.78,0.81 0.66,3.46 -0.08,4.59 -2.51,3.85 -5.51,7.4 -8.67,11.5 z"
       class="cls-6" />
    <path
       style="fill:#008e6a"
       id="path2689"
       d="m 1166,1018.92 -14.87,-13.67 10.7,-14.49 c 4.57,4.2 8.93,7.94 12.89,12.06 0.79,0.82 0.66,3.47 -0.08,4.6 -2.55,3.85 -5.53,7.4 -8.64,11.5 z"
       class="cls-6" />
    <path
       style="fill:#008e6a"
       id="path2691"
       d="m 1383.76,869.26 c -1.71,2 -3.47,3.92 -5.12,5.94 -5.85,7.19 -15.31,19.43 -16.6,34.56 -0.71,8.37 1.69,10.93 0.25,23.43 -0.62,5.38 -1.46,8.39 -3,11.25 a 27.2,27.2 0 0 1 -12.75,11.5 54.22,54.22 0 0 0 9.75,-20.75 c 2.85,-12.84 -0.88,-20.07 -0.11,-29.3 0.74,-9.06 5.97,-21.89 27.58,-36.63 z"
       class="cls-6" />
    <path
       style="fill:#008e6a"
       id="path2693"
       d="m 1010.87,963.46 c -12.74,1.82 -14.82,-0.37 -12.59,-13.28 3.82,0.5 7.7,0.86 11.5,1.64 0.76,0.15 1.65,1.94 1.67,3 0.03,2.91 -0.37,5.84 -0.58,8.64 z"
       class="cls-6" />
    <path
       style="fill:#008e6a"
       id="path2695"
       d="m 1020.42,986.85 c -12.74,1.81 -14.82,-0.37 -12.59,-13.28 3.82,0.5 7.7,0.85 11.5,1.64 0.76,0.15 1.65,1.94 1.66,3 0.01,2.91 -0.36,5.84 -0.57,8.64 z"
       class="cls-6" />
    <path
       style="fill:#008e6a"
       id="path2697"
       d="m 1129.78,1013.08 -14.87,-13.67 10.7,-14.49 c 4.58,4.2 8.93,7.94 12.9,12.06 0.78,0.82 0.65,3.47 -0.09,4.6 -2.52,3.85 -5.5,7.42 -8.64,11.5 z"
       class="cls-6" />
    <path
       style="fill:#008e6a"
       id="path2699"
       d="m 795.23,1001 c -4.24,-3.54 -7.76,-6.58 -11.4,-9.47 -3.64,-2.89 -7.15,-5.41 -11.36,-8.59 l 11.67,-19 -20.37,-16.22 13.29,-21.13 a 67.78,67.78 0 0 1 21.34,16 c 0.87,1 0.72,3.78 0,5.13 -2.84,5.06 -6.14,9.86 -9.25,14.75 5.47,4.37 10.83,8.75 16.31,13 3.25,2.52 3.55,5.12 1.19,8.48 -3.84,5.41 -7.4,11.05 -11.42,17.05 z"
       class="cls-6" />
    <path
       style="fill:#008e6a"
       id="path2701"
       d="m 1127.78,731.11 c 3.78,2.57 7.44,5.35 11.39,7.61 1.51,0.86 4.43,1.37 5.39,0.53 1.21,-1 1.79,-3.81 1.4,-5.56 -2.14,-9.57 -5.09,-19 -7,-28.58 -3.1,-16 3.79,-26.28 19.74,-30.06 a 58.08,58.08 0 0 1 11.58,-1.14 c 3.76,-0.11 7.52,0.24 11.28,0.38 12.19,0.44 16.87,-2.43 20.73,-14.1 2.56,-7.75 4.07,-15.84 6.22,-23.74 a 88.92,88.92 0 0 1 3.84,-11.41 c 1.18,-2.77 3.35,-4.46 6.8,-3.57 2.08,0.54 3.18,1.41 3.3,3.78 1,19.73 2,39.46 -0.74,59.15 -2.16,15.66 -6.31,19.47 -22.11,20.28 -1.6,0.08 -3.22,0.11 -4.82,0.22 -14,0.94 -21.45,6.38 -24.94,19.89 -2.9,11.27 -4.32,22.91 -6.77,34.31 a 111.22,111.22 0 0 1 -5.32,18 c -1.76,4.41 -4,4.38 -7.08,0.67 -3.26,-3.91 -6.22,-8.08 -9.57,-11.91 -11.34,-13 -25.18,-8.08 -32.87,0.62 -2.81,3.18 -4.08,7.71 -6.25,11.51 -0.72,1.26 -2,2.9 -3.17,3 -1.17,0.1 -3,-1.39 -3.38,-2.55 -4.89,-16.08 -3.81,-31.44 6.8,-45.13 5.73,-7.39 13.18,-8.62 21.56,-4.31 1.32,0.68 2.57,1.47 3.86,2.21 z"
       class="cls-6" />
    <path
       style="fill:#008e6a"
       id="path2703"
       d="m 1126.08,1212.43 c 0,-1 0,-2 0,-3 0.4,-12.73 7.14,-19.72 20,-20 6,-0.14 12,0.88 17.94,0.84 1.92,0 4.62,-1.24 5.5,-2.77 0.66,-1.14 -0.55,-4.08 -1.78,-5.45 -4.12,-4.57 -8.69,-8.73 -13,-13.19 -3.67,-3.85 -7.33,-7.75 -10.68,-11.88 -10.92,-13.47 -6.8,-27 4.15,-37.15 3.5,-3.23 7.81,-5.62 11.9,-8.17 2.67,-1.67 5.6,-2.93 8.4,-4.39 12.38,-6.43 15.23,-11.84 12.16,-25.43 -2.15,-9.55 -5.32,-18.86 -7.75,-28.36 a 37,37 0 0 1 -1.36,-11.28 c 0.11,-1.73 2.39,-4.2 4.15,-4.7 1.56,-0.44 4.59,0.83 5.55,2.28 11.74,17.78 23.19,35.76 31.12,55.67 a 56.06,56.06 0 0 1 1.92,5.65 c 2.89,10.22 0.9,15.86 -7.82,22 -3.27,2.28 -6.66,4.39 -10,6.55 -10.86,7 -14.94,17.18 -11.56,29.3 3.83,13.74 9.19,27 13.55,40.64 a 90.08,90.08 0 0 1 3.75,16.92 c 0.55,4.77 -1.56,6.06 -6.1,4.43 -4.85,-1.73 -9.56,-3.84 -14.36,-5.69 -23.19,-8.94 -35.66,14.18 -32,29.93 0.19,0.81 0.7,1.69 0.52,2.4 -0.39,1.62 -0.72,3.68 -1.85,4.55 -0.75,0.58 -3.28,-0.13 -4.27,-1 -11.1,-10.56 -18.11,-23.01 -18.08,-38.7 z"
       class="cls-6" />
    <path
       style="fill:#008e6a"
       id="path2705"
       d="m 921.4,1045.31 c -3.69,58.46 -7.36,116.52 -11.08,175.37 l -23.75,-2.51 c 3.3,-57.78 6.59,-115.24 9.88,-172.86 z"
       class="cls-6" />
    <path
       style="fill:#008e6a"
       id="path2707"
       d="m 845.65,1149.34 c -16.26,-4.36 -17.88,-3.37 -18.77,10.41 -4.71,-1.54 -8,-7.25 -8,-13.8 -0.12,-11.69 9.58,-6.31 16.22,-8.69 -2.64,-2.77 -4.65,-5 -6.77,-7.1 -8.06,-8 -7.07,-14.52 3.1,-20 7.56,-4 8,-5 5.75,-13.42 -0.67,-2.56 -1.63,-5.07 -2.06,-7.68 a 8,8 0 0 1 1.23,-4.85 c 6.15,7.51 11.87,15 13.59,24.48 0.34,1.92 -2.09,5.06 -4.07,6.57 -7.1,5.42 -8,7.5 -5.26,16 1.24,3.78 2.84,7.45 4,11.25 a 48.23,48.23 0 0 1 1.04,6.83 z"
       class="cls-6" />
    <path
       style="fill:#008e6a"
       id="path2709"
       d="m 931.75,1234.76 h -4.44 c 0.68,-13.81 1.3,-27.3 2,-40.78 q 2.38,-44.7 4.86,-89.39 c 1,-17.92 2,-35.82 2.86,-53.74 0.19,-4 2,-3.8 5,-3.28 -3.44,62.43 -6.84,124.49 -10.28,187.19 z"
       class="cls-6" />
    <path
       style="fill:#008e6a"
       id="path2711"
       d="m 950.31,1092.49 c 5.22,0 9.6,5 9.5,10.83 -0.1,5.83 -4.64,10.6 -9.89,10.52 -5.25,-0.08 -9.64,-5.09 -9.5,-10.88 0.14,-5.79 4.51,-10.52 9.89,-10.47 z"
       class="cls-6" />
    <path
       style="fill:#008e6a"
       id="path2713"
       d="m 967.36,1149.47 c -0.05,5.9 -4.42,10.61 -9.72,10.47 -5.3,-0.14 -9.63,-5.1 -9.54,-10.83 0.09,-6 4.28,-10.34 9.88,-10.28 5.6,0.06 9.44,4.46 9.38,10.64 z"
       class="cls-6" />
    <path
       style="fill:#008e6a"
       id="path2715"
       d="m 1037.41,968.91 c -12.74,1.81 -14.82,-0.37 -12.58,-13.28 3.81,0.5 7.7,0.85 11.49,1.63 0.76,0.16 1.66,2 1.67,3 0.01,2.92 -0.36,5.85 -0.58,8.65 z"
       class="cls-6" />
    <path
       style="fill:#008e6a"
       id="path2717"
       d="m 776.75,1076.77 c 5,3.93 9.32,7.2 13.4,10.79 0.92,0.82 1.6,3.23 1.08,4.16 -2.51,4.44 -5.46,8.62 -8.31,13 l -15.87,-12.59 z"
       class="cls-6" />
    <path
       style="fill:#008e6a"
       id="path2719"
       d="m 756.75,1035.13 c 5,3.93 9.32,7.19 13.4,10.79 0.92,0.82 1.6,3.23 1.08,4.16 -2.51,4.44 -5.46,8.62 -8.31,13 l -15.87,-12.6 z"
       class="cls-6" />
    <path
       style="fill:#008e6a"
       id="path2721"
       d="m 1235.3,1063.93 c -0.59,4.11 -3.38,6.76 -8,7.1 -4.23,0.3 -8.37,-4.07 -7.95,-8.27 0.47,-4.63 3.19,-7.45 7.91,-7.68 4.31,-0.21 8.21,4.02 8.04,8.85 z"
       class="cls-6" />
    <path
       style="fill:#008e6a"
       id="path2723"
       d="m 954.83,1056.33 c 9.53,4.55 18.81,9.8 28.69,13.37 4.79,1.73 11.33,1.9 16,0 11.38,-4.51 22.12,-10.62 33.11,-16.09 -12.55,8.79 -25,17.69 -37.77,26.21 a 7.54,7.54 0 0 1 -6.8,-0.06 c -11.24,-7.55 -22.19,-15.56 -33.23,-23.43 z"
       class="cls-6" />
    <path
       style="fill:#008e6a"
       id="path2725"
       d="m 1235.36,797.91 c 3.18,-5 5.87,-10.38 9.63,-14.87 9,-10.77 18.56,-21.12 29,-32.82 l -40.15,-43.4 c 3.25,1.65 7,2.72 9.65,5.06 12.18,10.71 24,21.77 36.81,33.42 l 38.27,-35 1.84,1.68 -33.41,38.5 37.42,42.34 -1.32,1.45 -43.1,-38.92 z"
       class="cls-6" />
    <path
       style="fill:#008e6a"
       id="path2727"
       d="m 1212.07,1039.53 c -0.58,4.11 -3.37,6.76 -8,7.1 -4.23,0.31 -8.37,-4.06 -7.95,-8.26 0.47,-4.64 3.19,-7.45 7.91,-7.69 4.32,-0.21 8.22,4.02 8.04,8.85 z"
       class="cls-6" />
    <path
       style="fill:#008e6a"
       id="path2729"
       d="m 812.73,1047.35 c 10.3,2.32 20.51,5.37 30.94,6.67 5.06,0.62 11.47,-0.67 15.61,-3.51 10.08,-6.92 19.2,-15.26 28.71,-23 -10.29,11.35 -20.48,22.8 -31,33.94 a 7.53,7.53 0 0 1 -6.65,1.44 c -12.64,-4.89 -25.1,-10.32 -37.61,-15.54 z"
       class="cls-6" />
    <path
       style="fill:#008e6a"
       id="path2731"
       d="m 1301.37,851.73 c 9.53,4.56 18.81,9.8 28.69,13.38 4.79,1.73 11.33,1.9 16,0 11.37,-4.52 22.11,-10.62 33.11,-16.09 -12.56,8.79 -25,17.69 -37.77,26.21 a 7.57,7.57 0 0 1 -6.8,-0.06 c -11.23,-7.55 -22.19,-15.56 -33.23,-23.44 z"
       class="cls-6" />
    <path
       style="fill:#008e6a"
       id="path2733"
       d="m 1043.4,1151.67 c -0.2,-3.73 -0.8,-7.5 -0.52,-11.19 0.68,-8.87 1.78,-17.7 2.82,-27.54 l -36.63,-7.56 c 2.28,-0.35 4.61,-1.18 6.83,-1 10.21,1 20.39,2.36 31.24,3.66 2.35,-11.07 4.59,-21.57 6.83,-32.08 l 1.56,0.19 c -1,10.49 -2,21 -3,32.06 l 34.83,8 c 0,0.42 -0.1,0.83 -0.14,1.24 l -36.51,-4.17 c -2.48,13.05 -4.89,25.72 -7.31,38.39 z"
       class="cls-6" />
    <path
       style="fill:#008e6a"
       id="path2735"
       d="m 1191.81,1019.8 14.27,-17.61 -0.76,-0.93 c -1.91,0.62 -3.82,1.26 -5.73,1.87 -5.88,1.86 -9.7,-0.74 -9.53,-6.85 0.13,-5 0.72,-10 1.27,-15 a 11.83,11.83 0 0 1 1.43,-4.68 5.54,5.54 0 0 1 3.24,-2.6 c 0.67,-0.11 2.11,1.7 2.41,2.85 a 62.91,62.91 0 0 1 1.07,7.6 c -3.46,0.25 -6.63,4.45 -5.69,7.06 0.26,0.71 2.23,1.41 3.14,1.16 a 32,32 0 0 0 6.3,-2.76 c 3.32,-1.76 4.92,-1.25 6.34,2.24 a 17,17 0 0 1 -5.62,20.51 c -3,2.2 -6.13,4.22 -9.23,6.26 a 20.24,20.24 0 0 1 -2.65,1.28 z"
       class="cls-6" />
    <path
       style="fill:#008e6a"
       id="path2737"
       d="m 868.31,1207.58 h -4.44 c 0.68,-10.93 1.3,-21.6 2,-32.27 q 2.4,-35.36 4.86,-70.71 c 1,-14.17 2,-28.34 2.86,-42.52 0.19,-3.17 2,-3 5,-2.59 -3.44,49.37 -6.84,98.51 -10.28,148.09 z"
       class="cls-6" />
    <path
       style="fill:#008e6a"
       id="path2739"
       d="m 957.86,1195 c -0.05,5.89 -4.43,10.6 -9.73,10.47 -5.3,-0.13 -9.63,-5.1 -9.54,-10.84 0.09,-6 4.29,-10.33 9.89,-10.28 5.6,0.05 9.43,4.49 9.38,10.65 z"
       class="cls-6" />
    <path
       style="fill:#008e6a"
       id="path2741"
       d="m 985.22,1026.18 a 62.46,62.46 0 0 1 -0.38,-8.18 c 0.5,-6.48 1.3,-12.94 2.06,-20.13 l -26.77,-5.53 c 1.66,-0.25 3.36,-0.85 5,-0.69 7.46,0.76 14.9,1.72 22.83,2.67 1.72,-8.08 3.35,-15.76 5,-23.44 l 1.14,0.14 c -0.71,7.67 -1.43,15.33 -2.19,23.43 l 25.46,5.86 c 0,0.3 -0.07,0.6 -0.11,0.9 l -26.68,-3.05 c -1.83,9.5 -3.58,18.76 -5.36,28.02 z"
       class="cls-6" />
    <path
       style="fill:#008e6a"
       id="path2743"
       d="m 1236.4,1035.65 -14.87,-13.65 10.7,-14.49 c 4.58,4.2 8.93,8 12.9,12.07 0.78,0.81 0.65,3.46 -0.09,4.59 -2.52,3.83 -5.5,7.38 -8.64,11.48 z"
       class="cls-6" />
    <path
       style="fill:#008e6a"
       id="path2745"
       d="m 840.91,714.87 c 3.78,2.57 7.44,5.35 11.39,7.61 1.51,0.86 4.43,1.37 5.39,0.53 1.21,-1 1.79,-3.81 1.4,-5.56 -2.14,-9.57 -5.09,-19 -7,-28.59 -3.1,-16 3.79,-26.27 19.74,-30.05 a 58.11,58.11 0 0 1 11.59,-1.14 c 3.75,-0.11 7.51,0.24 11.27,0.38 12.19,0.44 16.87,-2.43 20.73,-14.1 2.56,-7.75 4.07,-15.84 6.22,-23.74 a 91.17,91.17 0 0 1 3.84,-11.42 c 1.18,-2.77 3.35,-4.46 6.8,-3.56 2.08,0.54 3.18,1.41 3.3,3.78 1,19.73 2,39.46 -0.74,59.14 -2.16,15.67 -6.31,19.48 -22.1,20.29 -1.61,0.08 -3.22,0.11 -4.83,0.22 C 894,689.6 886.5,695 883,708.55 c -2.91,11.27 -4.33,22.91 -6.78,34.31 a 112.2,112.2 0 0 1 -5.31,18 c -1.77,4.41 -4,4.38 -7.09,0.67 -3.26,-3.91 -6.22,-8.08 -9.57,-11.91 -11.34,-13 -25.17,-8.08 -32.87,0.62 -2.81,3.18 -4.07,7.71 -6.25,11.51 -0.72,1.26 -2,2.9 -3.17,3 -1.17,0.1 -3,-1.39 -3.38,-2.55 -4.89,-16.08 -3.81,-31.44 6.8,-45.13 5.73,-7.39 13.18,-8.62 21.56,-4.31 1.32,0.68 2.57,1.47 3.86,2.21 z"
       class="cls-6" />
    <path
       style="fill:#008e6a"
       id="path2747"
       d="m 751.43,777.19 c 0,0 12.11,-44 38.11,-59 0,0 -5.5,42.22 8.5,49.61 -0.04,0 -37.22,-2.11 -46.61,9.39 z"
       class="cls-6" />
    <path
       style="fill:#008e6a"
       id="path2749"
       d="m 1321.63,1005.12 c 0,0 63.7,-16.24 69.11,-61.9 0,0 -4.53,67.49 -69.11,61.9 z"
       class="cls-6" />
    <path
       style="fill:#008e6a"
       id="path2751"
       d="m 1077.14,1067.17 c 0.3,0 0.77,0 1.25,0 0.15,0 0.29,-0.14 0.09,0 4.06,5.26 8,10.55 12.14,15.63 3,3.59 6.44,6.8 6.06,12 -0.37,0 -1.38,-0.21 -1.43,-0.06 -1.09,3.09 -3.88,2.64 -6.22,3 -6.13,1.06 -12.27,2.08 -18.4,3.1 a 8.46,8.46 0 0 1 -2.44,0.21 c -3.2,-0.43 -4,-2 -2.66,-5.31 1.73,-4.28 3.65,-8.48 5.35,-12.78 1.62,-4.1 3,-8.29 4.6,-12.41 0.4,-1.06 1.01,-2.07 1.66,-3.38 z"
       class="cls-6" />
    <path
       style="fill:#008e6a"
       id="path2753"
       d="M 1061.18,799.65 1072,804 c 2.34,-3.24 4.82,-6.53 7.15,-9.91 2.69,-3.89 6.5,-4 9.91,-2.08 3.11,1.76 6.55,4 4.27,9.07 -1.94,4.32 -2.93,9.06 -4.42,13.87 2.35,2 5,4 7.34,6.3 4.28,4 5.12,9.45 2.24,13.24 -2.61,3.45 -8.52,3.75 -13.37,0.58 -1.92,-1.25 -3.71,-2.71 -5.65,-4.14 l -10.44,12 c -13.57,-8.07 -14.48,-10.39 -8.74,-21.67 -2,-3.45 -8.08,-4.9 -5.92,-10.3 1.55,-3.79 4.25,-7.13 6.81,-11.31 z"
       class="cls-6" />
    <path
       style="fill:#008e6a"
       id="path2755"
       d="m 933.23,845.52 -4,1.16 2.61,4.82 c -13,-0.56 -25.21,1.52 -37.54,5.36 -6.24,1.94 -13.29,2.48 -19.91,2.87 -5.94,0.34 -7.34,-2.11 -4.52,-6.16 a 7,7 0 0 1 2,-2.18 c 14.38,-8.28 29.44,-15 47.44,-14.08 8.21,0.42 11.53,2.5 13.92,8.21 z"
       class="cls-6" />
    <path
       style="fill:#008e6a"
       id="path2757"
       d="m 1140,774.53 c 1.32,4 2.22,8.05 4.15,11.81 1.14,2.24 3.12,4.83 6.12,5.71 4.71,1.39 9.72,-0.44 13.21,-3.91 5,-5 5.44,-10.07 5,-15.16 -0.17,-2 -0.35,-4 -0.53,-6.05 l 2.28,-0.6 c 1.3,2.53 4,4.95 3.64,7.59 a 85.91,85.91 0 0 1 -5.09,19.62 c -1.29,3.31 -4.75,7.13 -11.09,7.58 -6.34,0.45 -11,-1.56 -12.88,-5.28 a 136.77,136.77 0 0 1 -5.83,-14.45 44,44 0 0 1 -1.37,-6.27 z"
       class="cls-6" />
    <path
       style="fill:#008e6a"
       id="path2759"
       d="m 1155.79,817.21 c 1.75,-2.3 2.17,-3.39 3,-3.79 q 28.14,-14.34 56.37,-28.49 a 1.52,1.52 0 0 1 1.32,0.15 c 0.36,4.5 0.69,8.46 1,12.43 0.55,7.28 0.44,14.67 1.74,21.8 2.22,12.22 5.42,24.26 7.93,36.43 0.38,1.82 -0.74,4 -1.16,5.94 -1.49,-1.21 -3.48,-2.12 -4.39,-3.67 -6.31,-10.68 -12.26,-21.59 -18.71,-32.18 -1,-1.68 -3.93,-2.86 -6.08,-3.07 -9,-0.88 -18.16,-1.06 -27.2,-2 -4.34,-0.48 -8.49,-2.14 -13.82,-3.55 z m 15.62,-2.37 0.12,1 c 1.91,0.15 3.83,0.32 5.74,0.45 7.62,0.48 15.24,1 22.86,1.38 3.58,0.16 5.77,1.75 7.39,4.88 2.91,5.67 6.1,11.2 9.29,17 -2,-15.66 -3.93,-30.93 -5.79,-45.59 z"
       class="cls-6" />
    <path
       style="fill:#008e6a"
       id="path2761"
       d="m 1279.91,778.18 32.86,30.41 -41.06,20.63 c 4.39,-4.92 8.54,-9.77 12.91,-14.41 2.42,-2.56 3.19,-5.16 2.15,-8.59 -2.22,-7.3 -4.22,-14.67 -6.3,-22 -0.52,-1.84 -1,-3.71 -1.48,-5.56 z"
       class="cls-6" />
    <path
       style="fill:#008e6a"
       id="path2763"
       d="m 953.61,646.4 32.86,30.41 -41.06,20.63 c 4.39,-4.92 8.54,-9.77 12.91,-14.41 2.42,-2.56 3.19,-5.16 2.15,-8.58 -2.22,-7.31 -4.22,-14.68 -6.3,-22 -0.52,-1.85 -1,-3.72 -1.48,-5.57 z"
       class="cls-6" />
    <path
       style="fill:#008e6a"
       id="path2765"
       d="m 1347.43,1067.45 -13.18,-42.79 45.87,2.75 c -6.27,2.06 -12.29,4.17 -18.4,6 -3.37,1 -5.35,2.87 -6.16,6.35 -1.74,7.43 -3.71,14.81 -5.6,22.21 -0.47,1.86 -1,3.71 -1.5,5.56 z"
       class="cls-6" />
    <path
       style="fill:#008e6a"
       id="path2767"
       d="m 945.28,624.92 c 1.75,-2.3 2.17,-3.39 3,-3.78 q 28.14,-14.34 56.37,-28.5 a 1.55,1.55 0 0 1 1.32,0.15 c 0.36,4.5 0.69,8.47 1,12.43 0.55,7.28 0.44,14.67 1.74,21.81 2.22,12.21 5.42,24.25 7.93,36.42 0.38,1.82 -0.74,3.95 -1.16,5.94 -1.49,-1.21 -3.48,-2.12 -4.39,-3.67 -6.31,-10.68 -12.26,-21.58 -18.71,-32.18 -1,-1.67 -3.93,-2.85 -6.08,-3.07 -9,-0.88 -18.16,-1.05 -27.2,-2 -4.34,-0.47 -8.49,-2.13 -13.82,-3.55 z m 15.62,-2.36 0.12,1 c 1.91,0.15 3.83,0.33 5.74,0.45 7.62,0.48 15.24,1.05 22.87,1.39 3.57,0.15 5.77,1.75 7.38,4.88 2.91,5.67 6.11,11.19 9.29,17 l -5.79,-45.58 q -19.84,10.43 -39.61,20.86 z"
       class="cls-6" />
    <path
       style="fill:#008e6a"
       id="path2769"
       d="m 1021.16,640.76 30,-16.85 -0.55,-1.74 c -3,-0.19 -6.09,-0.35 -9.13,-0.57 -9.34,-0.67 -13.27,-6.48 -9.61,-15 3,-7 6.65,-13.76 10.23,-20.5 a 17.59,17.59 0 0 1 4.65,-5.8 c 1.62,-1.22 4.21,-2.14 6,-1.74 1,0.22 2,3.59 1.8,5.38 -0.49,3.81 -1.78,7.52 -2.76,11.31 -5,-1.58 -11.83,2.56 -12,6.78 0,1.14 2.34,3.24 3.78,3.39 a 48.57,48.57 0 0 0 10.42,-0.36 c 5.68,-0.62 7.65,1 7.7,6.71 0.1,12.36 -7.57,22.67 -19.43,25.78 -5.46,1.43 -11,2.52 -16.53,3.66 a 31.39,31.39 0 0 1 -4.45,0.32 z"
       class="cls-6" />
    <path
       style="fill:#008e6a"
       id="path2771"
       d="m 1258.7,693.22 c 1.33,3.95 2.22,8 4.15,11.81 1.14,2.24 3.12,4.83 6.12,5.71 4.71,1.39 9.72,-0.44 13.21,-3.91 5,-5 5.45,-10.07 5,-15.16 -0.17,-2 -0.35,-4 -0.53,-6 l 2.28,-0.6 c 1.31,2.52 4,5 3.64,7.59 a 85.7,85.7 0 0 1 -5.09,19.61 c -1.29,3.32 -4.75,7.14 -11.09,7.59 -6.34,0.45 -11,-1.57 -12.88,-5.28 a 138.94,138.94 0 0 1 -5.83,-14.45 44.63,44.63 0 0 1 -1.37,-6.27 z"
       class="cls-6" />
    <path
       style="fill:#008e6a"
       id="path2773"
       d="m 1378.22,837.61 c -12.74,1.81 -14.81,-0.38 -12.58,-13.28 3.81,0.5 7.7,0.85 11.49,1.63 0.76,0.16 1.66,1.95 1.67,3 0.04,2.92 -0.36,5.85 -0.58,8.65 z"
       class="cls-6" />
    <path
       style="fill:#008e6a"
       id="path2775"
       d="m 1366.22,807.54 c -12.74,1.82 -14.82,-0.37 -12.58,-13.28 3.81,0.5 7.7,0.86 11.49,1.64 0.76,0.16 1.66,1.94 1.67,3 0.04,2.91 -0.36,5.84 -0.58,8.64 z"
       class="cls-6" />
    <path
       style="fill:#008e6a"
       id="path2777"
       d="m 1355.22,779.54 c -12.74,1.82 -14.82,-0.37 -12.58,-13.28 3.81,0.5 7.7,0.86 11.49,1.64 0.76,0.16 1.66,1.94 1.67,3 0.04,2.91 -0.36,5.84 -0.58,8.64 z"
       class="cls-6" />
    <path
       style="fill:#008e6a"
       id="path2779"
       d="m 866.84,959.94 c 0,3.9 -2.93,7 -6.44,6.93 -3.51,-0.07 -6.37,-3.37 -6.31,-7.17 0.06,-4 2.84,-6.84 6.54,-6.8 3.7,0.04 6.24,2.96 6.21,7.04 z"
       class="cls-6" />
    <path
       style="fill:#008e6a"
       id="path2781"
       d="m 881.13,975.57 c 0,3.9 -2.93,7 -6.44,6.93 -3.51,-0.07 -6.37,-3.38 -6.31,-7.17 0.06,-4 2.84,-6.84 6.54,-6.8 3.7,0.04 6.24,2.95 6.21,7.04 z"
       class="cls-6" />
    <path
       style="fill:#008e6a"
       id="path2783"
       d="m 866.17,987.28 c 0,3.9 -2.93,7 -6.44,6.93 -3.51,-0.07 -6.36,-3.37 -6.31,-7.17 0.05,-3.8 2.84,-6.84 6.54,-6.8 3.7,0.04 6.25,2.95 6.21,7.04 z"
       class="cls-6" />
    <path
       style="fill:#008e6a"
       id="path2785"
       d="m 1341.66,750.53 c -12.74,1.82 -14.82,-0.37 -12.58,-13.28 3.81,0.5 7.7,0.86 11.49,1.64 0.76,0.16 1.66,1.94 1.67,3 0.03,2.91 -0.36,5.84 -0.58,8.64 z"
       class="cls-6" />
    <path
       style="fill:#008e6a"
       id="path2787"
       d="m 1120,808.64 32.86,30.41 -41.06,20.63 c 4.39,-4.92 8.54,-9.77 12.91,-14.41 2.42,-2.56 3.19,-5.16 2.15,-8.58 -2.22,-7.31 -4.22,-14.68 -6.3,-22 -0.52,-1.85 -1,-3.71 -1.49,-5.57 z"
       class="cls-6" />
    <path
       style="fill:#008e6a"
       id="path2789"
       d="m 1127.06,1116.08 -13.18,-42.78 45.87,2.74 c -6.26,2.06 -12.29,4.17 -18.4,6 -3.37,1 -5.35,2.87 -6.16,6.35 -1.74,7.43 -3.71,14.81 -5.59,22.21 -0.48,1.86 -1,3.71 -1.51,5.56 z"
       class="cls-6" />
  </g>
  <g
     transform="translate(-480.14856,-433.64)"
     id="g2801">
    <path
       style="fill:#ea7165"
       id="path2793"
       d="m 934,1016.45 a 23.74,23.74 0 0 0 -2,1.42 c 0.58,-0.42 1.25,-0.87 2,-1.42 z"
       class="cls-1" />
    <path
       style="fill:#ea7165"
       id="path2795"
       d="m 1316.42,974.43 a 62.32,62.32 0 0 1 -29.17,10.42 c -19.6,1.82 -36.91,-5.47 -49.56,-13.37 a 59.94,59.94 0 0 1 13,-15.85 v -65 l 15.5,0.09 -10.27,-14.72 h -5.23 v -12.92 a 32.67,32.67 0 0 1 -4.41,12.91 h -70.73 v -12.91 a 32.67,32.67 0 0 1 -4.41,12.91 h -29.39 v -12.91 a 32.67,32.67 0 0 1 -4.41,12.91 H 985.77 V 863.08 A 32.67,32.67 0 0 1 981.36,876 H 855.78 l 0.15,0.21 c 0.4,1.88 5.24,16.2 59.79,14.48 h 0.94 v 24.01 a 51.63,51.63 0 0 0 -5.39,-8.16 24.75,24.75 0 0 0 -4.43,-4.21 16.2,16.2 0 0 0 -5.63,-2.21 29.87,29.87 0 0 0 -6.42,-0.8 q -10.47,0 -17,6.35 a 20.68,20.68 0 0 0 -6.5,15.37 q 0,8.88 9.43,17.21 9.43,8.33 19.43,8.32 a 18.8,18.8 0 0 0 8.08,-2.14 32.91,32.91 0 0 0 7.77,-5.15 v 8.19 c -7,47.89 -45.68,84.52 -92.34,84.52 a 88.63,88.63 0 0 1 -51.45,-16.53 c -30.21,-28.6 -87,-143 50.88,-164.88 C 980.53,825.58 925,743.17 925,743.17 c 23.15,47.22 -14.82,92.6 -104.64,95.37 -89.82,2.77 -90.13,93.27 -90.13,93.27 -2.5,57.27 43.74,105.3 99.44,105.47 44.16,0.14 82.77,-29.84 95.64,-71.15 l 0.07,0.08 c 1.41,-4.08 4.76,-15.53 5.77,-34.4 l 0.12,0.2 v -1 q 0,-3.16 8.64,-7.61 8.64,-4.45 12.27,-4.4 a 4.57,4.57 0 0 1 3.33,1.43 4.74,4.74 0 0 1 1.42,3.49 29.93,29.93 0 0 1 -3.48,14.9 l -8.09,9 q 0,2.37 3.49,4.44 a 13.4,13.4 0 0 0 6.82,2.06 18.57,18.57 0 0 0 7.92,-5.71 23,23 0 0 0 5.07,-15.06 28,28 0 0 0 -6.73,-18.71 q -6.75,-7.92 -15,-7.93 a 23.75,23.75 0 0 0 -8.17,2.06 22.75,22.75 0 0 0 -7.53,4.44 v -23.07 c 10.59,-0.16 24,-0.28 39.32,-0.36 v 86.53 c 3.92,-11.57 15.2,-20.88 15.2,-20.88 v -65.71 c 10.91,0 22.53,0 34.61,-0.06 a 18.85,18.85 0 0 1 2.51,5.1 16,16 0 0 1 0.79,4.36 q 0,2.53 -3.49,4.28 -1.91,1 -8.32,3.25 a 52.56,52.56 0 0 1 -8.8,2.62 q 3,15.22 11.66,24.89 8.66,9.67 19.06,9.67 a 28.44,28.44 0 0 0 9.77,-2 47,47 0 0 0 10.24,-5.31 v 9.7 0 c 0,2.93 -0.06,7.26 -0.31,12.52 -0.2,4.17 -0.3,6.25 -0.48,7.47 -1.24,8.74 -7.83,12.53 -12.6,19.34 0,0 -6.11,8.7 -6.61,22.79 a 35.82,35.82 0 0 0 2.87,14.83 c -6.65,3 -13.38,6.21 -20,9.36 -9.63,4.55 -20.67,10.33 -30.7,6 -7.14,-3.12 -7.76,-8.76 -22.09,-19 -8.81,-6.29 -13,-7.32 -16.49,-7.4 a 23.18,23.18 0 0 0 -13.3,4.13 19.66,19.66 0 0 1 8.23,-3 22.5,22.5 0 0 1 9.26,1.2 c 13.76,5 24.65,31.39 40.46,36.32 9.64,3 12.9,-4.86 44.7,-18.18 1.36,-0.57 2.68,-1.12 4,-1.64 10.24,16.25 30.37,29.44 50,29.05 3.28,-0.07 19.93,-0.41 25.92,-11.11 6.21,-11.08 -0.54,-30.46 -13,-38 -13,-7.85 -34.18,-1.78 -57.24,8 -0.11,-0.62 -0.21,-1.24 -0.3,-1.85 -0.71,-5.19 -2.42,-17.73 4.76,-26.84 5.48,-6.95 14.15,-9.38 16.36,-18.83 a 51.22,51.22 0 0 0 0.62,-7.1 c 0.18,-3.23 0.26,-6.2 0.29,-8.84 q 0,-1.83 0,-3.45 c 0,-1.36 0,-2.6 -0.07,-3.71 v -58.6 c 19.47,0 39.23,0.08 58.34,0.14 v 14.69 H 1088 a 3.76,3.76 0 0 0 -2.85,1.43 4.3,4.3 0 0 0 -1.27,2.85 q 0,4.6 6.5,13 c 4.33,5.6 7.51,8.4 9.51,8.4 q 4.92,0 4.92,-3.65 V 921 c 0,-2 1,-3 2.85,-3 h 18.71 v 33.14 a 9.68,9.68 0 0 0 0.14,1.59 v 23.75 c 3.92,-11.57 15.2,-20.88 15.2,-20.88 v -65.52 l 18.43,0.06 v 61 a 9.66,9.66 0 0 0 0.17,1.74 v 23.65 c 3.92,-11.57 15.2,-20.88 15.2,-20.88 v -65.44 l 59.78,0.28 v 11.84 h -20.85 q -10.44,0 -16.43,5.24 a 14.73,14.73 0 0 0 -5.37,11.41 q 0,9.67 7.45,22.2 1.27,2.13 2.72,4.29 a 99,99 0 0 0 11.34,15.45 c 26.18,29 78,44.43 106.39,23.93 8,-5.77 11.54,-12.52 17.37,-23.61 18.63,-35.47 6.17,-58.81 23.61,-80.56 -19.64,22.36 -7.25,45.54 -28.7,76.85 a 62.63,62.63 0 0 1 -16.4,16.9 z M 904,930.87 q -9.93,5.55 -13.09,5.55 a 5.2,5.2 0 0 1 -4.18,-2.38 10.16,10.16 0 0 1 -1.73,-6.34 14.89,14.89 0 0 1 4.41,-10.3 13.47,13.47 0 0 1 10.1,-4.76 18.81,18.81 0 0 1 8.91,2.62 24.24,24.24 0 0 1 8.28,7.53 Q 913,926 904,930.87 Z m 188.5,90.4 c 9.61,4.85 17.85,16.69 14.81,25 -3.04,8.31 -16.26,10.74 -25,9.87 -14.89,-1.47 -27.67,-13.86 -33.4,-28.27 31.38,-11.69 39.98,-8.45 43.63,-6.6 z m -38.7,-101.81 a 51.33,51.33 0 0 1 -13.16,8.08 q -8.4,3.81 -13,3.81 -5.39,0 -7.92,-2 a 6.41,6.41 0 0 1 -2.54,-5.33 q 0,-4.62 7,-6.36 7,-1.74 9.68,-3.34 2.68,-1.59 2.69,-4 0,-7.56 -7.15,-20.49 c 8,0 16.17,0 24.43,0 z m 157.27,25.68 q -4.75,-8.4 -4.76,-15.54 0,-6.81 2.7,-10 3.33,-4 10.78,-4 h 15.54 v 35.52 a 9.44,9.44 0 0 0 0.16,1.73 v 17.16 a 128.81,128.81 0 0 1 -18,-14.43 c -2.74,-4.25 -4.9,-7.77 -6.42,-10.44 z"
       class="cls-1" />
    <path
       style="fill:#ea7165"
       id="path2797"
       d="m 1387.56,863.2 c 1.24,-0.44 2.52,-0.87 3.86,-1.27 0.01,0 -1.42,0.38 -3.86,1.27 z"
       class="cls-1" />
    <path
       style="fill:#ea7165"
       id="path2799"
       d="m 1361.56,880.68 c 8.91,-10.14 20.18,-15.32 26,-17.48 -14.05,4.98 -21.67,12.08 -26,17.48 z"
       class="cls-1" />
  </g>
</svg>
