<?xml version="1.0" encoding="UTF-8" standalone="no"?>
<svg
   xmlns:dc="http://purl.org/dc/elements/1.1/"
   xmlns:cc="http://creativecommons.org/ns#"
   xmlns:rdf="http://www.w3.org/1999/02/22-rdf-syntax-ns#"
   xmlns:svg="http://www.w3.org/2000/svg"
   xmlns="http://www.w3.org/2000/svg"
   height="1150.9188"
   width="1161.1716"
   version="1.1"
   viewBox="0 0 1161.1716 1150.9188"
   data-name="Layer 1"
   id="Layer_1">
  <metadata
     id="metadata1461">
    <rdf:RDF>
      <cc:Work
         rdf:about="">
        <dc:format>image/svg+xml</dc:format>
        <dc:type
           rdf:resource="http://purl.org/dc/dcmitype/StillImage" />
        <dc:title>Revels2020_Logo expand 3</dc:title>
      </cc:Work>
    </rdf:RDF>
  </metadata>
  <defs
     id="defs1160">
    <style
       id="style1158">
      .cls-1 {
        fill: #fff;
      }

      .cls-2 {
        fill: #f3ad7d;
      }

      .cls-3 {
        fill: none;
        stroke: #f3ad7d;
        stroke-miterlimit: 10;
        stroke-width: 30px;
      }

      .cls-4 {
        fill: #e99b67;
      }

      .cls-5 {
        fill: #2fb7ea;
      }
    </style>
  </defs>
  <title
     id="title1162">Revels2020_Logo expand 3</title>
  <path
     style="fill:#ffffff"
     id="path1164"
     d="m 130.05582,430.88 c 2.95,-5.81 5.29,-10.74 6,-16 1.25,-8.91 2.49,-17.84 4.24,-26.83 1.67,-8.56 5.62,-17 10.75,-24.77 3.77,-5.67 8.84,-10.55 13.37,-15.74 10,-11.44 21.69,-19.79 33.07,-28.65 8.81,-6.86 17.79,-13.34 26.69,-20 a 5.57,5.57 0 0 1 2.94,-1.26 c -1.38,1.21 -2.77,2.42 -4.14,3.64 a 76.11,76.11 0 0 0 -20.31,29.16 c -5.58,14.06 -11,28.17 -16.74,42.2 a 112.27,112.27 0 0 1 -8.5,16.93 54.27,54.27 0 0 1 -19.14,18 60.87,60.87 0 0 1 -5.4,2.95 c -7.55,3.42 -13.16,9.62 -17.79,17.3 -0.77,1.27 -1.49,2.58 -2.3,3.83 a 13.51,13.51 0 0 0 -2.4,9.66 c 2.75,22.28 7.9,43 16.08,61.89 1.53,3.54 1.46,3.64 -3.25,9.25 -1.31,-3.12 -2.59,-6.12 -3.83,-9.14 -8.7,-21.19 -13.62,-44.61 -15.7,-69.74 A 21.2,21.2 0 0 0 99.975819,414.02 c -6.41,0.8 -12.41,0.75 -17.84,-1.57 -6.8,-2.9 -10.34,-9 -13.42,-15.82 q -6.92,-15.25 -13.78,-30.56 c -4.49,-10 -11.62,-16.48 -22.34,-18.27 -0.29,0 -0.49,-0.33 -0.53,-1 2.89,0.2 5.85,0.22 8.67,0.63 13.49,2 27.06,3.75 40.37,6.16 4.66,0.85 8.81,3.07 13,5.07 3.73,1.8 7.570001,3.63 10.600001,6.38 7.08,6.45 10.16,16.13 11.11,27.34 0.49,5.7 0.87,11.46 1.55,17.07 a 19.21,19.21 0 0 0 5.61,11.51 c 0.16,-2 0.35,-3.54 0.38,-5 0.4,-23.48 2.75,-47.38 8.72,-72.06 0.91,-3.79 1.6,-7.6 2.85,-11.37 2.76,-8.3 -1.57,-21.08 -8.42,-23.23 -11.45,-3.59 -16.23,-13.12 -16.52,-26.95 -0.2,-9.43 -0.58,-18.8 -0.92,-28.17 -0.41,-11.32 -1.89,-21.94 -8.84,-29.08 0.31,0.07 0.69,0 0.91,0.23 5.61,4.43 11.31,8.75 16.76,13.38 4.35,3.71 8.8,7.38 12.46,11.85 a 61.71,61.71 0 0 1 9.52,15.24 c 3.48,8.35 3.1,18.55 0.93,29.37 -1.4,7 -2.33,13.86 -3.33,20.75 a 9.21,9.21 0 0 0 0.67,4.76 c 1.36,-3.93 2.74,-7.86 4.07,-11.79 a 365.61,365.61 0 0 1 25.17,-57.91 c 6.18,-11.34 13.11,-22.38 19.64,-33.58 a 10.85,10.85 0 0 0 1.36,-3.85 c 0.87,-6.34 -0.89,-10.83 -4.61,-14.15 -4.19,-3.75 -5.69,-9.41 -3.85,-16.74 2.63,-10.5 5.59,-21 8.33,-31.5 1.93,-7.43 3.64,-14.83 2.27,-21.48 -0.33,-1.62 -0.9,-3.11 -1.36,-4.66 l 0.68,-0.55 q 4.27,7.57 8.54,15.15 a 68,68 0 0 1 7.45,19.93 c 1.8,8.75 -0.47,17.91 -4.49,27.39 -2.71,6.42 -5.94,12.74 -8.89,19.11 a 10.52,10.52 0 0 0 -1,4.47 c 1.71,-2.21 3.51,-4.36 5.12,-6.64 a 414.71,414.71 0 0 1 28.9,-36.69 c 11.16,-12.55 22.76,-24.62 35.4,-34.87 6.29,-5.09 10.11,-21 5.54,-25.59 -4.27,-4.26 -5.2,-10.79 -1.65,-18.87 3.74,-8.51 7.64,-17 11.57,-25.45 3.93,-8.45 6.78,-16.6 5.13,-24.38 -0.06,-0.29 0,-0.68 0.57,-1.34 1.8,5.27 3.63,10.52 5.4,15.82 2.27,6.84 4.28,13.77 4.44,21.89 0.16,8.12 -2.63,15.67 -7.69,23.21 -3.45,5.14 -7,10.28 -10.73,15.2 -2.78,3.63 -3.39,7.24 -4.38,11.61 a 28.52,28.52 0 0 0 2.74,-1.66 414.62,414.62 0 0 1 57.09,-37.92 34.41,34.41 0 0 0 17,-22.83 c 2.48,-11 8.26,-19.58 17.07,-27 7.5,-6.31 14.94,-12.86 22,-19.87 3.13,-3.11 5.3,-7.6 7.9,-11.47 a 6.34,6.34 0 0 1 1.48,-1.82 c -0.69,2 -1.33,4 -2.07,5.93 -5.14,13.64 -10.39,27.24 -17.73,40.4 -5.32,9.52 -12.29,16.46 -21.1,21 -5.32,2.72 -10.8,5 -15.41,10.11 -0.33,0.37 -0.62,0.76 -1.46,1.78 2.25,-1 3.88,-1.67 5.49,-2.41 a 289.46,289.46 0 0 1 57.91,-19.66 33.17,33.17 0 0 0 14.77,-7.55 50,50 0 0 0 6.19,-7.16 c 3.31,-4.3 6.21,-9 9.81,-13 a 31.76,31.76 0 0 1 9.09,-6.88 c 5.86,-2.87 11.82,-5 17.74,-7.29 7.84,-3 15.49,-6.57 22.14,-14 0.5,-0.55 0.95,-1.15 1.45,-1.71 a 4.4,4.4 0 0 1 1.73,-1.32 3.78,3.78 0 0 1 -0.37,0.9 c -10.07,12.83 -19.39,26.33 -30.74,38 -7,7.18 -14.3,12.87 -22.69,14.06 -4.09,0.59 -8,0.5 -12.11,1 a 33.58,33.58 0 0 0 -5.58,1.73 l -0.08,0.79 c 1.64,-0.19 3.27,-0.3 4.92,-0.57 a 229.32,229.32 0 0 1 39.39,-2.44 42.9,42.9 0 0 0 25.36,-7.18 c 9.25,-6.09 17,-4.7 24.58,-2.55 4.75,1.35 9.63,2.44 14.5,3.51 5.11,1.13 10.64,0 16.48,-2.38 a 11.17,11.17 0 0 1 -1.3,1 c -13.69,7.77 -27.39,15.21 -41.45,20 -7.6,2.57 -13.76,1.58 -19.19,-1.75 a 19.89,19.89 0 0 1 -3.88,-2.72 c -4.09,-4.08 -9.68,-5 -15.84,-4.88 -6.79,0.16 -13.55,0.19 -20.33,0.31 a 16.77,16.77 0 0 0 -2.17,0.33 l -0.35,1.08 c 2.26,0.35 4.43,1 6.81,1 3.31,-0.08 6.78,-0.77 10.16,-1.1 9.48,-0.94 16.36,2.81 21.74,9.22 8.48,10.11 14.3,22.63 20.41,34.88 a 1.9,1.9 0 0 1 0,1.4 c -1,-1.2 -2,-2.39 -3,-3.61 -4.07,-5.11 -10.35,-6.56 -16.47,-8.24 -5.58,-1.54 -11.22,-3 -16.88,-4.36 -7.65,-1.88 -12,-7.45 -14.3,-15.43 -2.91,-10.14 -9.45,-15.12 -20.38,-13.48 a 254,254 0 0 0 -55.85,14.87 c -1.38,0.55 -2.76,1.23 -4.15,1.84 l -0.15,1 c 3.15,-0.46 6.28,-0.52 9.46,-1.47 6.89,-2.06 13.83,-4.41 20.16,-3.39 a 25.7,25.7 0 0 1 8.86,2.92 c 8.54,5 15.61,12 22,19.73 3,3.69 6.22,7.27 9.33,10.89 l -0.47,0.64 a 33.23,33.23 0 0 1 -3.28,-2.36 c -3.94,-3.58 -9.15,-4.52 -14.79,-4.64 -7.45,-0.15 -14.82,-0.56 -22.34,-0.49 -9,0.09 -14.64,-4.78 -18.53,-12 -2.53,-4.72 -6.6,-7.13 -11.5,-8.28 a 11.57,11.57 0 0 0 -6.72,0.89 c -20.89,9 -41.18,20.95 -61,35.25 -2.82,2 -5.61,4.17 -8.33,6.47 6.05,-0.55 11.36,-4.74 16.63,-9.09 7.08,-5.84 14.58,-10.92 22.07,-11.19 6.31,-0.24 12.66,0.52 17.95,2.73 9.59,4 18.4,9.43 27.53,14.27 a 2.25,2.25 0 0 1 1.11,1.24 c -2.42,-0.52 -4.77,-1.25 -7.28,-1.54 -6,-0.71 -12.41,1.94 -18.78,4.52 -7.65,3.1 -15.31,6.2 -23,9.44 -7.69,3.24 -13.56,1.7 -18.48,-2.4 -2,-1.64 -3.64,-3.86 -6,-4.71 -8,-2.85 -16.48,-0.32 -25.21,7.23 a 405.83,405.83 0 0 0 -52.08,53.64 c -5.24,6.57 -10.38,13.23 -15.43,20.08 a 22.71,22.71 0 0 0 10,-7 c 3.67,-4.28 7.23,-8.69 11,-12.77 9.34,-10 19.31,-15.09 30.39,-16.13 11.53,-1.09 22,0.53 32.68,1.94 a 87.68,87.68 0 0 1 13.11,2.62 5.88,5.88 0 0 1 -1.41,0.31 c -10.51,-0.33 -20.53,5.73 -30.54,13.25 -7.34,5.52 -14.78,10.77 -22.23,16 -8.07,5.65 -15.52,6.12 -21.91,3.21 -6.39,-2.91 -13.06,-2.95 -20.88,1.5 a 19.18,19.18 0 0 0 -5.87,5.23 357.24,357.24 0 0 0 -37.82,68.2 c -5.62,13.41 -10.13,27 -15.12,40.58 -0.31,0.84 -0.46,1.7 -0.8,3 a 63.74,63.74 0 0 0 14.07,-20.31 211.5,211.5 0 0 1 10.36,-20.91 62.78,62.78 0 0 1 18.49,-19.86 c 14.85,-10.37 30.12,-16.42 45.48,-22 6.36,-2.3 12.71,-4.48 19.16,-6.41 -0.58,0.35 -1.15,0.76 -1.74,1 a 62.82,62.82 0 0 0 -23.53,19.86 q -14,19.13 -28.46,38 c -7.66,10 -17,15.26 -26.65,16.3 -10.57,1.15 -18.76,8 -26.33,17.63 a 17.57,17.57 0 0 0 -3.1,5.67 c -8.7,32 -12.19,62.83 -10.72,92.56 0.08,1.39 0.31,2.69 0.55,4.71 z"
     class="cls-1" />
  <path
     style="fill:#ffffff"
     id="path1166"
     d="m 1025.8258,430.88 c -2.94,-5.81 -5.28,-10.74 -6,-16 -1.26,-8.91 -2.49,-17.84 -4.24,-26.83 -1.68,-8.56 -5.62,-17 -10.75,-24.77 -3.78,-5.67 -8.83998,-10.55 -13.36998,-15.74 -10,-11.44 -21.7,-19.79 -33.08,-28.65 -8.8,-6.86 -17.78,-13.34 -26.69,-20 a 5.58,5.58 0 0 0 -2.93,-1.26 c 1.38,1.21 2.77,2.42 4.14,3.64 a 76.09,76.09 0 0 1 20.3,29.16 c 5.59,14.06 11,28.17 16.74,42.2 a 113.27,113.27 0 0 0 8.54,16.88 54.16,54.16 0 0 0 19.13,18 c 1.79,1 3.58998,2.13 5.39998,2.95 7.56,3.42 13.17,9.62 17.8,17.3 0.77,1.27 1.48,2.58 2.3,3.83 a 13.5,13.5 0 0 1 2.39,9.66 c -2.74,22.28 -7.89,43 -16.07,61.89 -1.53,3.54 -1.46,3.64 3.25,9.25 1.3,-3.12 2.58,-6.12 3.83,-9.14 8.7,-21.19 13.61,-44.61 15.7,-69.74 a 21.19,21.19 0 0 1 23.71,-19.54 c 6.42,0.8 12.41,0.75 17.84,-1.57 6.81,-2.9 10.35,-9 13.42,-15.82 q 6.93,-15.25 13.79,-30.56 c 4.49,-10 11.61,-16.48 22.34,-18.27 0.29,0 0.49,-0.33 0.53,-1 -2.89,0.2 -5.86,0.22 -8.67,0.63 -13.5,2 -27.06,3.75 -40.37,6.16 -4.67,0.85 -8.81,3.07 -13,5.07 -3.73,1.8 -7.57,3.63 -10.6,6.38 -7.09,6.45 -10.17,16.13 -11.12,27.34 -0.48,5.7 -0.86,11.46 -1.54,17.07 a 19.32,19.32 0 0 1 -5.61,11.51 c -0.16,-2 -0.35,-3.54 -0.38,-5 a 327.59,327.59 0 0 0 -8.72,-72.06 c -0.91,-3.79 -1.6,-7.6 -2.85,-11.37 -2.77,-8.3 1.57,-21.08 8.42,-23.23 11.44,-3.59 16.22,-13.12 16.52,-26.95 0.2,-9.43 0.57,-18.8 0.91,-28.17 0.42,-11.32 1.89,-21.94 8.84,-29.08 a 2.39,2.39 0 0 0 -0.91,0.23 c -5.6,4.43 -11.3,8.75 -16.75,13.38 -4.35,3.71 -8.8,7.38 -12.46,11.85 a 61.45,61.45 0 0 0 -9.53,15.24 c -3.47,8.35 -3.09,18.55 -0.92,29.37 1.39,7 2.32,13.86 3.32,20.75 a 9.1,9.1 0 0 1 -0.66,4.76 c -1.36,-3.93 -2.74,-7.86 -4.08,-11.79 a 365.56,365.56 0 0 0 -25.09998,-57.95 c -6.18,-11.34 -13.11,-22.38 -19.65,-33.58 a 11.05,11.05 0 0 1 -1.36,-3.85 c -0.86,-6.34 0.9,-10.83 4.62,-14.15 4.18,-3.75 5.68,-9.41 3.84,-16.74 -2.62,-10.5 -5.59,-21 -8.32,-31.5 -1.93,-7.43 -3.64,-14.83 -2.28,-21.48 0.34,-1.62 0.91,-3.11 1.37,-4.66 l -0.68,-0.55 q -4.27,7.57 -8.54,15.15 a 68,68 0 0 0 -7.45,19.93 c -1.81,8.75 0.46,17.91 4.48,27.39 2.72,6.42 6,12.74 8.89,19.11 a 10.53,10.53 0 0 1 1,4.47 c -1.72,-2.21 -3.52,-4.36 -5.13,-6.64 a 411,411 0 0 0 -28.9,-36.69 c -11.15,-12.55 -22.75,-24.62 -35.4,-34.87 -6.28,-5.09 -10.11,-21 -5.54,-25.59 4.27,-4.26 5.21,-10.79 1.66,-18.87 -3.75,-8.51 -7.65,-17 -11.58,-25.45 -3.93,-8.45 -6.78,-16.6 -5.12,-24.38 0.06,-0.29 0,-0.68 -0.57,-1.34 -1.8,5.27 -3.64,10.52 -5.4,15.82 -2.27,6.84 -4.29,13.77 -4.45,21.89 -0.16,8.12 2.63,15.67 7.7,23.21 3.45,5.14 7,10.28 10.73,15.2 2.77,3.63 3.39,7.24 4.37,11.61 a 28.19,28.19 0 0 1 -2.73,-1.66 415.23,415.23 0 0 0 -57.09,-37.92 34.38,34.38 0 0 1 -17,-22.83 c -2.49,-11 -8.27,-19.58 -17.07,-27 -7.51,-6.31 -14.94,-12.86 -22,-19.87 -3.14,-3.11 -5.31,-7.6 -7.9,-11.47 a 6.52,6.52 0 0 0 -1.48,-1.82 c 0.69,2 1.32,4 2.07,5.93 5.14,13.64 10.38,27.24 17.73,40.4 5.31,9.52 12.28,16.46 21.1,21 5.32,2.72 10.8,5 15.41,10.11 0.32,0.37 0.62,0.76 1.46,1.78 -2.25,-1 -3.88,-1.67 -5.5,-2.41 a 289.38,289.38 0 0 0 -57.9,-19.66 33.07,33.07 0 0 1 -14.77,-7.55 50,50 0 0 1 -6.19,-7.16 c -3.32,-4.3 -6.22,-9 -9.81,-13 a 31.8,31.8 0 0 0 -9.1,-6.88 c -5.86,-2.87 -11.81,-5 -17.73,-7.29 -7.84,-3 -15.49,-6.57 -22.15,-14 -0.49,-0.55 -0.95,-1.15 -1.44,-1.71 a 4.4,4.4 0 0 0 -1.73,-1.32 3.78,3.78 0 0 0 0.37,0.9 c 10.06,12.83 19.38,26.33 30.74,38 7,7.18 14.3,12.87 22.69,14.06 4.08,0.59 8,0.5 12.11,1 a 33.19,33.19 0 0 1 5.57,1.73 l 0.09,0.79 c -1.64,-0.19 -3.27,-0.3 -4.92,-0.57 a 229.43,229.43 0 0 0 -39.43,-2.43 42.92,42.92 0 0 1 -25.36,-7.18 c -9.25,-6.09 -17,-4.7 -24.57,-2.55 -4.75,1.35 -9.63,2.44 -14.51,3.51 -5.1,1.13 -10.64,0 -16.48,-2.38 a 12.17,12.17 0 0 0 1.31,1 c 13.68,7.77 27.39,15.21 41.44,20 7.6,2.57 13.77,1.58 19.2,-1.75 a 19.52,19.52 0 0 0 3.87,-2.72 c 4.1,-4.08 9.68,-5 15.84,-4.88 6.8,0.16 13.56,0.19 20.34,0.31 a 17.31,17.31 0 0 1 2.17,0.33 l 0.35,1.08 c -2.26,0.35 -4.44,1 -6.81,1 -3.31,-0.08 -6.78,-0.77 -10.16,-1.1 -9.48,-0.94 -16.36,2.81 -21.74,9.22 -8.48,10.11 -14.3,22.63 -20.41,34.88 a 1.8,1.8 0 0 0 0,1.4 c 1,-1.2 2,-2.39 3,-3.61 4.06,-5.11 10.34,-6.56 16.46,-8.24 5.59,-1.54 11.23,-3 16.88,-4.36 7.65,-1.88 12,-7.45 14.31,-15.43 2.91,-10.14 9.44,-15.12 20.38,-13.48 a 254.17,254.17 0 0 1 55.85,14.87 c 1.38,0.55 2.76,1.23 4.14,1.84 l 0.16,1 c -3.16,-0.46 -6.28,-0.52 -9.46,-1.47 -6.89,-2.06 -13.83,-4.41 -20.16,-3.39 a 25.63,25.63 0 0 0 -8.86,2.92 c -8.54,5 -15.61,12 -22,19.73 -3,3.69 -6.21,7.27 -9.32,10.89 l 0.47,0.64 a 33.23,33.23 0 0 0 3.28,-2.36 c 3.93,-3.58 9.15,-4.52 14.79,-4.64 7.44,-0.15 14.82,-0.56 22.33,-0.49 9,0.09 14.65,-4.78 18.54,-12 2.53,-4.72 6.6,-7.13 11.5,-8.28 a 11.58,11.58 0 0 1 6.72,0.89 c 20.88,9 41.17,20.95 61,35.25 2.83,2 5.62,4.17 8.34,6.47 -6.06,-0.55 -11.36,-4.74 -16.64,-9.09 -7.08,-5.84 -14.58,-10.92 -22.07,-11.19 -6.3,-0.24 -12.66,0.52 -17.94,2.73 -9.59,4 -18.41,9.43 -27.54,14.27 a 2.24,2.24 0 0 0 -1.1,1.24 c 2.42,-0.52 4.77,-1.25 7.28,-1.54 6,-0.71 12.41,1.94 18.77,4.52 7.66,3.1 15.32,6.2 23,9.44 7.68,3.24 13.56,1.7 18.48,-2.4 2,-1.64 3.63,-3.86 6,-4.71 8,-2.85 16.49,-0.32 25.21,7.23 a 405.27,405.27 0 0 1 52.09,53.64 c 5.24,6.57 10.38,13.23 15.43,20.08 a 22.65,22.65 0 0 1 -10,-7 c -3.67,-4.28 -7.23,-8.69 -11.06,-12.77 -9.33,-10 -19.3,-15.09 -30.38,-16.13 -11.53,-1.09 -22,0.53 -32.68,1.94 a 88.06,88.06 0 0 0 -13.12,2.62 6,6 0 0 0 1.42,0.31 c 10.51,-0.33 20.53,5.73 30.54,13.25 7.33,5.52 14.78,10.77 22.23,16 8.07,5.65 15.51,6.12 21.9,3.21 6.39,-2.91 13.07,-2.95 20.89,1.5 a 19.3,19.3 0 0 1 5.87,5.23 356.65,356.65 0 0 1 37.81,68.2 c 5.62998,13.41 10.13998,27 15.12998,40.58 0.31,0.84 0.45,1.7 0.8,3 a 63.93,63.93 0 0 1 -14.07998,-20.31 213.64,213.64 0 0 0 -10.35,-20.91 62.69,62.69 0 0 0 -18.51,-19.78 c -14.85,-10.37 -30.12,-16.42 -45.48,-22 -6.35,-2.3 -12.71,-4.48 -19.15,-6.41 0.58,0.35 1.15,0.76 1.73,1 a 62.67,62.67 0 0 1 23.53,19.86 q 14.06,19.13 28.46,38 c 7.67,10 17,15.26 26.66,16.3 10.57,1.15 18.74998,8 26.32998,17.63 a 17.35,17.35 0 0 1 3.09,5.67 c 8.71,32 12.2,62.83 10.73,92.56 -0.07,1.39 -0.31,2.69 -0.56,4.71 z"
     class="cls-1" />
  <g
     transform="translate(-443.41418,-424.44)"
     id="g1176">
    <path
       style="fill:#f3ad7d"
       id="path1168"
       d="m 538.78,927.12 c -2.38,3.29 -4.58,6.31 -6.76,9.33 -1.78,2.46 -3.46,5 -5.33,7.39 -7.72,9.84 -7.57,20.12 -2.15,30.91 10.46,20.83 25.31,38.41 41.16,55.15 10.58,11.18 21.8,21.74 32.73,32.57 a 30.94,30.94 0 0 1 2.2,2.24 4.11,4.11 0 0 1 0,5.73 4.42,4.42 0 0 1 -6,1 5.18,5.18 0 0 1 -1,-0.76 c -23.6,-22 -46.65,-44.61 -65,-71.34 A 167,167 0 0 1 514,973.38 c -5.1,-11.33 -3.48,-22.72 3.72,-32.81 q 33.62,-47.07 67.64,-93.86 c 10.51,-14.45 10.38,-33.37 -0.83,-46.5 -0.4,-0.47 -0.87,-0.88 -1.58,-1.58 -0.76,1 -1.46,1.83 -2.11,2.72 -33,44.93 -66.21,89.72 -98.92,134.86 -16.79,23.18 -21.75,49.21 -16.07,77.31 3,14.69 10,27.36 18.23,39.64 q 70.56,105.16 140.84,210.51 c 1.85,2.78 3.43,3.14 6.34,1.9 21.82,-9.32 39,-23.89 50.52,-44.75 11.86,-21.37 15.28,-44.27 12.44,-68.36 -3.37,-28.47 -17.1,-52 -35,-73.44 -20.89,-25 -46.12,-45 -73.24,-62.74 -19.29,-12.62 -32.38,-30.08 -39.56,-51.93 a 161.61,161.61 0 0 1 -5,-18.17 c -1.24,-6.11 -1.74,-12.36 -2.64,-19.06 z"
       class="cls-2" />
    <path
       style="fill:#f3ad7d"
       id="path1170"
       d="m 608.9,879.17 a 41.29,41.29 0 0 0 -19.15,16.36 c -7.36,11.76 -9.16,24.3 -4.9,37.63 9.4,29.35 18.72,58.72 28.17,88.06 a 9.66,9.66 0 0 0 2.88,4.61 c 21.14,16.16 40.6,34 56.8,55.27 0.11,0.14 0.34,0.2 0.76,0.44 z"
       class="cls-2" />
    <path
       style="fill:#f3ad7d"
       id="path1172"
       d="m 450,920.22 c 1,-5.88 1.78,-11.14 2.84,-16.35 2.46,-12.18 8.51,-22.94 13.79,-34 3.76,-7.84 7.72,-15.59 11.32,-23.51 1.24,-2.72 1.75,-5.8 2.46,-8.74 9.22,-38.19 18.36,-76.41 27.66,-114.58 1.57,-6.43 3.21,-12.74 2.4,-19.48 -1.39,-11.55 -10,-23.9 -19.94,-27.87 -0.49,1.7 -1,3.37 -1.45,5.06 q -20.68,78.4 -41.37,156.82 a 126.16,126.16 0 0 0 -2,56.6 c 1.54,8.43 2.78,16.92 4.29,26.05 z"
       class="cls-2" />
    <path
       style="fill:#f3ad7d"
       id="path1174"
       d="m 461.43,954.08 c 1.84,-3.85 3.36,-7.92 5.6,-11.53 4.37,-7 8.7,-14.14 13.84,-20.58 12.84,-16.08 22.74,-33.73 31.12,-52.51 13.61,-30.53 28.07,-60.68 42.23,-91 7.16,-15.3 2.16,-35.58 -11.34,-44.44 -0.61,1 -1.28,2 -1.8,3.12 q -28.14,58.14 -56.26,116.32 c -5.7,11.79 -11.45,23.56 -17.07,35.39 -7.39,15.56 -9.31,32 -8,49 0.4,5.39 0.66,10.79 1,16.19 z"
       class="cls-2" />
  </g>
  <circle
     style="fill:none;stroke:#f3ad7d;stroke-width:30px;stroke-miterlimit:10"
     id="circle1178"
     r="375.82001"
     cy="486.78998"
     cx="581.07581"
     class="cls-3" />
  <path
     style="fill:#e99b67"
     id="path1180"
     d="M 181.50582,839.23 Q 111.20582,733.9 40.655819,628.72 c -8.23,-12.28 -15.26,-25 -18.23,-39.64 -3.93,-19.49 -2.75,-38 4,-55.22 22.08,120.72 161.470001,307.27 161.470001,307.27 -2.96,1.24 -4.54,0.88 -6.39,-1.9 z"
     class="cls-4" />
  <g
     transform="translate(-443.41418,-424.44)"
     id="g1188">
    <path
       style="fill:#e99b67"
       id="path1182"
       d="m 508.07,723.05 c 1.57,-6.43 3.21,-12.74 2.4,-19.48 -1.34,-11.13 -9.39,-23 -18.87,-27.38 6.66,19.94 12.2,41.73 14.95,53.13 0.51,-2.09 1.01,-4.18 1.52,-6.27 z"
       class="cls-4" />
    <path
       style="fill:#e99b67"
       id="path1184"
       d="m 542.89,734.06 c 4.74,14.11 9,31.7 11.71,43.57 6.58,-15.19 1.53,-34.87 -11.71,-43.57 z"
       class="cls-4" />
    <path
       style="fill:#e99b67"
       id="path1186"
       d="m 584.53,800.21 c -0.4,-0.47 -0.87,-0.88 -1.58,-1.58 l -0.85,1.08 c 2.5,15.06 3.7,33.38 4.26,45.55 9.49,-14.26 9.01,-32.35 -1.83,-45.05 z"
       class="cls-4" />
  </g>
  <g
     transform="translate(-443.41418,-424.44)"
     id="g1210">
    <g
       id="g1198">
      <path
         style="fill:#f3ad7d"
         id="path1190"
         d="m 1509.22,927.12 c 2.38,3.29 4.58,6.31 6.76,9.33 1.78,2.46 3.46,5 5.33,7.39 7.72,9.84 7.57,20.12 2.15,30.91 -10.46,20.83 -25.31,38.41 -41.16,55.15 -10.58,11.18 -21.8,21.74 -32.73,32.57 a 30.94,30.94 0 0 0 -2.2,2.24 4.11,4.11 0 0 0 0,5.73 4.42,4.42 0 0 0 6,1 5.18,5.18 0 0 0 1,-0.76 c 23.6,-22 46.65,-44.61 65.05,-71.34 A 167,167 0 0 0 1534,973.38 c 5.1,-11.33 3.48,-22.72 -3.72,-32.81 q -33.62,-47.07 -67.64,-93.86 c -10.51,-14.45 -10.38,-33.37 0.83,-46.5 0.4,-0.47 0.87,-0.88 1.58,-1.58 0.76,1 1.46,1.83 2.11,2.72 33,44.93 66.21,89.72 98.92,134.86 16.79,23.18 21.75,49.21 16.07,77.31 -3,14.69 -10,27.36 -18.23,39.64 q -70.56,105.16 -140.84,210.51 c -1.85,2.78 -3.43,3.14 -6.34,1.9 -21.82,-9.32 -39,-23.89 -50.52,-44.75 -11.86,-21.37 -15.28,-44.27 -12.44,-68.36 3.37,-28.47 17.1,-52 35,-73.44 20.89,-25 46.12,-45 73.24,-62.74 19.29,-12.62 32.38,-30.08 39.56,-51.93 a 161.61,161.61 0 0 0 5,-18.17 c 1.24,-6.11 1.74,-12.36 2.64,-19.06 z"
         class="cls-2" />
      <path
         style="fill:#f3ad7d"
         id="path1192"
         d="m 1439.1,879.17 a 41.29,41.29 0 0 1 19.15,16.36 c 7.36,11.76 9.16,24.3 4.9,37.63 -9.4,29.35 -18.72,58.72 -28.17,88.06 a 9.66,9.66 0 0 1 -2.88,4.61 c -21.14,16.16 -40.6,34 -56.8,55.27 -0.11,0.14 -0.34,0.2 -0.76,0.44 z"
         class="cls-2" />
      <path
         style="fill:#f3ad7d"
         id="path1194"
         d="m 1598,920.22 c -1,-5.88 -1.78,-11.14 -2.84,-16.35 -2.46,-12.18 -8.51,-22.94 -13.79,-34 -3.76,-7.84 -7.72,-15.59 -11.32,-23.51 -1.24,-2.72 -1.75,-5.8 -2.46,-8.74 -9.22,-38.19 -18.36,-76.41 -27.66,-114.58 -1.57,-6.43 -3.21,-12.74 -2.4,-19.48 1.39,-11.55 10,-23.9 19.94,-27.87 0.49,1.7 1,3.37 1.45,5.06 q 20.68,78.4 41.37,156.82 a 126.16,126.16 0 0 1 2,56.6 c -1.54,8.43 -2.78,16.92 -4.29,26.05 z"
         class="cls-2" />
      <path
         style="fill:#f3ad7d"
         id="path1196"
         d="m 1586.57,954.08 c -1.84,-3.85 -3.36,-7.92 -5.6,-11.53 -4.37,-7 -8.7,-14.14 -13.84,-20.58 -12.84,-16.08 -22.74,-33.73 -31.12,-52.51 -13.61,-30.53 -28.07,-60.68 -42.23,-91 -7.16,-15.3 -2.16,-35.58 11.34,-44.44 0.61,1 1.28,2 1.8,3.12 q 28.14,58.14 56.26,116.32 c 5.7,11.79 11.45,23.56 17.07,35.39 7.39,15.56 9.31,32 8,49 -0.4,5.39 -0.66,10.79 -1,16.19 z"
         class="cls-2" />
    </g>
    <path
       style="fill:#e99b67"
       id="path1200"
       d="m 1423.08,1263.67 q 70.31,-105.33 140.84,-210.51 c 8.24,-12.28 15.27,-25 18.23,-39.64 3.94,-19.49 2.76,-38 -3.94,-55.22 -22.08,120.72 -161.47,307.27 -161.47,307.27 2.91,1.24 4.49,0.88 6.34,-1.9 z"
       class="cls-4" />
    <g
       id="g1208">
      <path
         style="fill:#e99b67"
         id="path1202"
         d="m 1539.68,723.05 c -1.57,-6.43 -3.2,-12.74 -2.39,-19.48 1.33,-11.13 9.38,-23 18.86,-27.38 -6.66,19.94 -12.2,41.73 -15,53.13 -0.46,-2.09 -0.96,-4.18 -1.47,-6.27 z"
         class="cls-4" />
      <path
         style="fill:#e99b67"
         id="path1204"
         d="m 1504.87,734.06 c -4.75,14.11 -9,31.7 -11.72,43.57 -6.57,-15.19 -1.53,-34.87 11.72,-43.57 z"
         class="cls-4" />
      <path
         style="fill:#e99b67"
         id="path1206"
         d="m 1463.22,800.21 c 0.4,-0.47 0.87,-0.88 1.58,-1.58 l 0.85,1.08 c -2.5,15.06 -3.7,33.38 -4.26,45.55 -9.48,-14.26 -9.01,-32.35 1.83,-45.05 z"
         class="cls-4" />
    </g>
  </g>
  <g
     transform="translate(-443.41418,-424.44)"
     id="g1244">
    <path
       style="fill:#ffffff"
       id="path1212"
       d="m 565.73,1405.68 h 24.81 a 18.84,18.84 0 0 1 13.76,5.32 17.54,17.54 0 0 1 5.45,13.06 18.49,18.49 0 0 1 -1,6.29 16.56,16.56 0 0 1 -2.48,4.73 22.92,22.92 0 0 1 -2.91,3.09 10.86,10.86 0 0 1 -2.54,1.75 l -1,0.55 12,21.21 h -12.89 l -10.78,-19.61 h -10.39 v 19.61 h -12 z m 29.86,13 a 7.42,7.42 0 0 0 -5.45,-2.14 h -12.38 v 14.8 h 12.38 a 7.54,7.54 0 0 0 5.45,-2.09 6.83,6.83 0 0 0 2.17,-5.14 7.33,7.33 0 0 0 -2.17,-5.47 z"
       class="cls-1" />
    <path
       style="fill:#ffffff"
       id="path1214"
       d="m 668.56,1450.91 v 10.78 h -42 v -56 h 41.21 v 10.82 h -29.21 v 11.21 h 22.77 v 10.78 h -22.77 v 12.42 z"
       class="cls-1" />
    <path
       style="fill:#ffffff"
       id="path1216"
       d="m 678.11,1405.68 h 12.81 l 14.37,41.6 14.42,-41.6 h 12.81 l -20.82,56 h -12.81 z"
       class="cls-1" />
    <path
       style="fill:#ffffff"
       id="path1218"
       d="m 787.3,1450.91 v 10.78 h -42 v -56 h 41.21 v 10.82 H 757.3 v 11.21 h 22.77 v 10.78 H 757.3 v 12.42 z"
       class="cls-1" />
    <path
       style="fill:#ffffff"
       id="path1220"
       d="m 802.43,1461.69 v -56 h 12 v 45.23 h 26 v 10.78 z"
       class="cls-1" />
    <path
       style="fill:#ffffff"
       id="path1222"
       d="m 875.2,1440.75 a 28.29,28.29 0 0 0 -6.91,-2.87 q -4.08,-1.16 -8.13,-2.71 a 16.1,16.1 0 0 1 -6.89,-5.16 14.18,14.18 0 0 1 -2.85,-9.1 14.9,14.9 0 0 1 5.45,-11.6 q 5.45,-4.8 14.16,-4.81 a 27.5,27.5 0 0 1 6.64,0.8 24.24,24.24 0 0 1 5.25,1.88 30.5,30.5 0 0 1 3.6,2.19 11.71,11.71 0 0 1 2.2,1.93 l 0.71,0.78 -7.19,7.62 c -0.31,-0.37 -0.75,-0.81 -1.31,-1.35 a 16.38,16.38 0 0 0 -3.54,-2.13 12.44,12.44 0 0 0 -5.54,-1.33 8.32,8.32 0 0 0 -5.53,1.76 5.38,5.38 0 0 0 -2.09,4.26 5.09,5.09 0 0 0 2.83,4.51 29.19,29.19 0 0 0 6.88,2.87 c 2.69,0.78 5.4,1.7 8.12,2.74 a 16.12,16.12 0 0 1 6.94,5.15 14.21,14.21 0 0 1 2.85,9.11 16,16 0 0 1 -5.65,12.71 q -5.64,4.92 -15.56,4.92 a 30,30 0 0 1 -7.56,-1 25.56,25.56 0 0 1 -6,-2.29 36.15,36.15 0 0 1 -4.16,-2.7 16.49,16.49 0 0 1 -2.58,-2.3 l -0.89,-1 7.22,-7.18 c 0.37,0.41 0.88,1 1.55,1.62 a 18.91,18.91 0 0 0 4.43,2.67 16.18,16.18 0 0 0 7.19,1.68 10.23,10.23 0 0 0 6.77,-2 6.41,6.41 0 0 0 2.45,-5.15 5.17,5.17 0 0 0 -2.86,-4.52 z"
       class="cls-1" />
    <path
       style="fill:#ffffff"
       id="path1224"
       d="m 917.62,1409.31 -10.82,17.19 -6.8,-4 8.4,-18.4 z"
       class="cls-1" />
    <path
       style="fill:#ffffff"
       id="path1226"
       d="m 926,1461.69 a 29.91,29.91 0 0 1 2,-11.17 22.68,22.68 0 0 1 5,-7.91 68.54,68.54 0 0 1 6.44,-5.55 c 2.32,-1.76 4.46,-3.25 6.43,-4.49 a 19.94,19.94 0 0 0 5,-4.34 8.3,8.3 0 0 0 2,-5.33 6.83,6.83 0 0 0 -2.09,-5.29 9.48,9.48 0 0 0 -11.17,-0.22 9,9 0 0 0 -2.91,3.4 l -0.62,1.68 -10,-4.76 c 0.1,-0.37 0.27,-0.85 0.5,-1.45 a 21.12,21.12 0 0 1 1.88,-3.18 17.2,17.2 0 0 1 9.16,-7.15 21.89,21.89 0 0 1 8,-1.43 19.77,19.77 0 0 1 14.08,5.2 16.85,16.85 0 0 1 5.53,12.77 16.38,16.38 0 0 1 -1.84,7.74 19.34,19.34 0 0 1 -4.8,5.92 74.84,74.84 0 0 1 -6.08,4.49 q -3.11,2 -6.35,4.65 a 22.46,22.46 0 0 0 -4.92,5.21 h 24 v 11.21 z"
       class="cls-1" />
    <path
       style="fill:#ffffff"
       id="path1228"
       d="m 1018.94,1454.86 q -7,8 -17,8 -10,0 -17,-8 -7,-8.05 -7,-21.18 0,-13.13 7,-21.15 7,-8 17,-8 10,0 17,8 7,8 7,21.15 0,13.15 -7,21.18 z m -25.43,-7.58 q 3.56,4.8 8.44,4.8 4.88,0 8.44,-4.8 3.55,-4.82 3.55,-13.6 0,-8.78 -3.55,-13.59 -3.55,-4.8 -8.44,-4.8 -4.89,0 -8.44,4.8 -3.56,4.8 -3.55,13.59 0.01,8.79 3.55,13.6 z"
       class="cls-1" />
    <path
       style="fill:#ffffff"
       id="path1230"
       d="m 1145,1390.17 -0.13,8 h -77.59 v -8 z m -7.13,106.83 -11.87,6.19 v -58.6 a 105.29,105.29 0 0 1 -12,10.88 q -8.12,6.52 -15.56,6.53 a 17.72,17.72 0 0 1 -7.42,-2 32,32 0 0 1 -8.3,-6 32.69,32.69 0 0 1 -6.63,-9.2 28.46,28.46 0 0 1 -2.77,-11.67 q 0,-4.49 3.56,-11.1 a 40.89,40.89 0 0 1 9,-11.41 q 5.44,-4.77 10.38,-4.78 a 24.6,24.6 0 0 1 8,2 49.35,49.35 0 0 1 11.07,6.19 47.44,47.44 0 0 1 10.61,10.65 v -14.17 h 11.87 z M 1123,1442.25 q 0,-5.61 -6,-11.67 a 60.84,60.84 0 0 0 -13.58,-10.35 q -7.6,-4.29 -10.45,-4.29 a 14.64,14.64 0 0 0 -9.49,3.37 q -4.15,3.36 -4.15,6.85 c 0,2 1,5.06 2.9,9.1 a 31,31 0 0 0 8.87,10.84 22.66,22.66 0 0 0 14.66,4.78 23.39,23.39 0 0 0 8.77,-1.55 19.54,19.54 0 0 0 6.16,-3.66 q 2.31,-2.1 2.31,-3.42 z"
       class="cls-1" />
    <path
       style="fill:#ffffff"
       id="path1232"
       d="m 1208.34,1398.15 h -43.91 v 10.5 a 0.64,0.64 0 0 1 0.53,0.26 0.56,0.56 0 0 0 0.46,0.26 c -0.09,0 0.82,-0.25 2.71,-0.76 1.89,-0.51 4.06,-1 6.52,-1.43 a 40.83,40.83 0 0 1 7.19,-0.66 q 7.9,0 12.45,2.18 a 13.6,13.6 0 0 1 6.56,6.13 23.83,23.83 0 0 1 2.44,8.86 q 0.43,4.92 0.43,13.48 v 25.38 c -3.4,-1.32 -5.83,-2.28 -7.26,-2.9 -1.43,-0.62 -2.53,-1.08 -3.29,-1.38 0,-1.41 -0.28,-2.31 -0.85,-2.71 q -2.17,1.26 -4.87,2.74 a 30.44,30.44 0 0 1 -7,2.6 41.58,41.58 0 0 1 -10.33,1.12 30.73,30.73 0 0 1 -11.19,-2.11 21.73,21.73 0 0 1 -8.85,-6 13.18,13.18 0 0 1 -3.39,-8.86 q 0,-4.62 4.28,-9.66 a 32.78,32.78 0 0 1 11.45,-8.37 36.73,36.73 0 0 1 15.67,-3.33 28.1,28.1 0 0 1 8.78,1.36 21.5,21.5 0 0 1 6.35,3 v -6.08 a 16.56,16.56 0 0 0 -5.26,-4.77 q -2.51,-1.24 -7.83,-1.24 a 63.3,63.3 0 0 0 -10.89,1.14 52.9,52.9 0 0 0 -8.56,2.75 c -3.05,1.24 -5.6,2.21 -7.67,2.9 v -4.84 l 1.32,-1.11 a 14,14 0 0 0 1.16,-1 4.39,4.39 0 0 1 0.36,-0.39 v -17 h -13.51 v -8 h 66 z m -15.17,41.7 q 0,-3 -6.81,-5.06 -6.81,-2.06 -9.64,-2 a 28.27,28.27 0 0 0 -13,3 29,29 0 0 0 -9.21,7 q -3.36,4 -3.36,6.57 a 5.58,5.58 0 0 0 4,3.75 22,22 0 0 0 6.85,1 41.57,41.57 0 0 0 12.4,-1.77 44.94,44.94 0 0 0 9.94,-4.34 33.13,33.13 0 0 0 6.55,-4.93 c 1.52,-1.58 2.28,-2.65 2.28,-3.22 z"
       class="cls-1" />
    <path
       style="fill:#ffffff"
       id="path1234"
       d="m 1230.35,1383.25 a 2.62,2.62 0 0 1 -1.52,0.26 6,6 0 0 1 -1.84,-0.26 q -4.74,-9.3 -6.07,-11.34 a 6.55,6.55 0 0 0 -3.65,-2.57 c -1.48,-0.39 -2.86,-0.78 -4.16,-1.15 a 5.32,5.32 0 0 1 -3.13,-2.61 18.4,18.4 0 0 1 -1,-3.06 25.75,25.75 0 0 0 -2.83,-6.23 v -1.52 h 2.57 a 53.35,53.35 0 0 1 10.94,4.32 q 3.24,2 4.12,3.76 a 55.58,55.58 0 0 1 2.54,7.45 61.09,61.09 0 0 0 3.89,10.11 c 0,0.4 0.08,0.76 0.1,1.09 0.02,0.33 0.04,0.92 0.04,1.75 z m 3.89,14.9 h -26.83 v -8 h 26.83 z m -7.51,65.06 -11.08,-6.13 v -50.83 h 11.08 z"
       class="cls-1" />
    <path
       style="fill:#ffffff"
       id="path1236"
       d="m 1303.92,1398.15 h -70.87 v -8 h 70.87 z m -14.18,28.85 q 0,-15.82 -15,-15.82 a 18.12,18.12 0 0 0 -8.93,2.57 27.68,27.68 0 0 0 -8.18,7.12 37.49,37.49 0 0 0 -5.8,10.81 38.77,38.77 0 0 0 -2.2,13 v 19.19 l -10.81,-5.67 v -49.57 h 11.33 v 7.84 c 0.93,-0.7 2.45,-1.89 4.58,-3.56 a 39.66,39.66 0 0 1 7.78,-4.61 23.94,23.94 0 0 1 19.94,0.13 27.47,27.47 0 0 1 8.57,6.26 30.19,30.19 0 0 1 5.94,9.46 31.08,31.08 0 0 1 2.17,11.64 37,37 0 0 1 -3,14.27 50.22,50.22 0 0 1 -9.63,14.47 l -12.72,-8 a 41.27,41.27 0 0 1 4.42,-4.61 54.44,54.44 0 0 0 5.67,-6.17 28.76,28.76 0 0 0 4.13,-7.75 31.71,31.71 0 0 0 1.74,-11 z"
       class="cls-1" />
    <path
       style="fill:#ffffff"
       id="path1238"
       d="m 1367.26,1398.15 h -43.9 v 10.5 a 0.64,0.64 0 0 1 0.53,0.26 0.55,0.55 0 0 0 0.46,0.26 c -0.09,0 0.81,-0.25 2.7,-0.76 1.89,-0.51 4.07,-1 6.53,-1.43 a 40.72,40.72 0 0 1 7.18,-0.66 q 7.92,0 12.46,2.18 a 13.64,13.64 0 0 1 6.56,6.13 24,24 0 0 1 2.44,8.86 q 0.43,4.92 0.43,13.48 v 25.38 c -3.41,-1.32 -5.83,-2.28 -7.26,-2.9 -1.43,-0.62 -2.54,-1.08 -3.29,-1.38 0,-1.41 -0.28,-2.31 -0.85,-2.71 -1.45,0.84 -3.08,1.75 -4.87,2.74 a 30.44,30.44 0 0 1 -7.05,2.6 41.58,41.58 0 0 1 -10.33,1.12 30.73,30.73 0 0 1 -11.19,-2.11 21.76,21.76 0 0 1 -8.86,-6 13.18,13.18 0 0 1 -3.39,-8.86 q 0,-4.62 4.28,-9.66 a 32.83,32.83 0 0 1 11.46,-8.37 36.72,36.72 0 0 1 15.66,-3.33 28.16,28.16 0 0 1 8.79,1.36 21.63,21.63 0 0 1 6.35,3 v -6.08 a 16.67,16.67 0 0 0 -5.26,-4.77 q -2.5,-1.24 -7.83,-1.24 a 63.55,63.55 0 0 0 -10.9,1.14 53.13,53.13 0 0 0 -8.55,2.75 q -4.57,1.86 -7.67,2.9 v -4.84 l 1.32,-1.11 a 12,12 0 0 0 1.15,-1 c 0.2,-0.22 0.32,-0.35 0.37,-0.39 v -17 h -13.52 v -8 h 66 z m -15.16,41.7 q 0,-3 -6.81,-5.06 -6.81,-2.06 -9.64,-2 a 28.27,28.27 0 0 0 -13,3 29.13,29.13 0 0 0 -9.22,7 q -3.35,4 -3.35,6.57 a 5.58,5.58 0 0 0 4,3.75 22,22 0 0 0 6.85,1 41.57,41.57 0 0 0 12.4,-1.77 44.94,44.94 0 0 0 9.94,-4.34 33.13,33.13 0 0 0 6.55,-4.93 c 1.51,-1.58 2.28,-2.65 2.28,-3.22 z"
       class="cls-1" />
    <path
       style="fill:#ffffff"
       id="path1240"
       d="m 1431.4,1398.15 h -43.9 v 10.5 a 0.64,0.64 0 0 1 0.53,0.26 0.55,0.55 0 0 0 0.46,0.26 c -0.09,0 0.81,-0.25 2.7,-0.76 1.89,-0.51 4.07,-1 6.53,-1.43 a 40.72,40.72 0 0 1 7.18,-0.66 q 7.92,0 12.46,2.18 a 13.64,13.64 0 0 1 6.56,6.13 24,24 0 0 1 2.44,8.86 q 0.42,4.92 0.43,13.48 v 25.38 c -3.41,-1.32 -5.83,-2.28 -7.27,-2.9 -1.44,-0.62 -2.53,-1.08 -3.28,-1.38 0,-1.41 -0.28,-2.31 -0.85,-2.71 q -2.17,1.26 -4.88,2.74 a 30.34,30.34 0 0 1 -7,2.6 41.58,41.58 0 0 1 -10.33,1.12 30.73,30.73 0 0 1 -11.19,-2.11 21.7,21.7 0 0 1 -8.86,-6 13.18,13.18 0 0 1 -3.39,-8.86 q 0,-4.62 4.28,-9.66 a 32.88,32.88 0 0 1 11.45,-8.37 36.8,36.8 0 0 1 15.67,-3.33 28.16,28.16 0 0 1 8.79,1.36 21.76,21.76 0 0 1 6.35,3 v -6.08 A 16.67,16.67 0 0 0 1411,1417 q -2.51,-1.24 -7.84,-1.24 a 63.53,63.53 0 0 0 -10.89,1.14 53.13,53.13 0 0 0 -8.55,2.75 q -4.58,1.86 -7.67,2.9 v -4.84 l 1.32,-1.11 a 13.42,13.42 0 0 0 1.15,-1 c 0.2,-0.22 0.32,-0.35 0.37,-0.39 v -17 h -13.52 v -8 h 66.05 z m -15.16,41.7 q 0,-3 -6.81,-5.06 c -4.54,-1.36 -7.76,-2 -9.64,-2 a 28.24,28.24 0 0 0 -13,3 29.13,29.13 0 0 0 -9.22,7 c -2.24,2.68 -3.35,4.87 -3.35,6.57 a 5.58,5.58 0 0 0 4,3.75 22,22 0 0 0 6.84,1 41.63,41.63 0 0 0 12.41,-1.77 44.94,44.94 0 0 0 9.94,-4.34 33.13,33.13 0 0 0 6.55,-4.93 c 1.51,-1.58 2.28,-2.65 2.28,-3.22 z"
       class="cls-1" />
    <path
       style="fill:#ffffff"
       id="path1242"
       d="m 1489.48,1398.15 h -33.36 v 53 a 7.41,7.41 0 0 0 1.62,4.48 4.46,4.46 0 0 0 3.52,2.17 q 9.83,0 9.82,-20.28 l 13.25,7.57 a 33.53,33.53 0 0 1 -8.8,12 q -5.57,4.77 -14.66,4.77 a 16,16 0 0 1 -8.34,-2.4 18,18 0 0 1 -6,-6 13.8,13.8 0 0 1 -2.25,-7.28 v -48 h -13.77 v -8 h 13.77 V 1368 l 11.87,8.24 v 13.91 h 33.36 z"
       class="cls-1" />
  </g>
  <g
     transform="translate(-443.41418,-424.44)"
     id="g1268">
    <path
       style="fill:#ffffff"
       id="path1246"
       d="m 628,1558.83 -6.41,15.59 h -6.4 l 23.2,-56 H 644 l 23.2,56 h -6.37 l -6.4,-15.59 z m 13.2,-32 -10.82,26.41 H 652 Z"
       class="cls-1" />
    <path
       style="fill:#ffffff"
       id="path1248"
       d="m 751.77,1527.62 -14.77,46.8 h -6 l -18.4,-56 h 6.4 l 14.8,46.8 15.2,-46.8 h 5.62 l 15.2,46.8 14.8,-46.8 H 791 l -18.4,56 h -6 z"
       class="cls-1" />
    <path
       style="fill:#ffffff"
       id="path1250"
       d="m 858.59,1566.8 a 28.95,28.95 0 1 1 8.4,-20.39 27.74,27.74 0 0 1 -8.4,20.39 z m -36.6,-3.87 a 23,23 0 0 0 32.42,0 23.95,23.95 0 0 0 0,-33 23,23 0 0 0 -32.42,0 24,24 0 0 0 0,33 z"
       class="cls-1" />
    <path
       style="fill:#ffffff"
       id="path1252"
       d="m 915.46,1518.4 a 16.86,16.86 0 0 1 12.32,4.81 16.1,16.1 0 0 1 4.91,12 17.18,17.18 0 0 1 -1.22,6.56 13.82,13.82 0 0 1 -2.89,4.65 24,24 0 0 1 -3.39,2.85 12.43,12.43 0 0 1 -2.9,1.56 l -1.21,0.39 13.21,23.21 h -6.8 L 915.07,1552 h -16 v 22.38 h -6 v -56 z m -16.37,5.6 v 22.38 h 16.37 a 11.2,11.2 0 1 0 0,-22.38 z"
       class="cls-1" />
    <path
       style="fill:#ffffff"
       id="path1254"
       d="m 959.94,1574.42 v -56 h 6 v 50.43 h 28.78 v 5.59 z"
       class="cls-1" />
    <path
       style="fill:#ffffff"
       id="path1256"
       d="m 1035.2,1518.4 a 28.63,28.63 0 0 1 20.71,8.24 27.31,27.31 0 0 1 0,39.54 28.63,28.63 0 0 1 -20.71,8.24 h -17.62 v -56 z m -11.6,5.63 v 44.8 h 11.6 a 22.75,22.75 0 0 0 16.53,-6.52 22.22,22.22 0 0 0 0,-31.76 22.75,22.75 0 0 0 -16.53,-6.52 z"
       class="cls-1" />
    <path
       style="fill:#ffffff"
       id="path1258"
       d="m 1125,1558.83 -6.41,15.59 h -6.41 l 23.21,-56 h 5.58 l 23.21,56 h -6.37 l -6.41,-15.59 z m 13.2,-32 -10.82,26.41 h 21.6 z"
       class="cls-1" />
    <path
       style="fill:#ffffff"
       id="path1260"
       d="m 1208.61,1518.4 a 17.62,17.62 0 0 1 12.89,5 18,18 0 0 1 0,25.14 17.63,17.63 0 0 1 -12.87,5.06 h -15.2 v 20.78 h -6 v -56 z m -15.2,5.63 v 24 h 15.2 a 12,12 0 1 0 0,-24 z"
       class="cls-1" />
    <path
       style="fill:#ffffff"
       id="path1262"
       d="m 1253.87,1558.83 -6.41,15.59 h -6.4 l 23.2,-56 h 5.59 l 23.2,56 h -6.37 l -6.4,-15.59 z m 13.2,-32 -10.82,26.41 h 21.61 z"
       class="cls-1" />
    <path
       style="fill:#ffffff"
       id="path1264"
       d="m 1338.7,1518.4 a 16.88,16.88 0 0 1 12.33,4.81 16.09,16.09 0 0 1 4.9,12 17.18,17.18 0 0 1 -1.21,6.56 14,14 0 0 1 -2.89,4.65 23.47,23.47 0 0 1 -3.4,2.85 12.39,12.39 0 0 1 -2.89,1.56 l -1.21,0.39 13.2,23.21 h -6.79 L 1338.31,1552 h -16 v 22.38 h -6 v -56 z m -16.36,5.63 v 22.38 h 16.36 a 11.2,11.2 0 1 0 0,-22.38 z"
       class="cls-1" />
    <path
       style="fill:#ffffff"
       id="path1266"
       d="m 1416,1518.4 v 5.6 h -17.62 v 50.39 h -6 V 1524 h -17.61 v -5.63 z"
       class="cls-1" />
  </g>
  <g
     transform="translate(-443.41418,-424.44)"
     id="g1456">
    <g
       id="g1278">
      <path
         style="fill:#ffffff"
         id="path1270"
         d="m 897.25,1007.26 a 23.11,23.11 0 0 0 -2,1.42 c 0.57,-0.43 1.23,-0.92 2,-1.42 z"
         class="cls-1" />
      <path
         style="fill:#ffffff"
         id="path1272"
         d="m 1279.65,965.24 a 62.09,62.09 0 0 1 -29.16,10.41 c -19.6,1.83 -36.92,-5.46 -49.56,-13.36 a 59.73,59.73 0 0 1 13,-15.85 v -65.05 l 15.5,0.09 -10.28,-14.68 h -5.22 v -12.91 a 32.67,32.67 0 0 1 -4.41,12.91 h -70.74 v -12.91 a 32.67,32.67 0 0 1 -4.41,12.91 H 1105 v -12.91 a 32.67,32.67 0 0 1 -4.41,12.91 H 949 v -12.91 a 32.67,32.67 0 0 1 -4.41,12.91 H 819 l 0.15,0.21 c 0.4,1.88 5.24,16.19 59.78,14.48 h 0.95 v 24.06 a 52.34,52.34 0 0 0 -5.39,-8.16 25.11,25.11 0 0 0 -4.44,-4.21 16.31,16.31 0 0 0 -5.63,-2.22 30.45,30.45 0 0 0 -6.42,-0.79 q -10.47,0 -17,6.34 a 20.69,20.69 0 0 0 -6.51,15.38 q 0,8.88 9.44,17.2 9.44,8.32 19.42,8.33 a 19,19 0 0 0 8.09,-2.14 32.58,32.58 0 0 0 7.76,-5.16 v 8.2 c -7,47.89 -45.68,84.52 -92.33,84.52 a 88.68,88.68 0 0 1 -51.45,-16.53 C 705.2,977.7 648.42,863.31 786.3,841.43 943.77,816.39 888.21,734 888.21,734 c 23.15,47.22 -14.81,92.59 -104.63,95.37 -89.82,2.78 -90.14,93.26 -90.14,93.26 -2.49,57.28 43.74,105.3 99.44,105.48 44.17,0.14 82.78,-29.84 95.64,-71.15 l 0.07,0.07 c 1.41,-4.08 4.77,-15.53 5.77,-34.4 l 0.12,0.21 v -1 q 0,-3.17 8.64,-7.61 8.64,-4.44 12.29,-4.44 a 4.57,4.57 0 0 1 3.33,1.43 4.74,4.74 0 0 1 1.43,3.48 29.94,29.94 0 0 1 -3.49,14.91 l -8.09,9 c 0,1.59 1.17,3.07 3.49,4.45 a 13.43,13.43 0 0 0 6.82,2.06 18.6,18.6 0 0 0 7.93,-5.71 23,23 0 0 0 5.07,-15.06 28,28 0 0 0 -6.74,-18.71 q -6.74,-7.92 -15,-7.93 a 23.71,23.71 0 0 0 -8.16,2.09 22.81,22.81 0 0 0 -7.54,4.44 v -23.09 c 10.59,-0.17 24,-0.28 39.32,-0.36 v 86.53 c 3.92,-11.57 15.2,-20.88 15.2,-20.88 v -65.71 c 10.91,0 22.54,-0.05 34.62,-0.06 a 18.54,18.54 0 0 1 2.5,5.1 15.6,15.6 0 0 1 0.79,4.36 q 0,2.54 -3.49,4.28 c -1.26,0.64 -4,1.72 -8.32,3.25 a 52.29,52.29 0 0 1 -8.8,2.62 q 3,15.22 11.66,24.89 8.66,9.67 19.06,9.67 a 28.39,28.39 0 0 0 9.76,-2 47,47 0 0 0 10.24,-5.31 v 9.7 0 c 0,2.93 -0.07,7.26 -0.32,12.52 -0.2,4.16 -0.3,6.25 -0.47,7.47 -1.24,8.74 -7.83,12.53 -12.61,19.34 0,0 -6.1,8.7 -6.61,22.79 a 35.84,35.84 0 0 0 2.88,14.83 c -6.65,3 -13.38,6.21 -20,9.36 -9.63,4.55 -20.67,10.33 -30.71,6 -7.14,-3.11 -7.76,-8.75 -22.08,-19 -8.81,-6.29 -13,-7.32 -16.5,-7.41 a 23.2,23.2 0 0 0 -13.3,4.14 19.52,19.52 0 0 1 8.23,-3 22.49,22.49 0 0 1 9.26,1.2 c 13.76,5 24.66,31.39 40.46,36.32 9.65,3 12.9,-4.86 44.71,-18.18 1.35,-0.57 2.68,-1.12 4,-1.64 10.24,16.25 30.37,29.44 50,29.05 3.28,-0.07 19.93,-0.41 25.93,-11.12 6.2,-11.07 -0.55,-30.45 -13,-38 -13,-7.85 -34.19,-1.78 -57.24,8 q -0.18,-0.93 -0.3,-1.86 c -0.71,-5.18 -2.43,-17.72 4.76,-26.83 5.47,-7 14.14,-9.38 16.35,-18.83 a 51.22,51.22 0 0 0 0.62,-7.1 c 0.18,-3.24 0.27,-6.2 0.29,-8.84 0,-1.22 0,-2.37 0,-3.45 0,-1.36 0,-2.6 -0.08,-3.71 v -58.59 c 19.48,0 39.23,0.08 58.35,0.14 v 14.69 h -38.37 a 3.78,3.78 0 0 0 -2.86,1.43 4.35,4.35 0 0 0 -1.27,2.85 q 0,4.61 6.51,13 6.51,8.39 9.51,8.41 4.9,0 4.91,-3.65 v -5.71 c 0,-2 1,-3 2.86,-3 h 18.71 V 942 a 9.65,9.65 0 0 0 0.13,1.59 v 23.75 c 3.92,-11.57 15.2,-20.88 15.2,-20.88 v -65.58 l 18.43,0.07 v 61 a 9.47,9.47 0 0 0 0.17,1.73 v 23.66 c 3.92,-11.57 15.2,-20.88 15.2,-20.88 V 881 c 23.4,0.09 44.09,0.2 59.78,0.28 v 11.84 h -20.85 q -10.43,0 -16.43,5.24 a 14.73,14.73 0 0 0 -5.37,11.41 q 0,9.68 7.46,22.2 1.26,2.12 2.72,4.28 a 99.63,99.63 0 0 0 11.33,15.46 c 26.18,28.95 78,44.43 106.4,23.92 8,-5.76 11.53,-12.51 17.36,-23.61 18.63,-35.47 6.18,-58.8 23.61,-80.55 -19.64,22.36 -7.25,45.54 -28.69,76.85 a 62.52,62.52 0 0 1 -16.42,16.92 z M 867.28,921.68 q -9.94,5.55 -13.09,5.55 a 5.22,5.22 0 0 1 -4.19,-2.38 10.18,10.18 0 0 1 -1.81,-6.34 14.9,14.9 0 0 1 4.42,-10.31 13.44,13.44 0 0 1 10.09,-4.75 18.84,18.84 0 0 1 8.91,2.61 24.4,24.4 0 0 1 8.29,7.54 q -3.63,3.17 -12.62,8.08 z m 188.49,90.39 c 9.61,4.86 17.86,16.7 14.82,25 -3.04,8.3 -16.27,10.74 -25,9.87 -14.9,-1.47 -27.68,-13.86 -33.4,-28.27 31.33,-11.67 39.94,-8.44 43.58,-6.6 z M 1017,910.27 a 51.36,51.36 0 0 1 -13.15,8.08 q -8.42,3.81 -13,3.81 -5.4,0 -7.93,-2 a 6.43,6.43 0 0 1 -2.54,-5.33 q 0,-4.62 7,-6.36 7,-1.74 9.67,-3.35 c 1.8,-1.06 2.69,-2.39 2.69,-4 q 0,-7.56 -7.15,-20.5 H 1017 Z M 1174.3,936 q -4.75,-8.4 -4.75,-15.54 0,-6.81 2.69,-10 3.33,-4 10.78,-4 h 15.54 V 942 a 10.41,10.41 0 0 0 0.16,1.73 v 17.16 a 128.53,128.53 0 0 1 -18,-14.43 c -2.72,-4.32 -4.89,-7.84 -6.42,-10.46 z"
         class="cls-1" />
      <path
         style="fill:#ffffff"
         id="path1274"
         d="m 1350.79,854 c 1.24,-0.44 2.52,-0.87 3.86,-1.27 0.01,0.01 -1.46,0.39 -3.86,1.27 z"
         class="cls-1" />
      <path
         style="fill:#ffffff"
         id="path1276"
         d="m 1324.79,871.49 c 8.91,-10.14 20.19,-15.33 26,-17.48 -14.05,4.99 -21.67,12.07 -26,17.48 z"
         class="cls-1" />
    </g>
    <g
       id="g1454">
      <path
         style="fill:#2fb7ea"
         id="path1280"
         d="m 1066.87,599.23 c 3.55,4.24 7.84,9.33 12.07,14.46 21.87,26.52 12.85,59.17 -3.29,78.46 -11.62,13.9 -40,14.76 -53.42,2.52 -8.59,-7.85 -10.07,-18 -8.69,-28.87 2.4,-19 11.67,-34.85 23.69,-49.23 8.75,-10.47 17.92,-20.59 26.88,-30.89 a 119.47,119.47 0 0 1 11.77,-12.41 c -2.88,8.33 -5.79,16.67 -9.01,25.96 z m -17.4,19.47 c -6.57,9 -12.38,16.51 -17.56,24.39 -2.22,3.38 -3.52,7.52 -4.56,11.5 a 9.94,9.94 0 0 0 3.87,11.08 c 10.18,7.65 33.09,9.08 44,2.76 6.57,-3.8 7.66,-6.68 3.15,-12.75 -8.99,-12.12 -18.56,-23.82 -28.9,-36.98 z"
         class="cls-5" />
      <path
         style="fill:#2fb7ea"
         id="path1282"
         d="m 1289.06,1062.52 c -7.34,-14.4 -15.09,-29.6 -22.87,-44.78 -0.17,-0.35 -0.61,-0.57 -1.63,-1.46 -5.17,19.06 -8.72,37.72 -7.27,57.6 -8.71,-5.89 -17.49,-11.77 -26.17,-17.78 a 4.14,4.14 0 0 1 -1.34,-2.79 c -1.71,-18.64 0.09,-36.78 8.26,-53.74 4,-8.25 8.38,-9 15.86,-3.13 12.36,9.62 22.11,21.49 30.57,34.34 1.45,2.2 1.88,5.18 2.19,7.86 0.99,8.29 1.69,16.61 2.4,23.88 z"
         class="cls-5" />
      <path
         style="fill:#2fb7ea"
         id="path1284"
         d="m 1193.9,1207.22 c 0.55,-5.43 1.11,-10.86 1.63,-16 -5.7,-5.08 -12.3,-9.91 -17.57,-15.9 -9.42,-10.7 -10,-33.27 -2,-45.06 6.22,-9.18 22.75,-13.57 32.68,-8.6 a 17.52,17.52 0 0 1 9.16,11.23 47.1,47.1 0 0 1 -1.56,30.57 c -3.24,8.49 -7.21,16.71 -11.18,24.89 -3.15,6.47 -6.78,12.71 -10.2,19.06 z m 8.65,-33 2.09,-0.42 c 2.46,-7.5 5.46,-14.87 7.22,-22.52 1.37,-6 -1.48,-9.15 -7.4,-10.12 a 37.54,37.54 0 0 0 -6.78,-0.49 c -7,0.16 -13.52,1.88 -18.81,6.77 -2.44,2.27 -3.8,5 -0.63,7.62 8.01,6.54 16.2,12.82 24.31,19.2 z"
         class="cls-5" />
      <path
         style="fill:#2fb7ea"
         id="path1286"
         d="m 942,753.75 10.39,-14.21 c -2.27,-7.22 -5.36,-14.8 -6.95,-22.68 -3,-14.9 9.37,-36.44 23.48,-42.15 13.52,-5.47 33.36,4.06 34.91,17.24 a 28.85,28.85 0 0 1 -2,13 49.94,49.94 0 0 1 -18.77,23.41 c -10.26,7.07 -20.93,13.52 -31.43,20.23 -2.92,1.87 -5.87,3.69 -8.81,5.54 z m 25.81,-25.17 2.07,0.57 c 6.08,-5.09 12.4,-9.92 18.12,-15.38 3.08,-2.93 5,-7.41 1.54,-11.19 -7.53,-8.12 -17,-12.19 -28.2,-10.58 -3.65,0.52 -6.31,2.5 -4.65,6.93 q 5.56,14.84 11.15,29.65 z"
         class="cls-5" />
      <path
         style="fill:#2fb7ea"
         id="path1288"
         d="m 1244.14,1144 c 1.39,-3 3,-6 4.13,-9.09 5.86,-15.46 11.32,-31 17.57,-46.37 1.94,-4.77 5.38,-9.27 9,-13.12 5.61,-5.91 11.4,-5.31 16.41,0.83 7.07,8.68 7.33,12.75 1.26,22.34 -1.62,2.57 -3.45,5 -5.36,7.81 -2.63,-4.67 -4.6,-9.1 -7.43,-12.95 -3.88,-5.27 -7.31,-5.05 -10.93,0.41 a 50.4,50.4 0 0 0 -4.29,8.72 c -6.86,16.73 -13.58,33.51 -20.51,50.21 -1.09,2.65 -3,5 -4.57,7.48 a 15.72,15.72 0 0 1 -2.19,2 c -4.76,-18.72 -3.58,-38.34 -13.62,-55.64 l -4.11,3.71 c -6,-5.71 -12.08,-11.42 -18.07,-17.19 a 2.13,2.13 0 0 1 -0.66,-1.81 c 2.6,-5.75 5.15,-11.54 8.25,-17 0.37,-0.65 4.28,-0.17 6.09,0.67 9.59,4.44 15.4,12.27 19.52,21.33 6.08,13.41 7.83,27.72 8,42.31 0,1.66 0,3.32 0,5 z"
         class="cls-5" />
      <path
         style="fill:#2fb7ea"
         id="path1290"
         d="m 954.49,1184.76 c 10.1,-13.24 22,-25.28 29.43,-41.84 -5,1.93 -9,3.3 -12.91,5 -13.11,5.69 -22.44,-1.77 -21.84,-14.15 0.6,-12.38 1.26,-24.86 2.35,-37.25 a 18.2,18.2 0 0 1 3.67,-8.55 c 2.74,-3.74 7.36,-3 9,1.26 2.47,6.46 5.25,13 2.1,20.46 -5.19,-2.41 -6.76,0.71 -7.75,4.68 -0.52,2.1 -1,4.19 -1.54,6.29 -1.13,4.81 0.82,7.24 5.57,5.81 4.54,-1.36 8.82,-3.77 13,-6.17 9.3,-5.41 11.88,-4.65 16.09,5.35 6.09,14.46 1.88,32.2 -10.31,42 -6.6,5.3 -13.55,10.18 -20.42,15.14 a 45.9,45.9 0 0 1 -5.55,3 z"
         class="cls-5" />
      <path
         style="fill:#2fb7ea"
         id="path1292"
         d="m 1052.49,1217.83 -42.15,-12.61 -1.11,1.5 c 9.1,14.19 19.45,27.34 33.26,38.31 -8.71,2.15 -17.17,4.33 -25.68,6.24 a 5.69,5.69 0 0 1 -4,-1.24 98.22,98.22 0 0 1 -28.9,-33.9 23.37,23.37 0 0 1 -1.78,-4.65 c -1.51,-5.78 0,-8.88 5.95,-9.72 7.54,-1.07 15.24,-1.06 22.84,-1.76 17.13,-1.57 29.89,6.87 41.58,17.87 0.03,0.05 -0.03,0.23 -0.01,-0.04 z"
         class="cls-5" />
      <path
         style="fill:#2fb7ea"
         id="path1294"
         d="m 751.85,957.43 c -4.24,-3.54 -7.75,-6.58 -11.39,-9.47 -3.64,-2.89 -7.15,-5.41 -11.37,-8.59 l 11.68,-19 L 720.39,904.15 733.68,883 A 68.08,68.08 0 0 1 755,899 c 0.87,1 0.72,3.78 0,5.13 -2.84,5.06 -6.13,9.87 -9.25,14.75 5.47,4.37 10.84,8.75 16.31,13 3.25,2.52 3.55,5.12 1.2,8.48 -3.83,5.4 -7.39,11 -11.41,17.07 z"
         class="cls-5" />
      <path
         style="fill:#2fb7ea"
         id="path1296"
         d="m 777.69,817 -21.31,-31.4 -1.65,0.68 c 0,3.69 0.06,7.39 0,11.07 -0.19,9.65 -6,14.12 -15.13,11 -8.32,-2.82 -16.45,-6.26 -24.46,-9.88 a 22.51,22.51 0 0 1 -7.73,-6.08 c -2.67,-3.22 -0.87,-6.64 3.34,-6.72 a 47.58,47.58 0 0 1 9.89,0.82 c 2.68,0.5 5.84,1.14 3.8,5.47 -0.36,0.75 0.88,2.76 1.89,3.56 2.44,1.94 5.17,3.51 8.7,5.83 0.9,-2.83 2,-5 2.19,-7.27 a 27.6,27.6 0 0 0 -1,-7.38 c -2,-9.6 0.08,-12.14 9.91,-11.82 11.22,0.37 22.21,8.12 25.91,18.78 2.62,7.53 4.69,15.25 7,22.89 z"
         class="cls-5" />
      <path
         style="fill:#2fb7ea"
         id="path1298"
         d="m 1233.68,909.39 3.54,31.36 1.43,0.32 a 120.37,120.37 0 0 0 16.67,-33.4 c 4,5.33 7.8,10.3 11.4,15.42 a 5,5 0 0 1 0.45,3.72 c -3,11.05 -7.75,21.26 -15.55,29.78 -4.84,5.28 -8.53,5.2 -11.61,-1.12 -4.12,-8.47 -8.42,-17.22 -10.18,-26.32 -1.21,-6.24 1.78,-13.3 2.89,-20 z"
         class="cls-5" />
      <path
         style="fill:#2fb7ea"
         id="path1300"
         d="m 959.69,840 35.31,-25 -0.65,-2.59 c -3.58,-0.28 -7.16,-0.53 -10.73,-0.85 -11,-1 -15.6,-9.63 -11.3,-22.31 3.54,-10.43 7.82,-20.46 12,-30.49 a 26.21,26.21 0 0 1 5.46,-8.62 c 1.91,-1.82 5,-3.19 7.11,-2.58 1.17,0.33 2.38,5.33 2.11,8 -0.57,5.66 -2.09,11.18 -3.24,16.82 -5.89,-2.35 -13.91,3.81 -14.08,10.07 0,1.71 2.76,4.82 4.45,5.05 4,0.55 8.19,0 12.25,-0.54 6.68,-0.93 9,1.48 9,10 0.12,18.38 -8.9,33.7 -22.84,38.32 -6.42,2.13 -12.94,3.75 -19.44,5.46 a 30.45,30.45 0 0 1 -5.23,0.47 z"
         class="cls-5" />
      <path
         style="fill:#2fb7ea"
         id="path1302"
         d="m 789.73,761.3 q 1.65,14.87 3.27,29.7 l 2.21,0.51 15.63,-30.85 c 3,4 6.63,8.7 10,13.56 a 5.12,5.12 0 0 1 0.4,3.77 c -2.73,10.27 -7.2,19.72 -14.3,27.69 -4.84,5.45 -8.28,5.31 -11.49,-1.13 -3.84,-7.7 -7.9,-15.68 -9.43,-24 -1.13,-6.16 1.63,-13 2.65,-19.57 z"
         class="cls-5" />
      <path
         style="fill:#2fb7ea"
         id="path1304"
         d="m 1267.33,961.49 c 3.38,-8.85 8.21,-18.58 10.73,-28.87 3.82,-15.61 1.07,-31 -5.2,-45.76 -3.86,-9.05 -3.79,-9.54 3.06,-17.67 19.84,34.49 12.65,73.02 -8.59,92.3 z"
         class="cls-5" />
      <path
         style="fill:#2fb7ea"
         id="path1306"
         d="m 808.83,890.51 c 0.85,-2.81 1.63,-4.79 2,-6.84 0.87,-4.47 -0.84,-6.11 -5.11,-4.66 -3,1 -5.71,2.65 -8.6,3.92 -7.3,3.21 -14.6,6.41 -21.94,9.51 a 45.73,45.73 0 0 1 -6,1.44 c 2.65,-3.75 4.61,-6.37 6.42,-9.09 2.67,-4 5.39,-8 7.79,-12.18 1.16,-2 2,-3.68 0.1,-6.77 -1.9,-3.09 -1.3,-8.24 -0.31,-12.12 0.46,-1.81 4.38,-2.8 6.8,-4 3,-1.52 5,0.14 4.76,2.8 a 87.5,87.5 0 0 1 -2.64,17.4 c -1,3.53 -3.69,6.66 -5.92,9.75 -2.11,2.91 -4.62,5.53 -6.52,9 1.9,-0.82 3.83,-1.58 5.69,-2.48 6.88,-3.33 13.7,-6.8 20.62,-10 a 36.81,36.81 0 0 1 6.64,-2.07 c 3.61,-0.91 7.17,-1.1 8.88,3.1 1.46,3.59 -1.46,9.9 -5.07,11.22 -2.21,0.77 -4.61,1.26 -7.59,2.07 z"
         class="cls-5" />
      <path
         style="fill:#2fb7ea"
         id="path1308"
         d="m 822.94,898.86 c -1.68,2 -3.41,4 -5,6 -14.95,18.89 -20.45,40.34 -15.08,63.73 1.85,8 -1.49,11.94 -6.33,16.51 -11.18,-33.53 0.65,-69 26.41,-86.24 z"
         class="cls-5" />
      <path
         style="fill:#2fb7ea"
         id="path1310"
         d="m 1177.21,739.91 -19.62,-16.6 13,-19 c 6.09,5.29 11.9,10.13 17.38,15.31 0.8,0.76 0.7,3.51 0,4.68 -3.32,5.18 -6.97,10.13 -10.76,15.61 z"
         class="cls-5" />
      <path
         style="fill:#2fb7ea"
         id="path1312"
         d="m 892.5,691.94 c 23.61,14.74 37.58,50.62 28.57,70.93 -1.18,-8 -1.78,-17.24 -4,-26 -3.2,-12.57 -10.78,-22.71 -20.65,-31.06 -5.88,-4.99 -6.26,-6.13 -3.92,-13.87 z"
         class="cls-5" />
      <path
         style="fill:#2fb7ea"
         id="path1314"
         d="m 709.73,841.14 c -5.31,1.64 -9,0.26 -11.22,-3.74 -2.71,-4.81 -2.26,-10.36 1.13,-13.89 a 18,18 0 0 1 21.53,-3.33 c 3.47,2 6.64,4.59 11,1.34 -6.4,8.05 -12.17,16.48 -22.44,19.62 z M 711,822.88 a 4.83,4.83 0 0 0 -3.24,-0.76 c -2.39,0.63 -2.87,6.59 -1,11 1.2,2.89 2.88,5.26 6.3,3.17 2.76,-1.68 5.15,-4 8.53,-6.63 -4.18,-2.73 -7.31,-4.85 -10.59,-6.78 z"
         class="cls-5" />
      <path
         style="fill:#2fb7ea"
         id="path1316"
         d="m 1018.18,731.21 c -1.1,-5.9 -2.93,-11.76 -3.13,-17.69 -0.23,-7 5.83,-10.22 11.65,-6.18 3.52,2.43 7.39,6.07 8.54,9.94 4.38,14.67 7.72,29.65 11.44,44.52 l -2.27,0.59 c -1.17,-4.37 -2.38,-8.73 -3.51,-13.11 -1.69,-6.59 -2.73,-13.42 -5.19,-19.7 -1.54,-3.9 -4.89,-7.32 -8.07,-10.25 -1.25,-1.15 -4.65,-1.09 -6.36,-0.21 -1.16,0.6 -1.37,3.58 -1.48,5.52 a 38.66,38.66 0 0 0 0.62,6.21 z"
         class="cls-5" />
      <path
         style="fill:#2fb7ea"
         id="path1318"
         d="m 1265,869.33 -6.2,-8.05 -13.24,31.33 -1.46,-0.34 c -0.86,-5.33 -1.57,-10.69 -2.66,-16 -0.58,-2.82 -0.93,-5.37 -4.91,-6.8 -6.21,-2.22 -7.39,-7 -4.76,-11.76 1.41,-2.53 3.25,-3.31 5,-1.15 2.92,3.69 5.87,7.56 7.72,11.82 2.09,4.82 3,10.16 4.42,15.28 l -1.44,0.61 q 1.13,-2.74 2.27,-5.49 c 2.64,-6.43 5.06,-13 8,-19.24 1.3,-2.78 3.44,-5.83 7.41,-3.51 3.18,1.87 4.12,6.74 2.15,10.07 -0.69,1.12 -1.52,2.11 -2.3,3.23 z"
         class="cls-5" />
      <path
         style="fill:#2fb7ea"
         id="path1320"
         d="m 948.07,801.35 -15.88,-12.63 9.62,-15.22 c 4.88,3.8 9.41,7 13.5,10.75 1,0.86 1.15,3.73 0.47,5 -2.16,4.07 -4.91,7.81 -7.71,12.1 z"
         class="cls-5" />
      <path
         style="fill:#2fb7ea"
         id="path1322"
         d="m 1151.26,620.17 -15.85,-12.47 c 2.93,-4.67 5.95,-9.51 9.62,-15.37 5,4 9.67,7.6 14.12,11.43 a 3.55,3.55 0 0 1 0.5,3.38 c -2.6,4.38 -5.49,8.59 -8.39,13.03 z"
         class="cls-5" />
      <path
         style="fill:#2fb7ea"
         id="path1324"
         d="m 1102.45,617.5 -15.45,-12.18 9.3,-14.53 a 29.85,29.85 0 0 1 3.17,1.58 c 16.05,11.25 15.17,9.1 2.98,25.13 z"
         class="cls-5" />
      <path
         style="fill:#2fb7ea"
         id="path1326"
         d="m 1111.75,626 9.36,-14.69 c 1.35,0.75 2.25,1.14 3,1.7 16.24,11.48 15.23,9 3.09,25.26 z"
         class="cls-5" />
      <path
         style="fill:#2fb7ea"
         id="path1328"
         d="m 752.28,1036.11 c 5,3.94 9.33,7.2 13.4,10.8 0.93,0.81 1.61,3.22 1.09,4.15 -2.51,4.44 -5.47,8.63 -8.32,13 l -15.86,-12.59 z"
         class="cls-5" />
      <path
         style="fill:#2fb7ea"
         id="path1330"
         d="m 1198.78,731.29 c 4.7,4.16 8.92,7.6 12.71,11.47 0.91,0.94 1.09,3.75 0.36,5 -2.39,3.92 -5.34,7.51 -8.43,11.69 L 1188.28,746 Z"
         class="cls-5" />
      <path
         style="fill:#2fb7ea"
         id="path1332"
         d="m 1150.12,755.59 c 3.09,-4.87 6.08,-9.58 9.64,-15.21 4.86,3.83 9.45,7.23 13.73,11 a 4.46,4.46 0 0 1 0.59,4.22 c -2.42,4.26 -5.27,8.28 -8.1,12.6 z"
         class="cls-5" />
      <path
         style="fill:#2fb7ea"
         id="path1334"
         d="M 922.84,1239.65 908,1226 l 10.69,-14.49 c 4.58,4.2 8.93,8 12.9,12.07 0.78,0.81 0.66,3.46 -0.08,4.59 -2.51,3.83 -5.51,7.38 -8.67,11.48 z"
         class="cls-5" />
      <path
         style="fill:#2fb7ea"
         id="path1336"
         d="m 779,1104.43 c -3,4.47 -5.48,9.38 -9.07,13.29 -4.63,5 -10,3.28 -11.87,-3.38 -1.95,-7.17 0.79,-13.54 4.3,-19.4 5.62,-9.37 11.74,-18.43 17.64,-27.63 l 1.14,0.48 a 55,55 0 0 1 -2.73,6.17 c -3.39,5.71 -7.38,11.1 -10.31,17 a 33.36,33.36 0 0 0 -3.27,12.77 c -0.11,2.19 2.6,4.51 4,6.77 1.89,-1.27 3.87,-2.43 5.62,-3.86 a 19.66,19.66 0 0 0 2.7,-3.28 z"
         class="cls-5" />
      <path
         style="fill:#2fb7ea"
         id="path1338"
         d="m 945.92,1236.48 8.38,-13.8 c 4.47,3.42 8.57,6.41 12.45,9.65 0.76,0.63 1.3,2.63 0.87,3.38 -2.27,4 -4.88,7.73 -7.47,11.71 z"
         class="cls-5" />
      <path
         style="fill:#2fb7ea"
         id="path1340"
         d="m 1049.42,1127.62 c 5.3,1.52 9.84,2.5 14.07,4.21 1.38,0.56 2.85,3.11 2.75,4.65 -0.26,3.9 -1.39,7.74 -2.29,12.15 l -17.33,-5 c 0.88,-5.02 1.75,-9.98 2.8,-16.01 z"
         class="cls-5" />
      <path
         style="fill:#2fb7ea"
         id="path1342"
         d="m 919.42,835.87 c -0.94,-6.3 -1.77,-11.82 -2.65,-17.69 l 15.2,-4.11 c 1,5.45 2,10.54 2.62,15.68 0.1,0.87 -1.55,2.49 -2.69,2.86 -3.9,1.26 -7.97,2.12 -12.48,3.26 z"
         class="cls-5" />
      <path
         style="fill:#2fb7ea"
         id="path1344"
         d="m 921,802.14 c -12.74,1.82 -14.82,-0.37 -12.59,-13.27 3.82,0.5 7.7,0.85 11.5,1.63 0.76,0.16 1.65,2 1.66,3 0.02,2.92 -0.38,5.85 -0.57,8.64 z"
         class="cls-5" />
      <path
         style="fill:#2fb7ea"
         id="path1346"
         d="m 1029.19,1185.63 c -0.94,-6.31 -1.77,-11.83 -2.65,-17.7 l 15.21,-4.11 c 1,5.46 2,10.54 2.61,15.68 0.1,0.87 -1.55,2.5 -2.69,2.86 -3.92,1.26 -7.97,2.12 -12.48,3.27 z"
         class="cls-5" />
      <path
         style="fill:#2fb7ea"
         id="path1348"
         d="m 1077.88,1185.07 c -12.74,1.82 -14.82,-0.37 -12.59,-13.28 3.82,0.5 7.7,0.86 11.5,1.64 0.76,0.15 1.66,1.94 1.67,3 0.03,2.91 -0.36,5.84 -0.58,8.64 z"
         class="cls-5" />
      <path
         style="fill:#2fb7ea"
         id="path1350"
         d="m 1107.8,1043.55 -14.86,-13.67 10.69,-14.49 c 4.58,4.2 8.94,7.94 12.9,12.06 0.78,0.82 0.66,3.47 -0.08,4.6 -2.53,3.85 -5.51,7.4 -8.65,11.5 z"
         class="cls-5" />
      <path
         style="fill:#2fb7ea"
         id="path1352"
         d="m 1131.93,1009.73 -14.87,-13.67 10.7,-14.5 c 4.57,4.21 8.93,8 12.9,12.07 0.78,0.81 0.65,3.47 -0.09,4.6 -2.52,3.85 -5.5,7.4 -8.64,11.5 z"
         class="cls-5" />
      <path
         style="fill:#2fb7ea"
         id="path1354"
         d="m 1349.72,860.07 c -1.71,2 -3.47,3.92 -5.12,5.94 -5.85,7.19 -15.31,19.43 -16.6,34.56 -0.71,8.37 1.69,10.92 0.25,23.43 -0.62,5.38 -1.46,8.38 -3,11.25 a 27.2,27.2 0 0 1 -12.75,11.5 54.22,54.22 0 0 0 9.75,-20.75 c 2.85,-12.84 -0.88,-20.08 -0.11,-29.3 0.75,-9.06 5.97,-21.91 27.58,-36.63 z"
         class="cls-5" />
      <path
         style="fill:#2fb7ea"
         id="path1356"
         d="m 976.83,954.27 c -12.74,1.81 -14.82,-0.37 -12.59,-13.28 3.82,0.5 7.7,0.85 11.5,1.64 0.76,0.15 1.65,1.94 1.67,3 0.03,2.91 -0.41,5.84 -0.58,8.64 z"
         class="cls-5" />
      <path
         style="fill:#2fb7ea"
         id="path1358"
         d="m 986.38,977.66 c -12.74,1.81 -14.82,-0.37 -12.59,-13.28 3.82,0.5 7.7,0.85 11.5,1.64 0.76,0.15 1.65,1.94 1.67,3 0.04,2.91 -0.37,5.84 -0.58,8.64 z"
         class="cls-5" />
      <path
         style="fill:#2fb7ea"
         id="path1360"
         d="m 1095.74,1003.89 -14.87,-13.67 10.7,-14.5 c 4.58,4.21 8.93,7.95 12.9,12.07 0.78,0.81 0.65,3.47 -0.09,4.6 -2.52,3.85 -5.5,7.4 -8.64,11.5 z"
         class="cls-5" />
      <path
         style="fill:#2fb7ea"
         id="path1362"
         d="m 761.19,991.83 c -4.24,-3.53 -7.76,-6.57 -11.39,-9.46 -3.63,-2.89 -7.16,-5.42 -11.37,-8.59 l 11.68,-19 -20.38,-16.22 c 4.2,-6.67 8.64,-13.74 13.29,-21.14 a 68.08,68.08 0 0 1 21.34,16 c 0.87,1 0.72,3.79 0,5.14 -2.84,5.06 -6.14,9.86 -9.25,14.75 5.47,4.37 10.83,8.75 16.31,13 3.25,2.52 3.55,5.12 1.19,8.48 -3.84,5.38 -7.4,10.98 -11.42,17.04 z"
         class="cls-5" />
      <path
         style="fill:#2fb7ea"
         id="path1364"
         d="m 1093.74,721.92 c 3.78,2.57 7.44,5.35 11.39,7.61 1.51,0.86 4.43,1.37 5.39,0.53 1.21,-1.06 1.79,-3.82 1.4,-5.56 -2.14,-9.57 -5.09,-19 -7,-28.59 -3.1,-16 3.79,-26.28 19.74,-30 a 58.08,58.08 0 0 1 11.58,-1.14 c 3.76,-0.11 7.52,0.24 11.28,0.38 12.19,0.44 16.87,-2.43 20.73,-14.1 2.56,-7.75 4.07,-15.84 6.22,-23.74 a 89.58,89.58 0 0 1 3.84,-11.42 c 1.18,-2.77 3.35,-4.46 6.8,-3.56 2.08,0.54 3.18,1.41 3.3,3.77 1,19.74 2,39.47 -0.74,59.15 -2.16,15.66 -6.31,19.48 -22.1,20.29 -1.61,0.08 -3.23,0.11 -4.83,0.22 -14,0.94 -21.45,6.37 -24.94,19.89 -2.9,11.27 -4.32,22.91 -6.77,34.31 a 111.52,111.52 0 0 1 -5.32,18 c -1.76,4.41 -4,4.38 -7.08,0.67 -3.26,-3.91 -6.22,-8.08 -9.57,-11.91 -11.34,-13 -25.18,-8.08 -32.87,0.62 -2.81,3.18 -4.08,7.71 -6.25,11.5 -0.72,1.27 -2,2.9 -3.17,3 -1.17,0.1 -3,-1.39 -3.38,-2.55 -4.89,-16.09 -3.81,-31.44 6.8,-45.13 5.73,-7.39 13.18,-8.63 21.56,-4.31 1.32,0.68 2.57,1.47 3.86,2.21 z"
         class="cls-5" />
      <path
         style="fill:#2fb7ea"
         id="path1366"
         d="m 1092,1203.24 c 0,-1 0,-2 0,-3 0.4,-12.74 7.14,-19.72 20,-20 6,-0.14 12,0.87 17.94,0.84 1.92,0 4.62,-1.25 5.5,-2.77 0.66,-1.14 -0.55,-4.08 -1.78,-5.45 -4.12,-4.57 -8.69,-8.73 -13,-13.19 -3.67,-3.85 -7.33,-7.75 -10.67,-11.88 -10.93,-13.47 -6.81,-27 4.14,-37.15 3.5,-3.23 7.82,-5.62 11.9,-8.17 2.67,-1.67 5.6,-2.93 8.4,-4.39 12.38,-6.43 15.23,-11.84 12.16,-25.43 -2.15,-9.55 -5.32,-18.86 -7.75,-28.36 a 37,37 0 0 1 -1.36,-11.28 c 0.11,-1.74 2.39,-4.2 4.15,-4.7 1.56,-0.45 4.59,0.83 5.55,2.28 11.74,17.78 23.19,35.75 31.13,55.67 a 58.62,58.62 0 0 1 1.91,5.65 c 2.9,10.22 0.91,15.86 -7.82,21.95 -3.27,2.28 -6.66,4.39 -10,6.55 -10.86,7 -14.94,17.18 -11.56,29.3 3.83,13.74 9.19,27 13.55,40.64 a 90.16,90.16 0 0 1 3.75,16.91 c 0.56,4.78 -1.56,6.07 -6.1,4.44 -4.85,-1.73 -9.56,-3.84 -14.36,-5.69 -23.19,-8.94 -35.66,14.18 -32,29.93 0.19,0.8 0.7,1.68 0.52,2.4 -0.39,1.62 -0.72,3.68 -1.85,4.55 -0.75,0.57 -3.28,-0.13 -4.27,-1.06 -11.08,-10.46 -18.08,-22.9 -18.08,-38.59 z"
         class="cls-5" />
      <path
         style="fill:#2fb7ea"
         id="path1368"
         d="m 887.36,1036.11 c -3.69,58.47 -7.36,116.53 -11.08,175.38 L 852.53,1209 c 3.3,-57.78 6.59,-115.24 9.88,-172.87 z"
         class="cls-5" />
      <path
         style="fill:#2fb7ea"
         id="path1370"
         d="m 811.61,1140.15 c -16.26,-4.36 -17.88,-3.38 -18.77,10.41 -4.71,-1.54 -8,-7.26 -8,-13.8 -0.12,-11.69 9.58,-6.31 16.22,-8.69 -2.63,-2.77 -4.65,-5 -6.77,-7.1 -8.06,-8 -7.07,-14.52 3.1,-20 7.56,-4 8,-5 5.75,-13.42 -0.67,-2.57 -1.63,-5.08 -2.06,-7.68 a 8,8 0 0 1 1.23,-4.85 c 6.15,7.51 11.87,15 13.59,24.48 0.35,1.92 -2.09,5.06 -4.06,6.57 -7.11,5.42 -8,7.5 -5.27,16 1.24,3.79 2.84,7.46 4,11.26 a 47.76,47.76 0 0 1 1.04,6.82 z"
         class="cls-5" />
      <path
         style="fill:#2fb7ea"
         id="path1372"
         d="m 897.71,1225.57 h -4.44 c 0.68,-13.81 1.3,-27.3 2,-40.78 q 2.4,-44.7 4.86,-89.4 c 1,-17.91 2,-35.82 2.86,-53.73 0.19,-4 2,-3.8 5,-3.28 -3.44,62.4 -6.84,124.48 -10.28,187.19 z"
         class="cls-5" />
      <path
         style="fill:#2fb7ea"
         id="path1374"
         d="m 916.27,1083.29 c 5.23,0 9.6,5 9.5,10.84 -0.1,5.84 -4.64,10.6 -9.89,10.52 -5.25,-0.08 -9.64,-5.09 -9.5,-10.88 0.14,-5.79 4.51,-10.53 9.89,-10.48 z"
         class="cls-5" />
      <path
         style="fill:#2fb7ea"
         id="path1376"
         d="m 933.32,1140.28 c -0.05,5.89 -4.42,10.6 -9.72,10.47 -5.3,-0.13 -9.63,-5.1 -9.54,-10.84 0.09,-6 4.28,-10.33 9.88,-10.27 5.6,0.06 9.44,4.46 9.38,10.64 z"
         class="cls-5" />
      <path
         style="fill:#2fb7ea"
         id="path1378"
         d="m 1003.37,959.71 c -12.74,1.82 -14.82,-0.37 -12.58,-13.27 3.81,0.5 7.7,0.85 11.49,1.63 0.76,0.16 1.66,1.95 1.67,3 0.05,2.93 -0.36,5.85 -0.58,8.64 z"
         class="cls-5" />
      <path
         style="fill:#2fb7ea"
         id="path1380"
         d="m 742.71,1067.58 c 4.95,3.93 9.32,7.2 13.4,10.79 0.92,0.82 1.6,3.23 1.08,4.16 -2.5,4.44 -5.46,8.62 -8.31,13 L 733,1082.92 c 3,-4.74 6.05,-9.56 9.71,-15.34 z"
         class="cls-5" />
      <path
         style="fill:#2fb7ea"
         id="path1382"
         d="m 722.71,1025.94 c 4.95,3.93 9.32,7.19 13.4,10.79 0.92,0.82 1.6,3.22 1.08,4.16 -2.5,4.44 -5.46,8.62 -8.31,13 L 713,1041.27 c 3,-4.73 6.05,-9.56 9.71,-15.33 z"
         class="cls-5" />
      <path
         style="fill:#2fb7ea"
         id="path1384"
         d="m 1201.26,1054.74 c -0.59,4.11 -3.38,6.76 -8,7.09 -4.23,0.31 -8.37,-4.06 -8,-8.26 0.47,-4.63 3.19,-7.45 7.91,-7.68 4.36,-0.21 8.26,4.02 8.09,8.85 z"
         class="cls-5" />
      <path
         style="fill:#2fb7ea"
         id="path1386"
         d="m 920.79,1047.14 c 9.53,4.55 18.81,9.8 28.69,13.37 4.79,1.73 11.33,1.9 16,0 11.38,-4.52 22.12,-10.62 33.11,-16.09 -12.55,8.79 -25,17.69 -37.77,26.21 a 7.54,7.54 0 0 1 -6.8,-0.06 C 942.78,1063 931.83,1055 920.79,1047.14 Z"
         class="cls-5" />
      <path
         style="fill:#2fb7ea"
         id="path1388"
         d="m 1201.33,788.72 c 3.17,-5 5.86,-10.38 9.62,-14.87 9,-10.77 18.56,-21.12 29,-32.82 l -40.15,-43.41 c 3.25,1.66 7,2.73 9.65,5.06 12.18,10.72 24,21.78 36.81,33.43 l 38.27,-35 1.84,1.68 -33.37,38.5 37.42,42.34 -1.32,1.45 -43.1,-38.93 z"
         class="cls-5" />
      <path
         style="fill:#2fb7ea"
         id="path1390"
         d="m 1178,1030.34 c -0.59,4.11 -3.38,6.76 -8,7.1 -4.23,0.31 -8.37,-4.06 -7.95,-8.26 0.47,-4.64 3.19,-7.46 7.91,-7.69 4.35,-0.21 8.25,4.02 8.04,8.85 z"
         class="cls-5" />
      <path
         style="fill:#2fb7ea"
         id="path1392"
         d="m 778.69,1038.15 c 10.3,2.33 20.51,5.38 30.94,6.68 5.06,0.62 11.47,-0.67 15.61,-3.51 10.08,-6.92 19.2,-15.26 28.71,-23 -10.29,11.35 -20.48,22.8 -31,33.93 a 7.48,7.48 0 0 1 -6.64,1.45 c -12.65,-4.94 -25.11,-10.32 -37.62,-15.55 z"
         class="cls-5" />
      <path
         style="fill:#2fb7ea"
         id="path1394"
         d="m 1267.33,842.54 c 9.53,4.56 18.81,9.8 28.69,13.38 4.79,1.73 11.33,1.9 16,0.05 11.37,-4.52 22.11,-10.63 33.11,-16.09 -12.56,8.78 -25,17.69 -37.77,26.21 a 7.54,7.54 0 0 1 -6.8,-0.07 c -11.23,-7.59 -22.19,-15.6 -33.23,-23.48 z"
         class="cls-5" />
      <path
         style="fill:#2fb7ea"
         id="path1396"
         d="m 1009.36,1142.48 c -0.2,-3.74 -0.8,-7.5 -0.52,-11.19 0.69,-8.87 1.78,-17.7 2.82,-27.54 L 975,1096.18 c 2.28,-0.34 4.61,-1.17 6.83,-0.94 10.21,1 20.39,2.36 31.24,3.66 2.35,-11.07 4.59,-21.57 6.83,-32.08 l 1.56,0.19 c -1,10.49 -2,21 -3,32.06 l 34.83,8 c 0,0.41 -0.09,0.83 -0.14,1.24 l -36.51,-4.17 c -2.45,13 -4.86,25.67 -7.28,38.34 z"
         class="cls-5" />
      <path
         style="fill:#2fb7ea"
         id="path1398"
         d="M 1157.77,1010.61 1172,993 l -0.76,-0.94 c -1.91,0.63 -3.82,1.27 -5.73,1.88 -5.88,1.86 -9.7,-0.74 -9.53,-6.86 0.13,-5 0.72,-10 1.27,-15 a 11.78,11.78 0 0 1 1.43,-4.68 5.54,5.54 0 0 1 3.28,-2.53 c 0.67,-0.11 2.11,1.7 2.41,2.85 a 62.91,62.91 0 0 1 1.07,7.6 c -3.46,0.25 -6.63,4.45 -5.69,7.06 0.26,0.71 2.23,1.41 3.14,1.16 a 32.57,32.57 0 0 0 6.3,-2.76 c 3.32,-1.76 4.92,-1.25 6.34,2.24 a 17,17 0 0 1 -5.62,20.51 c -3,2.2 -6.13,4.22 -9.23,6.26 a 20.24,20.24 0 0 1 -2.65,1.28 z"
         class="cls-5" />
      <path
         style="fill:#2fb7ea"
         id="path1400"
         d="m 834.27,1198.39 h -4.44 c 0.68,-10.93 1.3,-21.6 2,-32.27 q 2.4,-35.36 4.86,-70.72 c 1,-14.17 2,-28.33 2.86,-42.51 0.19,-3.17 2,-3 5,-2.59 -3.44,49.37 -6.84,98.48 -10.28,148.09 z"
         class="cls-5" />
      <path
         style="fill:#2fb7ea"
         id="path1402"
         d="m 923.82,1185.82 c -0.05,5.9 -4.43,10.61 -9.73,10.48 -5.3,-0.13 -9.62,-5.1 -9.54,-10.84 0.09,-6 4.29,-10.33 9.89,-10.28 5.6,0.05 9.43,4.47 9.38,10.64 z"
         class="cls-5" />
      <path
         style="fill:#2fb7ea"
         id="path1404"
         d="m 951.18,1017 a 62.46,62.46 0 0 1 -0.38,-8.18 c 0.5,-6.48 1.3,-12.94 2.06,-20.13 l -26.77,-5.53 c 1.66,-0.25 3.36,-0.85 5,-0.69 7.46,0.75 14.9,1.72 22.83,2.67 1.72,-8.09 3.36,-15.76 5,-23.44 l 1.14,0.14 c -0.71,7.66 -1.43,15.33 -2.19,23.43 l 25.46,5.86 c 0,0.3 -0.07,0.6 -0.11,0.9 l -26.68,-3 c -1.83,9.44 -3.6,18.7 -5.36,27.97 z"
         class="cls-5" />
      <path
         style="fill:#2fb7ea"
         id="path1406"
         d="m 1202.36,1026.46 -14.86,-13.67 10.69,-14.49 c 4.58,4.2 8.93,7.94 12.9,12.06 0.78,0.82 0.65,3.47 -0.09,4.6 -2.52,3.85 -5.5,7.4 -8.64,11.5 z"
         class="cls-5" />
      <path
         style="fill:#2fb7ea"
         id="path1408"
         d="m 806.87,705.68 c 3.78,2.57 7.44,5.35 11.39,7.61 1.51,0.86 4.43,1.37 5.39,0.53 1.21,-1.06 1.79,-3.82 1.4,-5.56 -2.14,-9.57 -5.09,-19 -7,-28.59 -3.1,-16 3.79,-26.28 19.74,-30 a 58.11,58.11 0 0 1 11.59,-1.14 c 3.75,-0.11 7.51,0.24 11.27,0.38 12.19,0.44 16.87,-2.43 20.73,-14.1 2.56,-7.75 4.07,-15.84 6.22,-23.74 a 89.63,89.63 0 0 1 3.85,-11.42 c 1.17,-2.77 3.35,-4.46 6.79,-3.56 2.08,0.54 3.19,1.41 3.3,3.77 1,19.74 2,39.47 -0.74,59.15 -2.16,15.66 -6.31,19.48 -22.1,20.29 -1.61,0.08 -3.22,0.11 -4.83,0.22 -14,0.93 -21.45,6.37 -24.93,19.89 -2.91,11.27 -4.33,22.91 -6.78,34.31 a 112.5,112.5 0 0 1 -5.31,18 c -1.77,4.41 -4,4.38 -7.09,0.67 -3.26,-3.91 -6.22,-8.08 -9.57,-11.91 -11.34,-13 -25.17,-8.08 -32.87,0.62 -2.81,3.18 -4.07,7.71 -6.25,11.5 -0.72,1.27 -2,2.9 -3.17,3 -1.17,0.1 -3,-1.38 -3.38,-2.54 -4.89,-16.09 -3.81,-31.44 6.8,-45.13 5.74,-7.39 13.18,-8.63 21.57,-4.31 1.31,0.68 2.56,1.47 3.85,2.21 z"
         class="cls-5" />
      <path
         style="fill:#2fb7ea"
         id="path1410"
         d="m 717.39,768 c 0,0 12.11,-44 38.11,-59 0,0 -5.5,42.22 8.5,49.61 0,0 -37.22,-2.11 -46.61,9.39 z"
         class="cls-5" />
      <path
         style="fill:#2fb7ea"
         id="path1412"
         d="m 1287.59,995.93 c 0,0 63.7,-16.24 69.11,-61.9 0,-0.03 -4.53,67.49 -69.11,61.9 z"
         class="cls-5" />
      <path
         style="fill:#2fb7ea"
         id="path1414"
         d="m 1043.1,1058 c 0.3,0 0.77,0 1.25,0 0.15,0 0.29,-0.14 0.09,0 4.06,5.26 8,10.55 12.14,15.63 3,3.59 6.44,6.8 6.06,12 -0.37,0 -1.38,-0.21 -1.43,-0.07 -1.09,3.09 -3.88,2.65 -6.22,3.06 -6.13,1.06 -12.27,2.08 -18.4,3.1 a 8.83,8.83 0 0 1 -2.44,0.21 c -3.2,-0.43 -4,-2 -2.66,-5.31 1.73,-4.28 3.65,-8.49 5.35,-12.78 1.62,-4.1 3,-8.29 4.6,-12.42 0.4,-1.12 1.01,-2.13 1.66,-3.42 z"
         class="cls-5" />
      <path
         style="fill:#2fb7ea"
         id="path1416"
         d="m 1027.14,790.46 10.85,4.39 c 2.34,-3.24 4.82,-6.53 7.15,-9.92 2.69,-3.88 6.5,-4 9.91,-2.07 3.11,1.76 6.56,4 4.27,9.06 -1.94,4.33 -2.93,9.07 -4.42,13.87 2.36,2 4.95,4.05 7.34,6.31 4.28,4 5.12,9.45 2.24,13.24 -2.61,3.44 -8.52,3.74 -13.37,0.58 -1.92,-1.26 -3.71,-2.71 -5.65,-4.14 l -10.44,12 c -13.57,-8.07 -14.48,-10.4 -8.74,-21.67 -2,-3.45 -8.08,-4.9 -5.92,-10.3 1.52,-3.81 4.22,-7.17 6.78,-11.35 z"
         class="cls-5" />
      <path
         style="fill:#2fb7ea"
         id="path1418"
         d="m 899.19,836.33 -4,1.16 2.61,4.82 c -13,-0.56 -25.21,1.52 -37.54,5.36 -6.24,1.94 -13.29,2.48 -19.91,2.87 -5.94,0.34 -7.34,-2.11 -4.52,-6.16 a 7,7 0 0 1 2,-2.18 c 14.38,-8.28 29.45,-15 47.44,-14.08 8.21,0.41 11.53,2.5 13.92,8.21 z"
         class="cls-5" />
      <path
         style="fill:#2fb7ea"
         id="path1420"
         d="m 1106,765.34 c 1.33,4 2.22,8 4.15,11.81 1.14,2.24 3.12,4.83 6.12,5.71 4.71,1.39 9.72,-0.44 13.21,-3.91 5,-5 5.45,-10.07 5,-15.16 -0.17,-2 -0.35,-4 -0.53,-6 l 2.28,-0.6 c 1.3,2.52 4,5 3.64,7.59 a 85.7,85.7 0 0 1 -5.09,19.61 c -1.29,3.32 -4.75,7.14 -11.09,7.59 -6.34,0.45 -11,-1.57 -12.88,-5.28 a 136.77,136.77 0 0 1 -5.81,-14.5 44.63,44.63 0 0 1 -1.37,-6.27 z"
         class="cls-5" />
      <path
         style="fill:#2fb7ea"
         id="path1422"
         d="m 1121.75,808 c 1.75,-2.3 2.17,-3.39 3,-3.79 q 28.14,-14.34 56.37,-28.49 a 1.51,1.51 0 0 1 1.32,0.15 c 0.36,4.5 0.69,8.46 1,12.43 0.55,7.28 0.44,14.67 1.74,21.8 2.22,12.22 5.42,24.26 7.93,36.42 0.38,1.83 -0.74,4 -1.16,6 -1.49,-1.21 -3.48,-2.13 -4.39,-3.67 -6.31,-10.69 -12.26,-21.59 -18.71,-32.18 -1,-1.68 -3.93,-2.86 -6.08,-3.07 -9,-0.89 -18.16,-1.06 -27.2,-2 -4.34,-0.51 -8.49,-2.17 -13.82,-3.6 z m 15.62,-2.37 0.12,1 c 1.91,0.15 3.83,0.32 5.74,0.44 7.62,0.49 15.24,1.06 22.87,1.39 3.57,0.16 5.77,1.75 7.38,4.88 2.91,5.67 6.11,11.2 9.29,17 L 1177,784.78 Z"
         class="cls-5" />
      <path
         style="fill:#2fb7ea"
         id="path1424"
         d="m 1245.87,769 32.86,30.41 -41.06,20.59 c 4.39,-4.92 8.54,-9.76 12.91,-14.4 2.42,-2.56 3.19,-5.17 2.15,-8.59 -2.22,-7.3 -4.22,-14.67 -6.29,-22 -0.53,-1.85 -1,-3.71 -1.49,-5.57 z"
         class="cls-5" />
      <path
         style="fill:#2fb7ea"
         id="path1426"
         d="m 919.57,637.21 32.86,30.41 -41.06,20.63 c 4.39,-4.92 8.54,-9.77 12.91,-14.41 2.42,-2.56 3.19,-5.16 2.15,-8.59 -2.22,-7.3 -4.22,-14.67 -6.3,-22 -0.52,-1.84 -1,-3.71 -1.48,-5.56 z"
         class="cls-5" />
      <path
         style="fill:#2fb7ea"
         id="path1428"
         d="m 1313.39,1058.26 -13.18,-42.79 45.87,2.75 c -6.27,2.06 -12.29,4.17 -18.4,6 -3.37,1 -5.35,2.86 -6.16,6.35 -1.74,7.43 -3.71,14.81 -5.6,22.21 -0.47,1.86 -1,3.71 -1.5,5.56 z"
         class="cls-5" />
      <path
         style="fill:#2fb7ea"
         id="path1430"
         d="m 911.24,615.73 c 1.76,-2.3 2.17,-3.39 3,-3.78 q 28.14,-14.36 56.37,-28.5 a 1.51,1.51 0 0 1 1.32,0.15 c 0.36,4.5 0.69,8.47 1,12.43 0.54,7.28 0.43,14.67 1.73,21.81 2.22,12.21 5.42,24.25 7.93,36.42 0.38,1.82 -0.74,4 -1.16,5.94 -1.49,-1.21 -3.47,-2.12 -4.39,-3.67 -6.31,-10.68 -12.25,-21.59 -18.71,-32.18 -1,-1.68 -3.92,-2.86 -6.08,-3.07 -9,-0.88 -18.16,-1.06 -27.2,-2 -4.33,-0.48 -8.48,-2.14 -13.81,-3.55 z m 15.62,-2.36 0.12,1 c 1.91,0.15 3.83,0.33 5.75,0.45 7.61,0.48 15.23,1 22.86,1.38 3.57,0.16 5.77,1.76 7.38,4.89 2.92,5.67 6.11,11.19 9.29,17 l -5.79,-45.58 q -19.84,10.43 -39.61,20.86 z"
         class="cls-5" />
      <path
         style="fill:#2fb7ea"
         id="path1432"
         d="m 987.12,631.56 30,-16.84 -0.55,-1.74 c -3,-0.19 -6.09,-0.35 -9.13,-0.57 -9.34,-0.67 -13.27,-6.48 -9.61,-15 3,-7 6.65,-13.76 10.23,-20.5 a 17.59,17.59 0 0 1 4.65,-5.8 c 1.62,-1.22 4.21,-2.15 6,-1.74 1,0.22 2,3.59 1.8,5.38 -0.49,3.81 -1.78,7.51 -2.76,11.31 -5,-1.58 -11.83,2.56 -12,6.77 0,1.15 2.35,3.25 3.78,3.4 a 48.53,48.53 0 0 0 10.42,-0.36 c 5.68,-0.63 7.65,1 7.7,6.71 0.1,12.36 -7.57,22.67 -19.43,25.78 -5.46,1.43 -11,2.52 -16.53,3.66 a 31.29,31.29 0 0 1 -4.45,0.32 z"
         class="cls-5" />
      <path
         style="fill:#2fb7ea"
         id="path1434"
         d="m 1224.66,684 c 1.33,4 2.22,8.05 4.15,11.81 1.15,2.24 3.12,4.83 6.12,5.71 4.71,1.39 9.72,-0.44 13.21,-3.91 5,-5 5.45,-10.07 5,-15.16 -0.17,-2 -0.35,-4 -0.53,-6.05 l 2.28,-0.6 c 1.31,2.52 4,4.95 3.64,7.59 a 85.7,85.7 0 0 1 -5.09,19.61 c -1.29,3.31 -4.75,7.14 -11.09,7.58 -6.34,0.44 -11,-1.56 -12.88,-5.27 a 138.94,138.94 0 0 1 -5.83,-14.45 44.63,44.63 0 0 1 -1.37,-6.27 z"
         class="cls-5" />
      <path
         style="fill:#2fb7ea"
         id="path1436"
         d="m 1344.18,828.41 c -12.74,1.82 -14.81,-0.37 -12.58,-13.27 3.81,0.5 7.7,0.85 11.49,1.63 0.76,0.16 1.66,2 1.67,3 0.04,2.92 -0.36,5.85 -0.58,8.64 z"
         class="cls-5" />
      <path
         style="fill:#2fb7ea"
         id="path1438"
         d="m 1332.18,798.35 c -12.74,1.81 -14.81,-0.37 -12.58,-13.28 3.81,0.5 7.7,0.85 11.49,1.64 0.76,0.15 1.66,1.94 1.67,3 0.04,2.91 -0.36,5.84 -0.58,8.64 z"
         class="cls-5" />
      <path
         style="fill:#2fb7ea"
         id="path1440"
         d="m 1321.18,770.35 c -12.74,1.81 -14.81,-0.37 -12.58,-13.28 3.81,0.5 7.7,0.85 11.49,1.64 0.76,0.15 1.66,1.94 1.67,3 0.04,2.91 -0.36,5.84 -0.58,8.64 z"
         class="cls-5" />
      <path
         style="fill:#2fb7ea"
         id="path1442"
         d="m 832.8,950.75 c 0,3.9 -2.93,7 -6.44,6.93 -3.51,-0.07 -6.36,-3.37 -6.31,-7.17 0.06,-4 2.84,-6.84 6.54,-6.8 3.7,0.04 6.24,2.95 6.21,7.04 z"
         class="cls-5" />
      <path
         style="fill:#2fb7ea"
         id="path1444"
         d="m 847.09,966.38 c 0,3.9 -2.93,7 -6.44,6.93 -3.51,-0.07 -6.37,-3.38 -6.31,-7.18 0.06,-3.8 2.84,-6.83 6.54,-6.8 3.7,0.03 6.24,2.96 6.21,7.05 z"
         class="cls-5" />
      <path
         style="fill:#2fb7ea"
         id="path1446"
         d="m 832.13,978.09 c 0,3.9 -2.93,7 -6.43,6.93 -3.5,-0.07 -6.37,-3.38 -6.32,-7.17 0.06,-4 2.84,-6.84 6.54,-6.8 3.7,0.04 6.25,2.95 6.21,7.04 z"
         class="cls-5" />
      <path
         style="fill:#2fb7ea"
         id="path1448"
         d="m 1307.62,741.34 c -12.74,1.81 -14.82,-0.37 -12.58,-13.28 3.81,0.5 7.7,0.85 11.49,1.64 0.76,0.15 1.66,1.94 1.67,3 0.03,2.91 -0.36,5.84 -0.58,8.64 z"
         class="cls-5" />
      <path
         style="fill:#2fb7ea"
         id="path1450"
         d="m 1085.94,799.45 32.86,30.41 -41.06,20.63 c 4.39,-4.92 8.54,-9.77 12.91,-14.41 2.42,-2.56 3.19,-5.16 2.15,-8.58 -2.22,-7.31 -4.22,-14.68 -6.3,-22 -0.52,-1.84 -1,-3.71 -1.48,-5.56 z"
         class="cls-5" />
      <path
         style="fill:#2fb7ea"
         id="path1452"
         d="m 1093,1106.89 -13.18,-42.78 45.87,2.74 c -6.26,2.06 -12.29,4.17 -18.4,6 -3.37,1 -5.35,2.87 -6.16,6.35 -1.74,7.43 -3.71,14.81 -5.59,22.21 -0.48,1.86 -1,3.71 -1.51,5.56 z"
         class="cls-5" />
    </g>
  </g>
</svg>
